<svg xmlns="http://www.w3.org/2000/svg" xmlns:xlink="http://www.w3.org/1999/xlink" width="500" zoomAndPan="magnify" viewBox="0 0 375 374.999991" height="500" preserveAspectRatio="xMidYMid meet" version="1.0"><path fill="#000000" d="M 325.675781 331.332031 L 325.675781 76.082031 C 325.675781 52.003906 306.085938 32.414062 282.003906 32.414062 L 267.859375 32.414062 C 262.859375 13.808594 246.007812 0 225.832031 0 L 149.238281 0 C 129.0625 0 112.207031 13.808594 107.207031 32.414062 L 93.0625 32.414062 C 68.980469 32.414062 49.390625 52.003906 49.390625 76.082031 L 49.390625 331.332031 C 49.390625 355.414062 68.980469 375 93.0625 375 L 282.003906 375 C 306.085938 375 325.675781 355.414062 325.675781 331.332031 Z M 141.851562 43.667969 C 141.851562 39.597656 145.160156 36.289062 149.238281 36.289062 L 225.832031 36.289062 C 229.90625 36.289062 233.214844 39.597656 233.214844 43.667969 L 233.214844 57.449219 C 233.214844 61.515625 229.90625 64.824219 225.832031 64.824219 L 149.238281 64.824219 C 145.160156 64.824219 141.851562 61.515625 141.851562 57.449219 Z M 85.691406 331.332031 L 85.691406 76.082031 C 85.691406 72.011719 89 68.707031 93.0625 68.707031 L 107.210938 68.707031 C 112.210938 87.3125 129.0625 101.117188 149.238281 101.117188 L 225.832031 101.117188 C 246.003906 101.117188 262.855469 87.3125 267.859375 68.707031 L 282.003906 68.707031 C 286.070312 68.707031 289.378906 72.011719 289.378906 76.082031 L 289.378906 331.332031 C 289.378906 335.402344 286.070312 338.710938 282.003906 338.710938 L 93.0625 338.710938 C 89 338.710938 85.691406 335.402344 85.691406 331.332031 Z M 85.691406 331.332031 " fill-opacity="1" fill-rule="nonzero"/><path fill="#000000" d="M 251.367188 129.042969 L 123.703125 129.042969 C 113.683594 129.042969 105.554688 137.164062 105.554688 147.1875 C 105.554688 157.210938 113.683594 165.332031 123.703125 165.332031 L 251.367188 165.332031 C 261.386719 165.332031 269.515625 157.210938 269.515625 147.1875 C 269.515625 137.164062 261.386719 129.042969 251.367188 129.042969 Z M 251.367188 129.042969 " fill-opacity="1" fill-rule="nonzero"/><path fill="#000000" d="M 251.367188 193.257812 L 123.703125 193.257812 C 113.683594 193.257812 105.554688 201.378906 105.554688 211.402344 C 105.554688 221.425781 113.683594 229.550781 123.703125 229.550781 L 251.367188 229.550781 C 261.386719 229.550781 269.515625 221.425781 269.515625 211.402344 C 269.515625 201.378906 261.386719 193.257812 251.367188 193.257812 Z M 251.367188 193.257812 " fill-opacity="1" fill-rule="nonzero"/><path fill="#000000" d="M 251.367188 257.476562 L 123.703125 257.476562 C 113.683594 257.476562 105.554688 265.597656 105.554688 275.621094 C 105.554688 285.644531 113.683594 293.765625 123.703125 293.765625 L 251.367188 293.765625 C 261.386719 293.765625 269.515625 285.644531 269.515625 275.621094 C 269.515625 265.597656 261.386719 257.476562 251.367188 257.476562 Z M 251.367188 257.476562 " fill-opacity="1" fill-rule="nonzero"/></svg>