<svg xmlns="http://www.w3.org/2000/svg" xmlns:xlink="http://www.w3.org/1999/xlink" width="500" zoomAndPan="magnify" viewBox="0 0 375 374.999991" height="500" preserveAspectRatio="xMidYMid meet" version="1.0"><path fill="#ffbe0d" d="M 304.613281 226 C 298.636719 231.796875 295.910156 240.167969 297.328125 248.40625 L 310.726562 326.589844 C 314.289062 347.257812 292.570312 363.007812 274.03125 353.238281 L 203.851562 316.300781 C 196.476562 312.441406 187.65625 312.441406 180.28125 316.300781 L 110.101562 353.238281 C 93.410156 362.039062 74.152344 350.167969 73.113281 332.613281 C 72.933594 330.675781 73.070312 328.664062 73.40625 326.589844 L 86.828125 248.40625 C 88.203125 240.167969 85.472656 231.796875 79.542969 226 L 22.753906 170.601562 C 7.714844 155.957031 16.035156 130.460938 36.78125 127.4375 L 115.242188 116.042969 C 123.472656 114.824219 130.578125 109.679688 134.253906 102.210938 L 169.390625 31.042969 C 178.660156 12.222656 205.429688 12.222656 214.742188 31.042969 L 249.835938 102.210938 C 253.511719 109.65625 260.613281 114.824219 268.847656 116.042969 L 347.351562 127.4375 C 349.335938 127.730469 351.207031 128.226562 352.945312 128.902344 C 369.496094 135.222656 374.953125 157.335938 361.355469 170.601562 Z M 304.613281 226 " fill-opacity="1" fill-rule="nonzero"/><path fill="#ffce00" d="M 352.964844 128.902344 C 290.835938 229.292969 190.949219 303.84375 73.113281 332.613281 C 72.933594 330.675781 73.070312 328.664062 73.40625 326.589844 L 86.828125 248.40625 C 88.203125 240.167969 85.472656 231.796875 79.542969 226 L 22.753906 170.601562 C 7.714844 155.957031 16.035156 130.460938 36.78125 127.4375 L 115.242188 116.042969 C 123.472656 114.824219 130.578125 109.679688 134.253906 102.210938 L 169.390625 31.042969 C 178.660156 12.222656 205.429688 12.222656 214.742188 31.042969 L 249.835938 102.210938 C 253.511719 109.65625 260.613281 114.824219 268.847656 116.042969 L 347.351562 127.4375 C 349.359375 127.730469 351.230469 128.203125 352.964844 128.902344 Z M 352.964844 128.902344 " fill-opacity="1" fill-rule="nonzero"/></svg>