<svg xmlns="http://www.w3.org/2000/svg" xmlns:xlink="http://www.w3.org/1999/xlink" width="500" zoomAndPan="magnify" viewBox="0 0 375 374.999991" height="500" preserveAspectRatio="xMidYMid meet" version="1.0"><defs><clipPath id="c48bce94de"><path d="M 4 18.75 L 371 18.75 L 371 356 L 4 356 Z M 4 18.75 " clip-rule="nonzero"/></clipPath></defs><g clip-path="url(#c48bce94de)"><path fill="#000000" d="M 270.039062 18.75 C 216.941406 18.75 187.5 57.085938 187.5 57.085938 C 187.5 57.085938 158.058594 18.75 104.960938 18.75 C 49.234375 18.75 4.074219 63.910156 4.074219 119.632812 C 4.074219 196.140625 94.175781 270.277344 119.285156 293.703125 C 148.210938 320.664062 187.5 355.332031 187.5 355.332031 C 187.5 355.332031 226.789062 320.664062 255.714844 293.703125 C 280.824219 270.277344 370.925781 196.140625 370.925781 119.632812 C 370.925781 63.910156 325.765625 18.75 270.039062 18.75 Z M 239.058594 259.21875 C 235.8125 262.152344 232.988281 264.703125 230.695312 266.847656 C 216.921875 279.6875 200.632812 294.417969 187.5 306.195312 C 174.367188 294.417969 158.058594 279.671875 144.304688 266.847656 C 141.992188 264.703125 139.167969 262.136719 135.941406 259.21875 C 109.894531 235.683594 40.761719 173.175781 40.761719 119.632812 C 40.761719 84.230469 69.558594 55.433594 104.960938 55.433594 C 138.472656 55.433594 157.894531 78.820312 158.410156 79.425781 L 187.5 110.460938 L 216.589844 79.425781 C 216.773438 79.1875 236.527344 55.433594 270.039062 55.433594 C 305.441406 55.433594 334.238281 84.230469 334.238281 119.632812 C 334.238281 173.175781 265.105469 235.683594 239.058594 259.21875 Z M 239.058594 259.21875 " fill-opacity="1" fill-rule="nonzero"/></g></svg>