<svg xmlns="http://www.w3.org/2000/svg" xmlns:xlink="http://www.w3.org/1999/xlink" width="500" zoomAndPan="magnify" viewBox="0 0 375 374.999991" height="500" preserveAspectRatio="xMidYMid meet" version="1.0"><defs><clipPath id="24363717df"><path d="M 26.71875 0 L 348.46875 0 L 348.46875 375 L 26.71875 375 Z M 26.71875 0 " clip-rule="nonzero"/></clipPath></defs><g clip-path="url(#24363717df)"><path fill="#000000" d="M 250.710938 223.125 C 252.558594 221.988281 254.378906 220.804688 256.164062 219.574219 C 257.949219 218.339844 259.699219 217.058594 261.417969 215.730469 C 263.132812 214.402344 264.8125 213.03125 266.453125 211.613281 C 268.097656 210.191406 269.699219 208.730469 271.261719 207.226562 C 272.824219 205.722656 274.347656 204.175781 275.828125 202.589844 C 277.304688 201.003906 278.742188 199.375 280.132812 197.710938 C 281.527344 196.046875 282.871094 194.347656 284.171875 192.609375 C 285.472656 190.871094 286.722656 189.101562 287.929688 187.296875 C 289.132812 185.492188 290.289062 183.65625 291.394531 181.789062 C 292.5 179.921875 293.550781 178.027344 294.554688 176.105469 C 295.558594 174.179688 296.507812 172.230469 297.40625 170.253906 C 298.304688 168.28125 299.144531 166.28125 299.9375 164.261719 C 300.726562 162.242188 301.460938 160.203125 302.140625 158.140625 C 302.820312 156.082031 303.441406 154.003906 304.007812 151.910156 C 304.578125 149.816406 305.085938 147.707031 305.539062 145.585938 C 305.992188 143.464844 306.390625 141.335938 306.726562 139.191406 C 307.066406 137.046875 307.34375 134.898438 307.566406 132.742188 C 307.789062 130.582031 307.953125 128.421875 308.058594 126.253906 C 308.164062 124.085938 308.210938 121.917969 308.199219 119.75 C 308.1875 117.582031 308.117188 115.414062 307.988281 113.25 C 307.859375 111.082031 307.671875 108.921875 307.425781 106.765625 C 307.179688 104.613281 306.875 102.464844 306.511719 100.328125 C 306.152344 98.1875 305.730469 96.058594 305.253906 93.945312 C 304.777344 91.828125 304.246094 89.726562 303.65625 87.636719 C 303.066406 85.550781 302.417969 83.480469 301.71875 81.429688 C 301.015625 79.375 300.257812 77.34375 299.445312 75.332031 C 298.636719 73.320312 297.769531 71.332031 296.851562 69.367188 C 295.929688 67.402344 294.960938 65.460938 293.933594 63.550781 C 292.910156 61.636719 291.835938 59.753906 290.710938 57.898438 C 289.585938 56.042969 288.410156 54.222656 287.1875 52.429688 C 285.960938 50.636719 284.691406 48.882812 283.371094 47.160156 C 282.050781 45.4375 280.6875 43.75 279.277344 42.101562 C 277.867188 40.453125 276.414062 38.84375 274.917969 37.273438 C 273.417969 35.703125 271.882812 34.171875 270.300781 32.683594 C 268.722656 31.199219 267.101562 29.753906 265.445312 28.351562 C 263.789062 26.953125 262.09375 25.597656 260.363281 24.289062 C 258.632812 22.980469 256.867188 21.71875 255.066406 20.507812 C 253.269531 19.292969 251.4375 18.128906 249.578125 17.011719 C 247.714844 15.898438 245.824219 14.835938 243.90625 13.820312 C 241.984375 12.808594 240.039062 11.847656 238.070312 10.941406 C 236.097656 10.035156 234.101562 9.179688 232.085938 8.378906 C 230.070312 7.578125 228.03125 6.832031 225.972656 6.144531 C 223.914062 5.453125 221.839844 4.820312 219.75 4.242188 C 217.65625 3.660156 215.550781 3.140625 213.429688 2.675781 C 211.3125 2.210938 209.179688 1.804688 207.039062 1.453125 C 204.894531 1.105469 202.746094 0.8125 200.589844 0.578125 C 198.429688 0.34375 196.269531 0.171875 194.101562 0.0546875 C 191.933594 -0.0625 189.765625 -0.121094 187.59375 -0.121094 C 185.421875 -0.121094 183.253906 -0.0625 181.085938 0.0546875 C 178.917969 0.171875 176.757812 0.34375 174.597656 0.578125 C 172.441406 0.8125 170.292969 1.105469 168.148438 1.453125 C 166.007812 1.804688 163.875 2.210938 161.757812 2.675781 C 159.636719 3.140625 157.53125 3.660156 155.4375 4.242188 C 153.347656 4.820312 151.273438 5.453125 149.214844 6.144531 C 147.15625 6.832031 145.117188 7.578125 143.101562 8.378906 C 141.085938 9.179688 139.089844 10.035156 137.117188 10.941406 C 135.148438 11.847656 133.203125 12.808594 131.28125 13.820312 C 129.363281 14.835938 127.472656 15.898438 125.609375 17.011719 C 123.75 18.128906 121.917969 19.292969 120.121094 20.507812 C 118.320312 21.71875 116.554688 22.980469 114.824219 24.289062 C 113.09375 25.597656 111.398438 26.953125 109.742188 28.351562 C 108.085938 29.753906 106.464844 31.199219 104.886719 32.683594 C 103.304688 34.171875 101.769531 35.703125 100.269531 37.273438 C 98.773438 38.84375 97.320312 40.453125 95.910156 42.101562 C 94.5 43.75 93.136719 45.4375 91.816406 47.160156 C 90.496094 48.882812 89.226562 50.636719 88 52.429688 C 86.777344 54.222656 85.601562 56.042969 84.476562 57.898438 C 83.351562 59.753906 82.277344 61.636719 81.253906 63.550781 C 80.226562 65.460938 79.257812 67.402344 78.335938 69.367188 C 77.417969 71.332031 76.550781 73.320312 75.742188 75.332031 C 74.929688 77.34375 74.171875 79.375 73.46875 81.429688 C 72.769531 83.480469 72.121094 85.550781 71.53125 87.636719 C 70.941406 89.726562 70.410156 91.828125 69.933594 93.945312 C 69.457031 96.058594 69.035156 98.1875 68.675781 100.328125 C 68.3125 102.464844 68.007812 104.613281 67.761719 106.765625 C 67.515625 108.921875 67.328125 111.082031 67.199219 113.25 C 67.070312 115.414062 67 117.582031 66.988281 119.75 C 66.976562 121.917969 67.023438 124.085938 67.128906 126.253906 C 67.234375 128.421875 67.398438 130.582031 67.621094 132.742188 C 67.84375 134.898438 68.121094 137.046875 68.460938 139.191406 C 68.796875 141.335938 69.195312 143.464844 69.648438 145.585938 C 70.101562 147.707031 70.609375 149.816406 71.179688 151.910156 C 71.746094 154.003906 72.367188 156.082031 73.046875 158.140625 C 73.726562 160.203125 74.460938 162.242188 75.25 164.261719 C 76.039062 166.28125 76.882812 168.28125 77.78125 170.253906 C 78.679688 172.230469 79.628906 174.179688 80.632812 176.105469 C 81.636719 178.027344 82.6875 179.921875 83.792969 181.789062 C 84.898438 183.65625 86.054688 185.492188 87.257812 187.296875 C 88.464844 189.101562 89.714844 190.871094 91.015625 192.609375 C 92.316406 194.347656 93.660156 196.046875 95.054688 197.710938 C 96.445312 199.375 97.882812 201.003906 99.359375 202.589844 C 100.839844 204.175781 102.363281 205.722656 103.925781 207.226562 C 105.488281 208.730469 107.089844 210.191406 108.734375 211.613281 C 110.375 213.03125 112.054688 214.402344 113.769531 215.730469 C 115.488281 217.058594 117.238281 218.339844 119.023438 219.574219 C 120.808594 220.804688 122.628906 221.988281 124.476562 223.125 C 120.933594 224.394531 117.441406 225.796875 114.003906 227.332031 C 110.566406 228.871094 107.195312 230.535156 103.886719 232.328125 C 100.578125 234.125 97.339844 236.042969 94.179688 238.085938 C 91.015625 240.128906 87.9375 242.289062 84.941406 244.566406 C 81.945312 246.84375 79.039062 249.234375 76.226562 251.734375 C 73.414062 254.234375 70.699219 256.839844 68.085938 259.546875 C 65.472656 262.257812 62.96875 265.0625 60.570312 267.960938 C 58.171875 270.863281 55.886719 273.851562 53.71875 276.925781 C 51.546875 280 49.5 283.152344 47.570312 286.386719 C 45.644531 289.617188 43.84375 292.917969 42.167969 296.289062 C 40.492188 299.660156 38.949219 303.089844 37.539062 306.578125 C 36.128906 310.066406 34.851562 313.601562 33.710938 317.1875 C 32.570312 320.773438 31.570312 324.398438 30.707031 328.0625 C 29.84375 331.722656 29.121094 335.414062 28.542969 339.132812 C 27.964844 342.851562 27.527344 346.585938 27.234375 350.335938 C 26.941406 354.085938 26.792969 357.84375 26.785156 361.605469 C 26.785156 362.488281 26.871094 363.355469 27.042969 364.21875 C 27.214844 365.082031 27.46875 365.917969 27.804688 366.730469 C 28.140625 367.542969 28.554688 368.316406 29.042969 369.046875 C 29.53125 369.777344 30.089844 370.457031 30.710938 371.078125 C 31.332031 371.699219 32.011719 372.253906 32.742188 372.742188 C 33.472656 373.230469 34.246094 373.644531 35.058594 373.980469 C 35.871094 374.316406 36.710938 374.570312 37.570312 374.742188 C 38.433594 374.914062 39.304688 375 40.1875 375 L 335 375 C 335.882812 375 336.753906 374.914062 337.617188 374.742188 C 338.476562 374.570312 339.316406 374.316406 340.128906 373.980469 C 340.941406 373.644531 341.714844 373.230469 342.445312 372.742188 C 343.175781 372.253906 343.855469 371.699219 344.476562 371.078125 C 345.097656 370.457031 345.65625 369.777344 346.144531 369.046875 C 346.632812 368.316406 347.042969 367.542969 347.382812 366.730469 C 347.71875 365.917969 347.972656 365.082031 348.144531 364.21875 C 348.316406 363.355469 348.402344 362.488281 348.402344 361.605469 C 348.394531 357.84375 348.246094 354.085938 347.953125 350.335938 C 347.660156 346.585938 347.222656 342.851562 346.644531 339.132812 C 346.066406 335.414062 345.34375 331.722656 344.480469 328.0625 C 343.617188 324.398438 342.617188 320.773438 341.476562 317.1875 C 340.335938 313.601562 339.058594 310.066406 337.648438 306.578125 C 336.238281 303.089844 334.695312 299.660156 333.019531 296.289062 C 331.34375 292.917969 329.542969 289.617188 327.617188 286.386719 C 325.6875 283.15625 323.640625 280 321.46875 276.925781 C 319.300781 273.851562 317.015625 270.863281 314.617188 267.960938 C 312.21875 265.0625 309.714844 262.257812 307.101562 259.546875 C 304.488281 256.839844 301.773438 254.234375 298.960938 251.734375 C 296.148438 249.234375 293.242188 246.84375 290.246094 244.566406 C 287.25 242.289062 284.171875 240.128906 281.007812 238.085938 C 277.847656 236.042969 274.609375 234.125 271.300781 232.328125 C 267.992188 230.535156 264.621094 228.871094 261.183594 227.332031 C 257.746094 225.796875 254.253906 224.394531 250.710938 223.125 Z M 93.789062 120.535156 C 93.789062 119 93.828125 117.46875 93.902344 115.9375 C 93.976562 114.402344 94.089844 112.875 94.242188 111.347656 C 94.390625 109.820312 94.578125 108.296875 94.804688 106.78125 C 95.03125 105.261719 95.292969 103.75 95.589844 102.246094 C 95.890625 100.742188 96.226562 99.246094 96.601562 97.757812 C 96.972656 96.269531 97.382812 94.789062 97.828125 93.320312 C 98.273438 91.851562 98.753906 90.398438 99.273438 88.953125 C 99.789062 87.507812 100.34375 86.078125 100.929688 84.660156 C 101.515625 83.242188 102.140625 81.839844 102.796875 80.453125 C 103.453125 79.066406 104.140625 77.695312 104.867188 76.34375 C 105.589844 74.988281 106.34375 73.65625 107.136719 72.339844 C 107.925781 71.023438 108.746094 69.726562 109.597656 68.449219 C 110.449219 67.175781 111.335938 65.921875 112.25 64.6875 C 113.164062 63.457031 114.109375 62.246094 115.082031 61.0625 C 116.054688 59.875 117.058594 58.714844 118.089844 57.578125 C 119.121094 56.441406 120.179688 55.328125 121.265625 54.246094 C 122.347656 53.160156 123.460938 52.101562 124.597656 51.070312 C 125.734375 50.042969 126.898438 49.039062 128.085938 48.066406 C 129.269531 47.09375 130.480469 46.148438 131.714844 45.234375 C 132.949219 44.320312 134.203125 43.4375 135.480469 42.585938 C 136.753906 41.734375 138.050781 40.914062 139.367188 40.125 C 140.683594 39.335938 142.019531 38.578125 143.375 37.855469 C 144.726562 37.132812 146.097656 36.441406 147.488281 35.785156 C 148.875 35.128906 150.277344 34.507812 151.695312 33.921875 C 153.113281 33.335938 154.546875 32.78125 155.992188 32.265625 C 157.4375 31.75 158.894531 31.269531 160.363281 30.824219 C 161.832031 30.378906 163.3125 29.96875 164.800781 29.59375 C 166.289062 29.222656 167.789062 28.886719 169.292969 28.585938 C 170.800781 28.289062 172.3125 28.027344 173.828125 27.800781 C 175.347656 27.574219 176.871094 27.386719 178.398438 27.238281 C 179.925781 27.085938 181.457031 26.972656 182.992188 26.898438 C 184.523438 26.824219 186.058594 26.785156 187.59375 26.785156 C 189.128906 26.785156 190.664062 26.824219 192.195312 26.898438 C 193.730469 26.972656 195.261719 27.085938 196.789062 27.238281 C 198.316406 27.386719 199.839844 27.574219 201.359375 27.800781 C 202.875 28.027344 204.386719 28.289062 205.894531 28.585938 C 207.398438 28.886719 208.898438 29.222656 210.386719 29.59375 C 211.875 29.96875 213.355469 30.378906 214.824219 30.824219 C 216.292969 31.269531 217.75 31.75 219.195312 32.265625 C 220.640625 32.78125 222.074219 33.335938 223.492188 33.921875 C 224.910156 34.507812 226.3125 35.128906 227.699219 35.785156 C 229.089844 36.441406 230.460938 37.132812 231.8125 37.855469 C 233.167969 38.578125 234.503906 39.335938 235.820312 40.125 C 237.136719 40.914062 238.433594 41.734375 239.707031 42.585938 C 240.984375 43.4375 242.238281 44.320312 243.472656 45.234375 C 244.707031 46.148438 245.917969 47.09375 247.101562 48.066406 C 248.289062 49.039062 249.453125 50.042969 250.589844 51.070312 C 251.726562 52.101562 252.839844 53.160156 253.921875 54.246094 C 255.007812 55.328125 256.066406 56.441406 257.097656 57.578125 C 258.128906 58.714844 259.132812 59.875 260.105469 61.0625 C 261.078125 62.246094 262.023438 63.457031 262.9375 64.6875 C 263.851562 65.921875 264.738281 67.175781 265.589844 68.449219 C 266.441406 69.726562 267.261719 71.023438 268.050781 72.339844 C 268.84375 73.65625 269.597656 74.988281 270.320312 76.34375 C 271.046875 77.695312 271.734375 79.066406 272.390625 80.453125 C 273.046875 81.839844 273.671875 83.242188 274.257812 84.660156 C 274.84375 86.078125 275.398438 87.507812 275.914062 88.953125 C 276.433594 90.398438 276.914062 91.851562 277.359375 93.320312 C 277.804688 94.789062 278.214844 96.269531 278.585938 97.757812 C 278.960938 99.246094 279.296875 100.742188 279.597656 102.246094 C 279.894531 103.75 280.15625 105.261719 280.382812 106.78125 C 280.609375 108.296875 280.796875 109.820312 280.945312 111.347656 C 281.097656 112.875 281.210938 114.402344 281.285156 115.9375 C 281.359375 117.46875 281.398438 119 281.398438 120.535156 C 281.398438 122.070312 281.359375 123.601562 281.285156 125.136719 C 281.210938 126.667969 281.097656 128.199219 280.945312 129.726562 C 280.796875 131.25 280.609375 132.773438 280.382812 134.292969 C 280.15625 135.808594 279.894531 137.320312 279.597656 138.824219 C 279.296875 140.332031 278.960938 141.828125 278.585938 143.316406 C 278.214844 144.804688 277.804688 146.28125 277.359375 147.75 C 276.914062 149.21875 276.433594 150.675781 275.914062 152.117188 C 275.398438 153.5625 274.84375 154.996094 274.257812 156.414062 C 273.671875 157.828125 273.046875 159.230469 272.390625 160.617188 C 271.734375 162.007812 271.046875 163.375 270.320312 164.730469 C 269.597656 166.082031 268.84375 167.417969 268.050781 168.734375 C 267.261719 170.046875 266.441406 171.34375 265.589844 172.621094 C 264.738281 173.894531 263.851562 175.148438 262.9375 176.382812 C 262.023438 177.613281 261.078125 178.824219 260.105469 180.011719 C 259.132812 181.195312 258.128906 182.359375 257.097656 183.496094 C 256.066406 184.632812 255.007812 185.742188 253.921875 186.828125 C 252.839844 187.910156 251.726562 188.96875 250.589844 190 C 249.453125 191.03125 248.289062 192.03125 247.101562 193.003906 C 245.917969 193.980469 244.707031 194.921875 243.472656 195.835938 C 242.238281 196.75 240.984375 197.632812 239.707031 198.484375 C 238.433594 199.339844 237.136719 200.160156 235.820312 200.949219 C 234.503906 201.738281 233.167969 202.492188 231.8125 203.214844 C 230.460938 203.9375 229.089844 204.628906 227.699219 205.285156 C 226.3125 205.941406 224.910156 206.5625 223.492188 207.148438 C 222.074219 207.738281 220.640625 208.289062 219.195312 208.804688 C 217.75 209.324219 216.292969 209.804688 214.824219 210.25 C 213.355469 210.695312 211.875 211.101562 210.386719 211.476562 C 208.898438 211.847656 207.398438 212.183594 205.894531 212.484375 C 204.386719 212.785156 202.875 213.046875 201.359375 213.269531 C 199.839844 213.496094 198.316406 213.683594 196.789062 213.835938 C 195.261719 213.984375 193.730469 214.097656 192.195312 214.171875 C 190.664062 214.25 189.128906 214.285156 187.59375 214.285156 C 186.058594 214.285156 184.523438 214.25 182.992188 214.171875 C 181.457031 214.097656 179.925781 213.984375 178.398438 213.835938 C 176.871094 213.683594 175.347656 213.496094 173.828125 213.269531 C 172.3125 213.046875 170.800781 212.785156 169.292969 212.484375 C 167.789062 212.183594 166.289062 211.847656 164.800781 211.476562 C 163.3125 211.101562 161.832031 210.695312 160.363281 210.25 C 158.894531 209.804688 157.4375 209.324219 155.992188 208.804688 C 154.546875 208.289062 153.113281 207.738281 151.695312 207.148438 C 150.277344 206.5625 148.875 205.941406 147.488281 205.285156 C 146.097656 204.628906 144.726562 203.9375 143.375 203.214844 C 142.019531 202.492188 140.683594 201.738281 139.367188 200.949219 C 138.050781 200.160156 136.753906 199.339844 135.480469 198.484375 C 134.203125 197.632812 132.949219 196.75 131.714844 195.835938 C 130.480469 194.921875 129.269531 193.980469 128.085938 193.003906 C 126.898438 192.03125 125.734375 191.03125 124.597656 190 C 123.460938 188.96875 122.347656 187.910156 121.265625 186.828125 C 120.179688 185.742188 119.121094 184.632812 118.089844 183.496094 C 117.058594 182.359375 116.054688 181.195312 115.082031 180.011719 C 114.109375 178.824219 113.164062 177.613281 112.25 176.382812 C 111.335938 175.148438 110.449219 173.894531 109.597656 172.621094 C 108.746094 171.34375 107.925781 170.050781 107.136719 168.734375 C 106.34375 167.417969 105.589844 166.082031 104.867188 164.730469 C 104.140625 163.375 103.453125 162.007812 102.796875 160.617188 C 102.140625 159.230469 101.515625 157.828125 100.929688 156.414062 C 100.34375 154.996094 99.789062 153.5625 99.273438 152.117188 C 98.753906 150.675781 98.273438 149.21875 97.828125 147.75 C 97.382812 146.28125 96.972656 144.804688 96.601562 143.316406 C 96.226562 141.828125 95.890625 140.332031 95.589844 138.824219 C 95.292969 137.320312 95.03125 135.808594 94.804688 134.292969 C 94.578125 132.773438 94.390625 131.25 94.242188 129.726562 C 94.089844 128.199219 93.976562 126.667969 93.902344 125.136719 C 93.828125 123.601562 93.789062 122.070312 93.789062 120.535156 Z M 54.390625 348.214844 C 54.59375 346.394531 54.839844 344.578125 55.125 342.769531 C 55.414062 340.957031 55.742188 339.15625 56.109375 337.363281 C 56.476562 335.566406 56.886719 333.78125 57.335938 332.003906 C 57.789062 330.230469 58.277344 328.464844 58.808594 326.710938 C 59.339844 324.957031 59.910156 323.214844 60.519531 321.488281 C 61.128906 319.761719 61.78125 318.046875 62.46875 316.351562 C 63.15625 314.652344 63.882812 312.96875 64.648438 311.304688 C 65.414062 309.640625 66.214844 307.992188 67.054688 306.363281 C 67.894531 304.738281 68.773438 303.128906 69.6875 301.539062 C 70.601562 299.953125 71.550781 298.382812 72.535156 296.839844 C 73.519531 295.292969 74.539062 293.773438 75.59375 292.273438 C 76.648438 290.773438 77.738281 289.300781 78.859375 287.851562 C 79.980469 286.402344 81.132812 284.980469 82.320312 283.582031 C 83.507812 282.1875 84.726562 280.816406 85.976562 279.476562 C 87.222656 278.136719 88.503906 276.824219 89.8125 275.539062 C 91.121094 274.257812 92.457031 273.007812 93.824219 271.785156 C 95.191406 270.5625 96.585938 269.371094 98.003906 268.214844 C 99.425781 267.054688 100.871094 265.929688 102.34375 264.839844 C 103.816406 263.746094 105.3125 262.6875 106.832031 261.664062 C 108.351562 260.640625 109.894531 259.648438 111.457031 258.695312 C 113.023438 257.742188 114.609375 256.824219 116.21875 255.941406 C 117.824219 255.0625 119.449219 254.214844 121.097656 253.410156 C 122.742188 252.601562 124.40625 251.832031 126.085938 251.101562 C 127.765625 250.367188 129.464844 249.675781 131.175781 249.019531 C 132.886719 248.367188 134.613281 247.75 136.355469 247.175781 C 138.09375 246.601562 139.847656 246.066406 141.613281 245.570312 C 143.378906 245.074219 145.152344 244.617188 146.9375 244.203125 C 148.722656 243.789062 150.519531 243.414062 152.320312 243.082031 C 154.125 242.746094 155.933594 242.457031 157.75 242.203125 C 159.566406 241.953125 161.386719 241.746094 163.210938 241.578125 C 165.035156 241.410156 166.863281 241.285156 168.695312 241.199219 C 170.527344 241.113281 172.359375 241.074219 174.191406 241.070312 L 200.996094 241.070312 C 202.828125 241.074219 204.660156 241.113281 206.492188 241.199219 C 208.324219 241.285156 210.152344 241.410156 211.976562 241.578125 C 213.800781 241.746094 215.621094 241.953125 217.4375 242.203125 C 219.253906 242.457031 221.0625 242.746094 222.867188 243.082031 C 224.667969 243.414062 226.464844 243.789062 228.25 244.203125 C 230.035156 244.617188 231.808594 245.074219 233.574219 245.570312 C 235.339844 246.066406 237.09375 246.601562 238.832031 247.175781 C 240.574219 247.75 242.300781 248.367188 244.011719 249.019531 C 245.722656 249.675781 247.421875 250.367188 249.101562 251.101562 C 250.78125 251.832031 252.445312 252.601562 254.089844 253.410156 C 255.738281 254.214844 257.363281 255.0625 258.96875 255.941406 C 260.578125 256.824219 262.164062 257.742188 263.730469 258.695312 C 265.292969 259.648438 266.835938 260.640625 268.355469 261.664062 C 269.875 262.6875 271.371094 263.746094 272.84375 264.839844 C 274.316406 265.929688 275.761719 267.054688 277.183594 268.214844 C 278.601562 269.371094 279.996094 270.5625 281.363281 271.785156 C 282.730469 273.007812 284.066406 274.257812 285.375 275.539062 C 286.683594 276.824219 287.964844 278.136719 289.210938 279.476562 C 290.460938 280.816406 291.679688 282.1875 292.867188 283.582031 C 294.054688 284.980469 295.207031 286.402344 296.328125 287.851562 C 297.449219 289.300781 298.539062 290.773438 299.59375 292.273438 C 300.648438 293.773438 301.667969 295.292969 302.652344 296.839844 C 303.636719 298.382812 304.585938 299.953125 305.5 301.539062 C 306.414062 303.128906 307.292969 304.738281 308.132812 306.363281 C 308.972656 307.992188 309.773438 309.640625 310.539062 311.304688 C 311.304688 312.96875 312.03125 314.652344 312.71875 316.351562 C 313.40625 318.046875 314.058594 319.761719 314.667969 321.488281 C 315.277344 323.214844 315.847656 324.957031 316.378906 326.710938 C 316.910156 328.464844 317.398438 330.230469 317.851562 332.003906 C 318.300781 333.78125 318.710938 335.566406 319.078125 337.363281 C 319.445312 339.15625 319.773438 340.957031 320.0625 342.769531 C 320.347656 344.578125 320.59375 346.394531 320.796875 348.214844 Z M 54.390625 348.214844 " fill-opacity="1" fill-rule="nonzero"/></g></svg>