<svg xmlns="http://www.w3.org/2000/svg" xmlns:xlink="http://www.w3.org/1999/xlink" width="1920" zoomAndPan="magnify" viewBox="0 0 1440 809.999993" height="1080" preserveAspectRatio="xMidYMid meet" version="1.0"><defs><clipPath id="7a5b118d45"><path d="M 0 30.792969 L 1440 30.792969 L 1440 151.542969 L 0 151.542969 Z M 0 30.792969 " clip-rule="nonzero"/></clipPath><clipPath id="d5fb6a330d"><path d="M 0 52.992188 L 1440 52.992188 L 1440 537 L 0 537 Z M 0 52.992188 " clip-rule="nonzero"/></clipPath><clipPath id="c40e304d43"><path d="M 1276.523438 102.300781 L 1440 102.300781 L 1440 140.550781 L 1276.523438 140.550781 Z M 1276.523438 102.300781 " clip-rule="nonzero"/></clipPath><clipPath id="4643dbb300"><path d="M 1047.671875 102.300781 L 1278.671875 102.300781 L 1278.671875 140.550781 L 1047.671875 140.550781 Z M 1047.671875 102.300781 " clip-rule="nonzero"/></clipPath><clipPath id="c54d1a2437"><path d="M 1219.503906 123.363281 L 1440 123.363281 L 1440 161.613281 L 1219.503906 161.613281 Z M 1219.503906 123.363281 " clip-rule="nonzero"/></clipPath><clipPath id="56b78a71ec"><path d="M 1023.414062 123.363281 L 1254.414062 123.363281 L 1254.414062 161.613281 L 1023.414062 161.613281 Z M 1023.414062 123.363281 " clip-rule="nonzero"/></clipPath></defs><rect x="-144" width="1728" fill="#ffffff" y="-80.999999" height="971.999992" fill-opacity="1"/><rect x="-144" width="1728" fill="#ffffff" y="-80.999999" height="971.999992" fill-opacity="1"/><g clip-path="url(#7a5b118d45)"><path fill="#737373" d="M -14.234375 502.945312 L 346.71875 503.253906 C 875.667969 503.792969 1243.472656 503.691406 1450.136719 502.945312 L 962.015625 14.820312 L -14.234375 14.824219 L -14.234375 502.945312 " fill-opacity="1" fill-rule="nonzero"/></g><g clip-path="url(#d5fb6a330d)"><path fill="#ffffff" d="M 0.613281 536.171875 L 357.910156 536.476562 C 881.496094 537.011719 1245.574219 536.910156 1450.144531 536.171875 L 966.96875 52.996094 L 0.613281 52.996094 L 0.613281 536.171875 " fill-opacity="1" fill-rule="nonzero"/></g><g clip-path="url(#c40e304d43)"><path fill="#737373" d="M 1276.734375 102.3125 L 1392.144531 102.3125 L 1507.554688 102.316406 C 1507.554688 115.132812 1507.554688 127.953125 1507.554688 140.769531 C 1430.613281 140.769531 1353.671875 140.769531 1276.734375 140.769531 C 1276.734375 127.953125 1276.734375 115.132812 1276.734375 102.3125 " fill-opacity="1" fill-rule="nonzero"/></g><g clip-path="url(#4643dbb300)"><path fill="#737373" d="M 1047.882812 102.3125 L 1163.292969 102.3125 L 1278.703125 102.316406 C 1278.703125 115.132812 1278.703125 127.953125 1278.703125 140.769531 C 1201.761719 140.769531 1124.820312 140.769531 1047.882812 140.769531 C 1047.882812 127.953125 1047.882812 115.132812 1047.882812 102.3125 " fill-opacity="1" fill-rule="nonzero"/></g><g clip-path="url(#c54d1a2437)"><path fill="#ffffff" d="M 1219.714844 123.375 L 1450.277344 123.375 C 1450.277344 136.132812 1450.277344 148.890625 1450.277344 161.644531 C 1373.421875 161.644531 1296.566406 161.644531 1219.714844 161.644531 C 1219.714844 148.890625 1219.714844 136.132812 1219.714844 123.375 " fill-opacity="1" fill-rule="nonzero"/></g><g clip-path="url(#56b78a71ec)"><path fill="#ffffff" d="M 1023.625 123.375 L 1254.1875 123.375 C 1254.1875 136.132812 1254.1875 148.890625 1254.1875 161.644531 C 1177.332031 161.644531 1100.480469 161.644531 1023.625 161.644531 C 1023.625 148.890625 1023.625 136.132812 1023.625 123.375 " fill-opacity="1" fill-rule="nonzero"/></g></svg>