<svg width="20" height="23" viewBox="0 0 20 23" fill="none" xmlns="http://www.w3.org/2000/svg">
<path d="M10.0001 12C11.1047 12 12.0001 11.1046 12.0001 10C12.0001 8.89543 11.1047 8 10.0001 8C8.89552 8 8.00009 8.89543 8.00009 10C8.00009 11.1046 8.89552 12 10.0001 12ZM10.0001 12V15M18.9101 10.62C18.9101 15.51 15.3601 20.09 10.5101 21.43C10.1801 21.52 9.82008 21.52 9.49008 21.43C4.64008 20.09 1.09009 15.51 1.09009 10.62V6.22997C1.09009 5.40997 1.7101 4.47998 2.4801 4.16998L8.05008 1.89001C9.30008 1.38001 10.7101 1.38001 11.9601 1.89001L17.5301 4.16998C18.2901 4.47998 18.9201 5.40997 18.9201 6.22997L18.9101 10.62Z" stroke="white" stroke-width="1.5" stroke-miterlimit="10" stroke-linecap="round" stroke-linejoin="round"/>
</svg>
