<svg xmlns="http://www.w3.org/2000/svg" xmlns:xlink="http://www.w3.org/1999/xlink" width="1080" zoomAndPan="magnify" viewBox="0 0 810 809.999993" height="1080" preserveAspectRatio="xMidYMid meet" version="1.0"><defs><g/><clipPath id="fcbc0d885f"><path d="M 0 0 L 324 0 L 324 303.75 L 0 303.75 Z M 0 0 " clip-rule="nonzero"/></clipPath></defs><g clip-path="url(#fcbc0d885f)"><path fill="#ce1d21" d="M 145.277344 0.175781 L 139.496094 5.59375 L 5.542969 131.175781 L 0.125 136.257812 L 0.125 304.007812 L 5.542969 298.925781 L 258.230469 62.035156 L 250.105469 67.996094 L 234.136719 79.71875 L 249.90625 68.140625 L 249.851562 68.179688 L 209.675781 97.679688 L 5.542969 247.554688 L 125.832031 159.238281 L 245.058594 71.703125 L 250.011719 68.0625 L 254.472656 64.789062 L 257.894531 62.277344 L 258.246094 62.019531 L 318.429688 5.59375 L 324.210938 0.175781 Z M 145.277344 0.175781 " fill-opacity="1" fill-rule="nonzero"/></g><g fill="#ffffff" fill-opacity="1"><g transform="translate(92.246431, 168.346797)"><g><path d="M 13.125 -11.671875 C 11.613281 -10.222656 10.132812 -9.050781 8.6875 -8.15625 C 7.238281 -7.269531 5.59375 -6.363281 3.75 -5.4375 C 2.5625 -4.914062 1.738281 -4.460938 1.28125 -4.078125 L -5.96875 -12.328125 L -3.171875 -15.015625 L 3.03125 -10.03125 C 3.976562 -10.050781 5.179688 -10.414062 6.640625 -11.125 C 8.109375 -11.832031 9.515625 -12.832031 10.859375 -14.125 C 13.066406 -16.238281 14.269531 -18.34375 14.46875 -20.4375 C 14.664062 -22.53125 13.929688 -24.445312 12.265625 -26.1875 C 11.171875 -27.320312 9.921875 -28 8.515625 -28.21875 C 7.109375 -28.4375 5.601562 -28.34375 4 -27.9375 C 2.40625 -27.53125 0.332031 -26.851562 -2.21875 -25.90625 C -4.539062 -25.050781 -6.671875 -24.421875 -8.609375 -24.015625 C -10.546875 -23.617188 -12.566406 -23.628906 -14.671875 -24.046875 C -16.773438 -24.460938 -18.679688 -25.554688 -20.390625 -27.328125 C -21.921875 -28.929688 -22.863281 -30.773438 -23.21875 -32.859375 C -23.570312 -34.953125 -23.289062 -37.140625 -22.375 -39.421875 C -21.457031 -41.703125 -19.925781 -43.875 -17.78125 -45.9375 C -16.445312 -47.226562 -15.160156 -48.265625 -13.921875 -49.046875 C -12.691406 -49.828125 -11.253906 -50.675781 -9.609375 -51.59375 C -8.835938 -51.957031 -8.222656 -52.300781 -7.765625 -52.625 L -0.96875 -45.03125 L -3.625 -42.484375 L -9.671875 -47.015625 C -10.234375 -47.035156 -11.097656 -46.734375 -12.265625 -46.109375 C -13.429688 -45.484375 -14.554688 -44.65625 -15.640625 -43.625 C -17.640625 -41.695312 -18.753906 -39.816406 -18.984375 -37.984375 C -19.210938 -36.148438 -18.554688 -34.429688 -17.015625 -32.828125 C -15.898438 -31.660156 -14.648438 -30.988281 -13.265625 -30.8125 C -11.878906 -30.632812 -10.457031 -30.710938 -9 -31.046875 C -7.539062 -31.378906 -5.332031 -32.046875 -2.375 -33.046875 C 0.382812 -33.953125 2.707031 -34.613281 4.59375 -35.03125 C 6.488281 -35.457031 8.429688 -35.488281 10.421875 -35.125 C 12.410156 -34.769531 14.191406 -33.78125 15.765625 -32.15625 C 17.242188 -30.613281 18.238281 -28.71875 18.75 -26.46875 C 19.257812 -24.21875 19.070312 -21.789062 18.1875 -19.1875 C 17.3125 -16.582031 15.625 -14.078125 13.125 -11.671875 Z M 13.125 -11.671875 "/></g></g></g><g fill="#ffffff" fill-opacity="1"><g transform="translate(118.168444, 143.450296)"><g><path d="M -4.328125 -8.4375 C -6.960938 -11.175781 -7.53125 -14.503906 -6.03125 -18.421875 C -4.539062 -22.335938 -1.738281 -26.347656 2.375 -30.453125 L 1.1875 -31.6875 C -0.125 -33.050781 -1.300781 -33.988281 -2.34375 -34.5 C -3.394531 -35.007812 -4.453125 -35.101562 -5.515625 -34.78125 C -6.578125 -34.457031 -7.757812 -33.671875 -9.0625 -32.421875 C -10.550781 -30.992188 -11.675781 -29.5 -12.4375 -27.9375 C -13.207031 -26.375 -13.882812 -24.734375 -14.46875 -23.015625 L -17.734375 -24.25 C -17.660156 -24.925781 -17.367188 -26.015625 -16.859375 -27.515625 C -16.347656 -29.023438 -15.617188 -30.625 -14.671875 -32.3125 C -13.722656 -34 -12.578125 -35.488281 -11.234375 -36.78125 C -9.171875 -38.769531 -7.265625 -40.054688 -5.515625 -40.640625 C -3.765625 -41.234375 -2.023438 -41.15625 -0.296875 -40.40625 C 1.421875 -39.65625 3.285156 -38.234375 5.296875 -36.140625 L 18.75 -22.125 L 21.328125 -24.609375 L 23.1875 -22.6875 C 22.738281 -21.976562 22.140625 -21.125 21.390625 -20.125 C 20.648438 -19.132812 19.945312 -18.316406 19.28125 -17.671875 C 18.46875 -16.890625 17.789062 -16.476562 17.25 -16.4375 C 16.71875 -16.40625 16.050781 -16.8125 15.25 -17.65625 L 13.859375 -19.109375 C 13.828125 -17.398438 13.53125 -15.570312 12.96875 -13.625 C 12.40625 -11.675781 11.320312 -9.9375 9.71875 -8.40625 C 7.625 -6.382812 5.300781 -5.316406 2.75 -5.203125 C 0.207031 -5.085938 -2.148438 -6.164062 -4.328125 -8.4375 Z M 8.75 -13.171875 C 9.5 -13.898438 10.144531 -14.972656 10.6875 -16.390625 C 11.226562 -17.816406 11.597656 -19.234375 11.796875 -20.640625 L 4.59375 -28.140625 C 1.425781 -25.097656 -0.492188 -22.316406 -1.171875 -19.796875 C -1.859375 -17.273438 -1.441406 -15.222656 0.078125 -13.640625 C 1.578125 -12.066406 3.066406 -11.28125 4.546875 -11.28125 C 6.023438 -11.28125 7.425781 -11.910156 8.75 -13.171875 Z M 8.75 -13.171875 "/></g></g></g><g fill="#ffffff" fill-opacity="1"><g transform="translate(142.650354, 119.936925)"><g><path d="M -26.109375 -37.515625 L -30.125 -34.59375 L -31.921875 -36.453125 L -25.6875 -44.046875 L -25.59375 -44.140625 L -24.015625 -44.40625 L 7.296875 -11.796875 L 11.34375 -15.015625 L 13.40625 -12.875 L 1.609375 -1.546875 L -0.453125 -3.6875 L 2.71875 -7.484375 Z M -26.109375 -37.515625 "/></g></g></g><g fill="#ffffff" fill-opacity="1"><g transform="translate(157.18239, 105.979798)"><g><path d="M 13.171875 -11.71875 C 9.648438 -8.332031 5.859375 -6.898438 1.796875 -7.421875 C -2.253906 -7.953125 -6.128906 -10.144531 -9.828125 -14 C -12.253906 -16.53125 -13.910156 -19.210938 -14.796875 -22.046875 C -15.679688 -24.878906 -15.757812 -27.648438 -15.03125 -30.359375 C -14.300781 -33.078125 -12.832031 -35.492188 -10.625 -37.609375 C -7.914062 -40.210938 -5.09375 -41.488281 -2.15625 -41.4375 C 0.78125 -41.382812 3.632812 -39.992188 6.40625 -37.265625 C 8.101562 -35.492188 9.296875 -34.050781 9.984375 -32.9375 L -5.015625 -18.515625 C -2.191406 -15.679688 0.703125 -14 3.671875 -13.46875 C 6.640625 -12.9375 9.300781 -13.804688 11.65625 -16.078125 C 12.820312 -17.191406 13.835938 -18.566406 14.703125 -20.203125 C 15.566406 -21.835938 16.066406 -23.285156 16.203125 -24.546875 L 18.875 -23.40625 C 18.863281 -21.726562 18.335938 -19.769531 17.296875 -17.53125 C 16.265625 -15.300781 14.890625 -13.363281 13.171875 -11.71875 Z M 3.28125 -30.921875 C 2.78125 -31.617188 2.21875 -32.289062 1.59375 -32.9375 C -0.25 -34.789062 -2.078125 -35.894531 -3.890625 -36.25 C -5.703125 -36.601562 -7.441406 -35.984375 -9.109375 -34.390625 C -10.796875 -32.765625 -11.550781 -30.859375 -11.375 -28.671875 C -11.207031 -26.484375 -9.8125 -23.882812 -7.1875 -20.875 Z M 3.28125 -30.921875 "/></g></g></g></svg>