<svg xmlns="http://www.w3.org/2000/svg" xmlns:xlink="http://www.w3.org/1999/xlink" width="500" zoomAndPan="magnify" viewBox="0 0 375 374.999991" height="500" preserveAspectRatio="xMidYMid meet" version="1.2"><defs><clipPath id="470afd098d"><path d="M 230.582031 125.703125 L 232.058594 125.703125 L 232.058594 126.980469 L 230.582031 126.980469 Z M 230.582031 125.703125 "/></clipPath><clipPath id="f86b3a6eb1"><path d="M 232.050781 126.148438 C 231.375 127.199219 230.773438 126.976562 230.625 126.824219 C 230.550781 126.601562 230.625 126 230.851562 125.773438 C 231 125.625 231.824219 125.851562 231.824219 125.851562 "/></clipPath><clipPath id="f075765af9"><path d="M 31 52 L 368 52 L 368 232.542969 L 31 232.542969 Z M 31 52 "/></clipPath><clipPath id="6d8a4c0c41"><path d="M 31.050781 161.324219 C 36.675781 102 45.375 92.324219 53.25 82.351562 C 61.351562 72.226562 69.675781 58.351562 80.925781 54 C 92.324219 49.648438 110.851562 53.476562 121.425781 56.699219 C 129 58.949219 132.375 63.75 139.648438 67.125 C 149.625 71.851562 168 73.949219 176.398438 80.773438 C 183 86.101562 184.800781 99.300781 189.074219 101.101562 C 191.398438 102.074219 193.125 100.875 196.125 99.523438 C 202.949219 96.300781 219.226562 80.023438 226.875 76.425781 C 230.851562 74.625 234.226562 75.898438 236.699219 74.175781 C 239.023438 72.523438 238.199219 68.398438 241.425781 66.523438 C 249.226562 62.023438 291.523438 65.398438 293.773438 65.324219 C 293.925781 65.324219 294 65.324219 294.074219 65.324219 C 294.074219 65.324219 294.601562 65.324219 294.601562 65.324219 C 294.601562 65.324219 294.601562 65.324219 294.675781 65.324219 C 294.75 65.324219 297.601562 65.699219 299.101562 65.851562 C 300.601562 66 303.523438 66.375 303.601562 66.375 C 303.675781 66.375 306.449219 67.425781 307.875 68.023438 C 309.226562 68.550781 312 69.601562 312.074219 69.601562 C 312.148438 69.601562 314.550781 71.324219 315.75 72.148438 C 317.023438 73.050781 319.425781 74.699219 319.5 74.699219 C 319.574219 74.773438 321.523438 76.949219 322.5 78.074219 C 323.476562 79.273438 325.5 81.449219 325.5 81.523438 C 325.5 81.523438 326.925781 84.148438 327.601562 85.5 C 328.273438 86.851562 329.699219 89.476562 329.699219 89.476562 C 329.699219 89.550781 329.550781 90.824219 330.226562 91.574219 C 332.699219 94.351562 352.351562 94.875 358.425781 102.449219 C 366 111.75 370.273438 135.898438 365.625 148.5 C 361.199219 160.726562 343.800781 168.898438 332.550781 177.300781 C 322.125 185.101562 311.699219 190.726562 300.601562 197.625 C 288.601562 205.050781 275.773438 219.601562 263.175781 220.425781 C 251.101562 221.175781 231.898438 211.875 226.648438 204.226562 C 222.976562 198.976562 226.125 190.425781 225.601562 185.101562 C 225.226562 181.273438 224.175781 177.75 224.175781 175.273438 C 224.25 173.699219 224.851562 172.648438 224.925781 171.449219 C 225 170.476562 225.523438 169.125 224.773438 168.601562 C 222.074219 166.800781 196.199219 172.273438 189.226562 180.449219 C 182.175781 188.625 190.425781 209.25 182.925781 217.875 C 174.601562 227.550781 151.949219 233.476562 137.550781 232.351562 C 123.601562 231.300781 111.300781 218.398438 97.574219 212.550781 C 83.925781 206.699219 66.601562 205.949219 55.425781 197.25 C 44.476562 188.773438 31.050781 161.324219 31.050781 161.324219 M 278.625 209.476562 C 278.625 209.476562 278.699219 209.398438 278.699219 209.398438 C 278.699219 209.398438 278.625 209.476562 278.625 209.476562 M 288.898438 201.601562 C 290.699219 200.101562 290.625 199.425781 290.476562 199.425781 C 290.25 199.351562 288.898438 201.601562 288.898438 201.601562 "/></clipPath><clipPath id="bbdc4ec236"><path d="M 192.496094 52.773438 L 309.722656 52.773438 L 309.722656 164.503906 L 192.496094 164.503906 Z M 192.496094 52.773438 "/></clipPath><clipPath id="d0f950ca96"><path d="M 284.324219 125.851562 C 269.476562 130.648438 268.425781 129.523438 267.449219 130.199219 C 265.648438 131.476562 266.023438 138.300781 264.375 141.976562 C 262.800781 145.574219 260.476562 149.175781 257.773438 152.101562 C 255.074219 155.023438 251.699219 157.726562 248.25 159.601562 C 244.726562 161.550781 240.75 162.976562 236.773438 163.726562 C 232.875 164.398438 228.601562 164.476562 224.699219 163.875 C 220.726562 163.351562 216.675781 162 213.074219 160.199219 C 209.550781 158.398438 206.101562 155.925781 203.324219 153.074219 C 200.550781 150.226562 198.074219 146.699219 196.351562 143.101562 C 194.625 139.5 193.425781 135.449219 192.898438 131.476562 C 192.375 127.5 192.523438 123.300781 193.351562 119.398438 C 194.101562 115.425781 195.675781 111.449219 197.625 108 C 199.648438 104.550781 202.351562 101.25 205.351562 98.625 C 208.351562 96 211.949219 93.75 215.625 92.175781 C 219.300781 90.675781 223.425781 89.699219 227.398438 89.398438 C 231.449219 89.101562 235.648438 89.476562 239.550781 90.523438 C 243.375 91.5 247.273438 93.226562 250.648438 95.398438 C 253.949219 97.574219 257.101562 100.5 259.574219 103.574219 C 262.050781 106.726562 264.074219 110.476562 265.425781 114.226562 C 266.773438 117.976562 267.523438 122.175781 267.601562 126.148438 C 267.675781 130.125 267.074219 134.398438 265.800781 138.148438 C 264.601562 141.976562 262.726562 145.800781 260.324219 148.949219 C 258 152.175781 254.925781 155.175781 251.699219 157.5 C 248.398438 159.75 244.574219 161.625 240.75 162.75 C 236.925781 163.875 232.726562 164.398438 228.675781 164.25 C 224.699219 164.101562 220.574219 163.273438 216.824219 161.851562 C 213.074219 160.425781 209.398438 158.324219 206.324219 155.773438 C 203.25 153.226562 200.398438 150.074219 198.300781 146.699219 C 196.199219 143.324219 194.550781 139.351562 193.648438 135.449219 C 192.675781 131.625 192.675781 126.75 192.75 123.375 C 192.824219 120.976562 192.75 120 193.574219 117.226562 C 195.824219 110.324219 203.101562 92.699219 211.574219 83.25 C 220.5 73.273438 237.375 64.125 246.523438 59.550781 C 251.851562 56.925781 255.824219 56.101562 259.875 54.976562 C 263.101562 54.074219 265.726562 53.324219 268.726562 53.023438 C 271.726562 52.800781 274.800781 52.875 277.726562 53.324219 C 280.726562 53.773438 283.726562 54.601562 286.425781 55.726562 C 289.199219 56.925781 291.898438 58.425781 294.300781 60.226562 C 296.773438 61.949219 299.023438 64.125 300.898438 66.375 C 302.851562 68.699219 304.5 71.324219 305.851562 74.023438 C 307.125 76.648438 308.175781 79.648438 308.773438 82.574219 C 309.375 85.5 309.675781 88.574219 309.601562 91.574219 C 309.523438 94.5 309 97.574219 308.25 100.5 C 307.425781 103.351562 306.226562 106.199219 304.726562 108.824219 C 303.300781 111.449219 301.425781 113.925781 299.398438 116.101562 C 297.375 118.273438 294.976562 120.300781 292.425781 121.875 C 289.949219 123.523438 284.324219 125.851562 284.324219 125.851562 "/></clipPath><clipPath id="3ff136333b"><path d="M 107.589844 128.816406 L 322.726562 128.816406 L 322.726562 272.238281 L 107.589844 272.238281 Z M 107.589844 128.816406 "/></clipPath><clipPath id="39f6d72ed9"><path d="M 107.699219 244.425781 C 130.050781 186.148438 150.898438 179.925781 162.449219 179.175781 C 170.476562 178.648438 181.574219 185.476562 183.226562 184.875 C 183.523438 184.800781 183.601562 184.351562 183.601562 184.351562 C 183.601562 184.351562 186.898438 179.023438 190.726562 176.25 C 199.050781 170.324219 231.824219 155.851562 236.324219 157.125 C 237.375 157.425781 236.925781 158.851562 237.824219 159.148438 C 239.773438 159.675781 249.226562 154.574219 249.75 154.125 C 249.75 154.125 249.75 154.125 249.75 154.050781 C 249.824219 153.824219 249.976562 152.773438 250.273438 152.101562 C 250.648438 151.050781 251.699219 149.851562 252.375 148.648438 C 253.050781 147.449219 253.5 145.875 254.101562 144.976562 C 254.550781 144.300781 255.148438 144 255.523438 143.476562 C 255.976562 142.949219 256.125 142.351562 256.648438 141.75 C 257.324219 140.925781 258.75 140.101562 259.726562 139.199219 C 260.773438 138.226562 261.675781 136.949219 262.574219 136.273438 C 263.25 135.824219 263.851562 135.675781 264.375 135.300781 C 264.976562 134.925781 265.273438 134.398438 265.949219 134.023438 C 266.925781 133.5 268.5 133.125 269.773438 132.601562 C 270.976562 132 272.324219 131.023438 273.375 130.726562 C 274.125 130.5 274.726562 130.574219 275.398438 130.425781 C 276.074219 130.199219 276.523438 129.824219 277.273438 129.675781 C 278.398438 129.449219 280.050781 129.675781 281.324219 129.523438 C 282.675781 129.375 284.25 128.925781 285.375 128.925781 C 286.199219 128.925781 286.726562 129.226562 287.398438 129.226562 C 288.074219 129.300781 288.675781 129.074219 289.425781 129.148438 C 290.550781 129.300781 291.976562 129.976562 293.324219 130.273438 C 294.675781 130.648438 296.25 130.648438 297.300781 131.023438 C 298.050781 131.25 298.5 131.773438 299.101562 132 C 299.773438 132.226562 300.375 132.226562 301.050781 132.601562 C 302.101562 133.050781 303.226562 134.175781 304.425781 134.925781 C 305.550781 135.601562 307.574219 136.273438 307.949219 136.800781 C 308.101562 137.023438 307.875 137.175781 308.023438 137.398438 C 308.324219 137.925781 309.898438 138.449219 311.023438 139.5 C 313.050781 141.449219 316.425781 145.726562 318.226562 149.25 C 320.101562 152.773438 321.375 156.824219 321.976562 160.800781 C 322.574219 164.773438 322.5 168.976562 321.824219 172.949219 C 321.148438 176.851562 319.351562 181.5 317.773438 184.351562 C 316.726562 186.375 314.773438 187.050781 314.25 189 C 313.5 191.476562 316.949219 195.148438 315.375 198.523438 C 311.851562 205.949219 287.625 216.675781 276.226562 223.875 C 267.523438 229.273438 256.125 234.449219 252.898438 237.976562 C 251.625 239.324219 252.226562 240.601562 251.101562 241.425781 C 249.601562 242.699219 245.699219 242.550781 243.75 243.523438 C 242.25 244.199219 241.273438 245.25 240.074219 246.074219 C 238.800781 246.976562 236.398438 248.699219 236.398438 248.699219 C 236.324219 248.699219 233.550781 249.824219 232.125 250.351562 C 230.773438 250.875 228 252 227.925781 252 C 227.925781 252 224.925781 252.375 223.5 252.601562 C 222 252.75 219.074219 253.125 219 253.125 C 218.925781 253.125 217.875 252.824219 217.800781 253.050781 C 217.648438 253.273438 219.300781 254.25 219.074219 254.925781 C 218.023438 257.699219 193.351562 262.425781 179.851562 265.050781 C 165.824219 267.824219 148.574219 274.800781 136.273438 270.976562 C 124.726562 267.300781 107.699219 244.425781 107.699219 244.425781 M 307.949219 136.800781 C 307.949219 136.875 307.949219 136.800781 307.949219 136.800781 "/></clipPath><clipPath id="f71e215136"><path d="M 148.058594 160 L 285 160 L 285 307 L 148.058594 307 Z M 148.058594 160 "/></clipPath><clipPath id="54604b3887"><path d="M 275.25 222.601562 C 261.375 238.800781 251.476562 254.550781 242.699219 264.976562 C 234.148438 274.949219 223.125 286.199219 215.625 292.875 C 210.824219 297.074219 207.074219 300.226562 203.175781 302.398438 C 200.175781 304.050781 197.625 304.875 194.699219 305.625 C 191.773438 306.300781 188.699219 306.675781 185.699219 306.675781 C 182.773438 306.675781 179.699219 306.300781 176.773438 305.625 C 173.851562 304.875 170.925781 303.824219 168.300781 302.398438 C 165.675781 301.050781 163.125 299.25 160.875 297.300781 C 158.625 295.273438 156.523438 293.023438 154.875 290.550781 C 153.148438 288.074219 151.726562 285.300781 150.675781 282.523438 C 149.550781 279.75 148.875 276.75 148.5 273.75 C 148.125 270.75 148.125 267.675781 148.5 264.675781 C 148.800781 261.75 149.550781 258.75 150.601562 255.898438 C 151.648438 253.125 153.148438 250.351562 154.800781 247.949219 C 156.523438 245.476562 160.050781 240.75 160.800781 241.125 C 162.449219 242.023438 151.351562 279.226562 149.476562 279 C 148.5 278.925781 148.050781 270.898438 148.273438 266.925781 C 148.5 262.949219 149.476562 258.824219 150.976562 255.148438 C 152.476562 251.398438 154.648438 247.800781 157.273438 244.726562 C 159.898438 241.726562 163.125 239.023438 166.574219 236.925781 C 170.023438 234.898438 173.925781 233.398438 177.824219 232.5 C 181.726562 231.675781 186 231.523438 189.976562 231.976562 C 193.949219 232.425781 198 233.550781 201.675781 235.273438 C 205.273438 236.925781 208.800781 239.398438 211.648438 242.101562 C 214.5 244.875 217.050781 248.324219 218.925781 251.851562 C 220.800781 255.375 222.148438 259.425781 222.75 263.324219 C 223.351562 267.300781 223.351562 271.574219 222.675781 275.476562 C 222 279.449219 220.648438 283.425781 218.699219 286.949219 C 216.824219 290.476562 214.273438 293.851562 211.351562 296.550781 C 208.425781 299.324219 204.898438 301.648438 201.226562 303.300781 C 197.625 304.949219 193.5 306.074219 189.523438 306.523438 C 185.550781 306.898438 181.273438 306.675781 177.449219 305.773438 C 173.550781 304.875 169.574219 303.300781 166.199219 301.199219 C 162.75 299.101562 159.523438 296.324219 156.976562 293.324219 C 154.425781 290.25 152.25 286.574219 150.75 282.898438 C 149.324219 279.148438 148.425781 275.023438 148.273438 270.976562 C 148.050781 267 148.5 262.800781 149.625 258.976562 C 150.75 255.074219 152.550781 251.25 154.800781 247.949219 C 157.050781 244.648438 159.976562 241.574219 163.199219 239.175781 C 166.351562 236.773438 170.175781 234.824219 173.925781 233.625 C 177.75 232.351562 181.949219 231.675781 185.925781 231.675781 C 189.898438 231.75 194.101562 232.425781 197.925781 233.699219 C 201.675781 235.050781 205.425781 237.074219 208.574219 239.476562 C 211.726562 241.949219 215.398438 243.675781 216.898438 248.324219 C 219.898438 257.699219 215.25 289.574219 210.601562 297.226562 C 208.574219 300.523438 205.800781 300.976562 203.175781 302.398438 C 200.550781 303.75 197.625 304.875 194.699219 305.625 C 191.773438 306.300781 188.699219 306.675781 185.773438 306.675781 C 182.773438 306.675781 179.699219 306.300781 176.773438 305.625 C 173.851562 304.875 170.925781 303.824219 168.300781 302.398438 C 165.675781 301.050781 163.125 299.25 160.875 297.300781 C 158.625 295.273438 156.523438 293.023438 154.875 290.550781 C 153.148438 288.074219 151.726562 285.300781 150.675781 282.523438 C 149.550781 279.75 148.875 276.75 148.5 273.75 C 148.125 270.75 148.125 267.675781 148.5 264.75 C 148.800781 261.75 149.550781 258.75 150.601562 255.898438 C 151.648438 253.125 152.398438 251.25 154.800781 247.949219 C 160.199219 240.449219 176.625 226.574219 186.226562 215.25 C 195.523438 204.300781 205.351562 188.851562 211.5 181.351562 C 214.800781 177.375 216.75 175.125 219.375 172.574219 C 221.625 170.324219 223.648438 168.300781 226.125 166.648438 C 228.601562 164.925781 231.375 163.5 234.148438 162.449219 C 237 161.398438 240 160.726562 243 160.351562 C 245.925781 159.976562 249 160.050781 252 160.425781 C 255 160.800781 258 161.550781 260.773438 162.601562 C 263.550781 163.648438 266.324219 165.148438 268.726562 166.875 C 271.199219 168.523438 273.523438 170.625 275.476562 172.875 C 277.5 175.125 279.226562 177.675781 280.574219 180.375 C 282 183 283.050781 185.925781 283.726562 188.773438 C 284.476562 191.699219 284.851562 194.773438 284.773438 197.773438 C 284.773438 200.773438 284.398438 203.851562 283.648438 206.773438 C 282.898438 209.625 281.851562 212.550781 280.425781 215.175781 C 279 217.800781 275.25 222.601562 275.25 222.601562 "/></clipPath><clipPath id="b4917d566b"><path d="M 146.472656 166.8125 L 260 166.8125 L 260 303.332031 L 146.472656 303.332031 Z M 146.472656 166.8125 "/></clipPath><clipPath id="0d850d56c0"><path d="M 251.398438 228.300781 C 238.199219 245.398438 224.175781 273.824219 222.148438 273.449219 C 221.625 273.375 221.925781 270.824219 221.625 270.75 C 221.023438 270.75 219.824219 278.773438 218.023438 282.375 C 216.226562 285.976562 213.75 289.425781 210.898438 292.199219 C 208.125 295.050781 204.601562 297.523438 201.074219 299.25 C 197.476562 300.976562 193.425781 302.25 189.449219 302.773438 C 185.476562 303.300781 181.199219 303.148438 177.300781 302.398438 C 173.398438 301.648438 169.425781 300.148438 165.898438 298.199219 C 162.449219 296.175781 159.148438 293.550781 156.523438 290.550781 C 153.824219 287.550781 151.574219 283.949219 150 280.273438 C 148.425781 276.601562 147.449219 272.476562 147.148438 268.5 C 146.773438 264.523438 147.148438 260.324219 148.125 256.425781 C 149.101562 252.523438 150.824219 248.625 153 245.324219 C 155.101562 241.949219 157.949219 238.800781 161.101562 236.324219 C 164.25 233.773438 167.925781 231.75 171.675781 230.324219 C 175.425781 228.976562 179.625 228.226562 183.601562 228.074219 C 187.574219 228 191.851562 228.601562 195.601562 229.800781 C 199.425781 231 203.25 232.875 206.476562 235.199219 C 209.699219 237.523438 212.699219 240.601562 215.023438 243.824219 C 217.351562 247.050781 219.226562 250.875 220.351562 254.699219 C 221.550781 258.523438 222.074219 262.726562 222 266.773438 C 221.851562 270.75 221.023438 274.949219 219.675781 278.625 C 218.25 282.375 216.148438 286.125 213.675781 289.199219 C 211.125 292.273438 207.976562 295.125 204.601562 297.300781 C 201.226562 299.398438 197.324219 301.050781 193.425781 302.023438 C 189.523438 303 185.324219 303.300781 181.351562 303 C 177.375 302.625 173.25 301.574219 169.574219 300 C 165.898438 298.425781 162.300781 296.101562 159.375 293.398438 C 156.375 290.773438 153.75 287.398438 151.800781 283.949219 C 149.851562 280.425781 148.351562 276.449219 147.675781 272.550781 C 146.925781 268.574219 146.25 265.351562 147.375 260.398438 C 149.398438 251.324219 159 235.648438 165.449219 223.800781 C 171.824219 212.101562 180.601562 197.398438 186 189.75 C 188.925781 185.550781 191.023438 183.226562 193.574219 180.523438 C 195.75 178.199219 197.699219 176.101562 200.101562 174.300781 C 202.5 172.5 205.199219 171 207.976562 169.800781 C 210.75 168.675781 213.75 167.851562 216.675781 167.324219 C 219.601562 166.875 222.75 166.800781 225.675781 167.023438 C 228.675781 167.324219 231.75 167.925781 234.523438 168.898438 C 237.375 169.875 240.148438 171.226562 242.699219 172.800781 C 245.25 174.449219 247.648438 176.398438 249.675781 178.574219 C 251.773438 180.75 253.574219 183.226562 255.074219 185.851562 C 256.574219 188.398438 257.773438 191.25 258.601562 194.175781 C 259.425781 197.023438 259.875 200.101562 259.949219 203.101562 C 260.101562 206.101562 259.800781 209.175781 259.199219 212.101562 C 258.601562 215.023438 257.625 217.949219 256.273438 220.648438 C 255 223.351562 251.398438 228.300781 251.398438 228.300781 "/></clipPath><clipPath id="701fe8ec47"><path d="M 71.113281 150 L 201.511719 150 L 201.511719 283.355469 L 71.113281 283.355469 Z M 71.113281 150 "/></clipPath><clipPath id="93d8a7e794"><path d="M 134.101562 268.648438 C 118.949219 250.648438 101.699219 239.925781 92.625 228.675781 C 83.773438 217.726562 74.175781 201.074219 72.074219 191.851562 C 70.875 186.976562 71.773438 183.675781 72.601562 179.773438 C 73.5 175.875 75 171.898438 77.023438 168.449219 C 79.125 165 81.824219 161.773438 84.824219 159.148438 C 87.898438 156.601562 91.5 154.351562 95.175781 152.851562 C 98.925781 151.351562 103.050781 150.375 107.023438 150.148438 C 111 149.925781 115.273438 150.375 119.101562 151.425781 C 123 152.476562 126.824219 154.199219 130.125 156.449219 C 133.5 158.625 136.574219 161.550781 139.050781 164.699219 C 141.449219 167.925781 143.476562 171.675781 144.75 175.425781 C 146.023438 179.175781 146.773438 183.375 146.773438 187.351562 C 146.851562 191.398438 146.175781 195.601562 144.898438 199.351562 C 143.625 203.175781 141.675781 206.925781 139.273438 210.148438 C 136.875 213.300781 133.800781 216.226562 130.5 218.476562 C 127.273438 220.800781 123.375 222.601562 119.550781 223.648438 C 115.726562 224.773438 111.449219 225.226562 107.476562 225.074219 C 103.5 224.851562 99.375 223.949219 95.625 222.523438 C 91.875 221.101562 88.273438 218.925781 85.199219 216.300781 C 82.125 213.75 79.351562 210.523438 77.25 207.148438 C 75.226562 203.699219 73.574219 199.800781 72.75 195.898438 C 71.851562 192 71.625 187.726562 72 183.75 C 72.375 179.773438 73.5 175.648438 75.148438 172.050781 C 76.800781 168.449219 79.199219 164.851562 81.898438 162 C 84.675781 159.074219 88.050781 156.449219 91.574219 154.574219 C 95.023438 152.699219 99.074219 151.273438 103.050781 150.601562 C 106.949219 149.925781 111.226562 149.925781 115.125 150.523438 C 119.101562 151.199219 123.148438 152.550781 126.675781 154.351562 C 130.199219 156.226562 133.648438 158.773438 136.351562 161.625 C 139.125 164.550781 141.523438 168.074219 143.25 171.675781 C 144.976562 175.273438 144.074219 181.050781 146.550781 183.300781 C 149.023438 185.550781 153.601562 183.226562 157.800781 185.398438 C 165.449219 189.375 178.949219 205.199219 185.25 212.25 C 188.925781 216.300781 191.101562 219.300781 193.273438 222.601562 C 195.148438 225.300781 196.726562 227.625 197.925781 230.324219 C 199.199219 233.101562 200.101562 236.023438 200.625 238.949219 C 201.148438 241.949219 201.300781 245.023438 201.148438 248.023438 C 200.925781 250.949219 200.324219 254.023438 199.425781 256.875 C 198.523438 259.726562 197.25 262.574219 195.75 265.125 C 194.175781 267.675781 192.226562 270.074219 190.125 272.175781 C 188.023438 274.351562 185.550781 276.226562 183 277.726562 C 180.449219 279.300781 177.601562 280.574219 174.75 281.476562 C 171.898438 282.300781 168.824219 282.898438 165.824219 283.050781 C 162.824219 283.199219 159.75 282.976562 156.824219 282.449219 C 153.898438 281.925781 150.898438 280.949219 148.199219 279.75 C 145.5 278.476562 142.800781 276.898438 140.476562 275.023438 C 138.148438 273.148438 134.101562 268.648438 134.101562 268.648438 "/></clipPath><clipPath id="7c12f5849d"><path d="M 99 100 L 294.800781 100 L 294.800781 253 L 99 253 Z M 99 100 "/></clipPath><clipPath id="1cd19030a9"><path d="M 99.226562 160.726562 C 99.449219 155.324219 99.074219 153.75 99.226562 152.625 C 99.300781 151.875 99.675781 151.351562 99.75 150.675781 C 99.898438 150 99.75 149.398438 99.898438 148.648438 C 100.125 147.523438 100.949219 146.101562 101.398438 144.824219 C 101.851562 143.550781 102.074219 141.976562 102.523438 140.925781 C 102.824219 140.25 103.351562 139.875 103.648438 139.273438 C 104.023438 138.675781 104.023438 138 104.398438 137.398438 C 105 136.425781 106.273438 135.375 107.101562 134.25 C 107.925781 133.199219 108.601562 131.699219 109.351562 130.949219 C 109.875 130.351562 110.476562 130.125 111 129.675781 C 111.449219 129.226562 111.75 128.625 112.351562 128.175781 C 113.175781 127.425781 114.675781 126.824219 115.800781 126.074219 C 116.925781 125.324219 118.050781 124.125 119.023438 123.601562 C 119.773438 123.226562 120.375 123.226562 120.976562 123 C 121.574219 122.699219 122.023438 122.175781 122.699219 121.949219 C 123.75 121.5 125.398438 121.425781 126.675781 121.050781 C 128.023438 120.675781 129.449219 119.925781 130.574219 119.773438 C 131.324219 119.625 131.925781 119.851562 132.601562 119.773438 C 133.273438 119.699219 133.800781 119.398438 134.625 119.324219 C 135.675781 119.324219 137.25 119.699219 138.601562 119.773438 C 139.949219 119.851562 141.601562 119.625 142.726562 119.851562 C 143.476562 119.925781 144 120.300781 144.601562 120.449219 C 145.273438 120.601562 145.875 120.449219 146.625 120.675781 C 147.75 120.976562 149.101562 121.949219 150.300781 122.398438 C 151.574219 122.925781 153.226562 123.226562 154.199219 123.75 C 154.875 124.125 155.25 124.648438 155.773438 124.949219 C 156.375 125.324219 156.976562 125.398438 157.648438 125.851562 C 158.550781 126.449219 159.523438 127.726562 160.574219 128.625 C 161.625 129.523438 163.800781 131.101562 163.800781 131.101562 C 163.800781 131.023438 166.125 131.550781 168.074219 131.324219 C 172.949219 130.875 184.125 127.875 192.976562 124.726562 C 203.773438 120.898438 215.324219 112.875 227.625 109.050781 C 240.523438 105.074219 258 96.675781 268.875 101.699219 C 280.949219 107.25 295.425781 132.375 294.601562 145.800781 C 293.925781 157.949219 272.324219 172.273438 269.625 179.101562 C 268.574219 181.648438 269.398438 182.851562 268.949219 184.949219 C 268.273438 187.574219 267.074219 190.800781 265.726562 193.425781 C 264.300781 196.050781 260.550781 200.851562 260.550781 200.851562 C 260.550781 200.851562 253.5 209.699219 248.175781 214.875 C 240.074219 222.75 227.550781 235.648438 215.699219 241.949219 C 204.300781 248.023438 191.023438 252.523438 178.648438 252.601562 C 166.199219 252.675781 150.523438 249.523438 141.148438 242.175781 C 131.851562 234.898438 124.574219 218.023438 122.476562 209.101562 C 121.125 203.699219 123.976562 196.574219 123.074219 195.226562 C 122.773438 194.851562 122.476562 195.148438 122.023438 194.851562 C 120.074219 193.726562 111.675781 185.398438 109.199219 182.476562 C 108 181.125 107.773438 180.226562 106.949219 179.101562 C 106.125 178.050781 104.851562 177 104.324219 176.023438 C 103.875 175.351562 103.875 174.75 103.574219 174.148438 C 103.273438 173.550781 102.75 173.175781 102.449219 172.425781 C 101.925781 171.449219 101.773438 169.800781 101.324219 168.523438 C 100.949219 167.25 100.050781 165.824219 99.824219 164.773438 C 99.675781 163.949219 99.824219 163.351562 99.75 162.675781 C 99.675781 162 99.226562 160.726562 99.226562 160.726562 "/></clipPath><clipPath id="273dd21e7a"><path d="M 148.1875 65.3125 L 310.136719 65.3125 L 310.136719 231.835938 L 148.1875 231.835938 Z M 148.1875 65.3125 "/></clipPath><clipPath id="8ca9a4e61f"><path d="M 307.5 116.550781 C 279.898438 176.398438 270.074219 184.574219 259.5 192.226562 C 248.625 200.175781 234.976562 205.050781 223.050781 211.574219 C 211.5 217.949219 197.773438 229.050781 189.074219 231 C 184.199219 232.050781 180.824219 230.925781 177 229.949219 C 173.101562 228.976562 169.199219 227.324219 165.824219 225.148438 C 162.523438 222.976562 159.300781 220.125 156.824219 217.050781 C 154.351562 213.898438 152.25 210.226562 150.898438 206.476562 C 149.476562 202.726562 148.726562 198.523438 148.574219 194.550781 C 148.5 190.574219 149.101562 186.375 150.300781 182.550781 C 151.425781 178.726562 153.375 174.898438 155.699219 171.675781 C 158.023438 168.449219 161.023438 165.449219 164.25 163.125 C 167.550781 160.800781 171.375 158.925781 175.125 157.726562 C 178.949219 156.601562 183.226562 156 187.199219 156.148438 C 191.175781 156.226562 195.375 157.050781 199.125 158.398438 C 202.875 159.824219 206.550781 161.925781 209.625 164.398438 C 212.773438 166.949219 215.625 170.101562 217.726562 173.476562 C 219.898438 176.851562 221.550781 180.75 222.523438 184.648438 C 223.5 188.476562 223.800781 192.75 223.5 196.726562 C 223.125 200.699219 222.074219 204.824219 220.5 208.5 C 218.925781 212.175781 216.675781 215.699219 213.976562 218.699219 C 211.273438 221.625 207.976562 224.324219 204.523438 226.273438 C 201 228.226562 197.023438 229.726562 193.125 230.476562 C 189.148438 231.148438 184.949219 231.300781 180.976562 230.773438 C 177 230.175781 172.949219 228.976562 169.351562 227.175781 C 165.824219 225.375 162.375 222.898438 159.523438 220.050781 C 156.75 217.273438 154.273438 213.75 152.476562 210.226562 C 150.675781 206.625 149.476562 202.574219 148.949219 198.601562 C 148.425781 194.625 148.5 190.351562 149.25 186.449219 C 150.074219 182.550781 151.5 178.574219 153.523438 175.050781 C 155.476562 171.601562 158.101562 168.300781 161.101562 165.675781 C 164.101562 162.976562 167.699219 160.726562 171.375 159.148438 C 175.050781 157.574219 183.148438 156.75 183.148438 156.226562 C 183.074219 155.773438 174.375 157.273438 174 156 C 173.175781 153.375 195.523438 141.75 205.199219 132.976562 C 215.175781 123.976562 227.550781 110.851562 232.648438 102.449219 C 235.574219 97.648438 235.800781 93.523438 237.449219 89.851562 C 238.800781 86.773438 240 84.300781 241.648438 81.824219 C 243.375 79.351562 245.476562 77.023438 247.726562 75.074219 C 249.976562 73.125 252.523438 71.324219 255.148438 69.976562 C 257.773438 68.550781 260.699219 67.5 263.625 66.75 C 266.550781 66.074219 269.625 65.699219 272.550781 65.699219 C 275.550781 65.699219 278.625 66.074219 281.550781 66.824219 C 284.476562 67.5 287.324219 68.625 290.023438 70.050781 C 292.648438 71.398438 295.199219 73.199219 297.449219 75.226562 C 299.699219 77.175781 301.726562 79.5 303.375 81.976562 C 305.101562 84.449219 306.523438 87.148438 307.574219 90 C 308.625 92.773438 309.375 95.773438 309.75 98.773438 C 310.125 101.699219 310.050781 104.851562 309.75 107.773438 C 309.375 110.773438 307.5 116.550781 307.5 116.550781 "/></clipPath><clipPath id="0d74e87eb2"><path d="M 85 69.398438 L 328.753906 69.398438 L 328.753906 219.726562 L 85 219.726562 Z M 85 69.398438 "/></clipPath><clipPath id="ccd477f41a"><path d="M 85.050781 172.949219 C 89.25 157.425781 91.425781 153.824219 94.050781 150.75 C 96.675781 147.75 101.101562 144.300781 103.351562 142.949219 C 104.324219 142.351562 105.148438 142.351562 105.824219 141.976562 C 106.273438 141.75 106.425781 141.375 106.949219 141.074219 C 107.773438 140.625 109.574219 140.476562 110.851562 140.023438 C 112.125 139.574219 113.550781 138.75 114.601562 138.523438 C 115.351562 138.375 116.023438 138.523438 116.625 138.449219 C 117.300781 138.300781 117.824219 138 118.648438 137.925781 C 119.699219 137.773438 121.351562 138.148438 122.699219 138.148438 C 124.050781 138.148438 125.625 137.851562 126.75 137.925781 C 127.5 138 128.023438 138.375 128.699219 138.523438 C 129.375 138.601562 129.976562 138.449219 130.726562 138.601562 C 131.851562 138.824219 133.199219 139.726562 134.476562 140.175781 C 135.75 140.550781 137.398438 140.773438 138.449219 141.226562 C 139.125 141.601562 139.726562 142.199219 140.101562 142.425781 C 140.25 142.5 140.25 142.5 140.476562 142.574219 C 142.800781 142.949219 166.425781 144.824219 178.050781 141.675781 C 189.449219 138.601562 206.476562 127.726562 209.625 124.050781 C 210.523438 123 210.675781 121.5 210.601562 121.5 C 210.601562 121.5 213.226562 115.574219 215.925781 111.601562 C 220.949219 104.324219 230.699219 89.773438 240.898438 82.800781 C 251.324219 75.75 265.351562 69.976562 278.023438 69.976562 C 291.300781 69.976562 310.574219 75 318.824219 84.226562 C 326.773438 93 330.226562 110.925781 327.976562 122.925781 C 325.726562 135.074219 314.625 148.050781 304.726562 156.75 C 294.976562 165.375 280.5 168.300781 269.101562 175.125 C 257.851562 181.726562 248.175781 190.648438 236.851562 196.949219 C 225.375 203.324219 213.148438 209.476562 200.699219 213.148438 C 188.324219 216.75 175.273438 218.324219 162.523438 219.074219 C 149.773438 219.824219 136.5 220.351562 124.050781 217.5 C 111.449219 214.574219 90.824219 207.824219 87.523438 201.675781 C 85.875 198.523438 89.699219 194.550781 89.324219 191.625 C 89.023438 189.148438 87 187.648438 86.324219 185.023438 C 85.425781 181.726562 85.050781 172.949219 85.050781 172.949219 "/></clipPath></defs><g id="887346af2a"><path style="fill:none;stroke-width:2;stroke-linecap:butt;stroke-linejoin:round;stroke:#ffffff;stroke-opacity:1;stroke-miterlimit:4;" d="M 2.806267 2.70636 C 3.706445 1.806573 4.927232 1.301015 6.200041 1.301015 C 7.472849 1.301015 8.693407 1.806573 9.593585 2.70636 L 11 4.111706 L 12.406414 2.70636 C 12.84917 2.247991 13.378781 1.882166 13.96431 1.630647 C 14.550067 1.379128 15.179826 1.246725 15.817147 1.241227 C 16.454697 1.23573 17.086517 1.357137 17.676629 1.598348 C 18.266512 1.839788 18.802311 2.196221 19.253088 2.646802 C 19.703864 3.097612 20.060223 3.633407 20.301539 4.223492 C 20.542855 4.813348 20.664315 5.445353 20.658814 6.082626 C 20.653314 6.720128 20.520854 7.349842 20.269226 7.935575 C 20.017598 8.521078 19.652072 9.050918 19.193503 9.49371 L 11 17.688467 L 2.806267 9.49371 C 1.906547 8.593464 1.400998 7.372749 1.400998 6.100035 C 1.400998 4.827321 1.906547 3.606606 2.806267 2.70636 Z M 2.806267 2.70636 " transform="matrix(17.04523,0,0,17.052633,0.00247161,25.568179)"/><g clip-rule="nonzero" clip-path="url(#470afd098d)"><g clip-rule="nonzero" clip-path="url(#f86b3a6eb1)"><path style=" stroke:none;fill-rule:nonzero;fill:#ffffff;fill-opacity:1;" d="M 227.625 122.773438 L 235.042969 122.773438 L 235.042969 130.050781 L 227.625 130.050781 Z M 227.625 122.773438 "/></g></g><g clip-rule="nonzero" clip-path="url(#f075765af9)"><g clip-rule="nonzero" clip-path="url(#6d8a4c0c41)"><path style=" stroke:none;fill-rule:nonzero;fill:#ffffff;fill-opacity:1;" d="M 28.050781 51 L 368.804688 51 L 368.804688 235.425781 L 28.050781 235.425781 Z M 28.050781 51 "/></g></g><g clip-rule="nonzero" clip-path="url(#bbdc4ec236)"><g clip-rule="nonzero" clip-path="url(#d0f950ca96)"><path style=" stroke:none;fill-rule:nonzero;fill:#ffffff;fill-opacity:1;" d="M 189.75 50.023438 L 312.46875 50.023438 L 312.46875 167.25 L 189.75 167.25 Z M 189.75 50.023438 "/></g></g><g clip-rule="nonzero" clip-path="url(#3ff136333b)"><g clip-rule="nonzero" clip-path="url(#39f6d72ed9)"><path style=" stroke:none;fill-rule:nonzero;fill:#ffffff;fill-opacity:1;" d="M 104.699219 125.925781 L 325.039062 125.925781 L 325.039062 273.976562 L 104.699219 273.976562 Z M 104.699219 125.925781 "/></g></g><g clip-rule="nonzero" clip-path="url(#f71e215136)"><g clip-rule="nonzero" clip-path="url(#54604b3887)"><path style=" stroke:none;fill-rule:nonzero;fill:#ffffff;fill-opacity:1;" d="M 145.273438 157.351562 L 287.851562 157.351562 L 287.851562 309.949219 L 145.273438 309.949219 Z M 145.273438 157.351562 "/></g></g><g clip-rule="nonzero" clip-path="url(#b4917d566b)"><g clip-rule="nonzero" clip-path="url(#0d850d56c0)"><path style=" stroke:none;fill-rule:nonzero;fill:#ffffff;fill-opacity:1;" d="M 144.148438 164.023438 L 263.023438 164.023438 L 263.023438 306.117188 L 144.148438 306.117188 Z M 144.148438 164.023438 "/></g></g><g clip-rule="nonzero" clip-path="url(#701fe8ec47)"><g clip-rule="nonzero" clip-path="url(#93d8a7e794)"><path style=" stroke:none;fill-rule:nonzero;fill:#ffffff;fill-opacity:1;" d="M 69 147.148438 L 204.148438 147.148438 L 204.148438 285.996094 L 69 285.996094 Z M 69 147.148438 "/></g></g><g clip-rule="nonzero" clip-path="url(#7c12f5849d)"><g clip-rule="nonzero" clip-path="url(#1cd19030a9)"><path style=" stroke:none;fill-rule:nonzero;fill:#ffffff;fill-opacity:1;" d="M 96.226562 98.699219 L 297.867188 98.699219 L 297.867188 255.601562 L 96.226562 255.601562 Z M 96.226562 98.699219 "/></g></g><g clip-rule="nonzero" clip-path="url(#273dd21e7a)"><g clip-rule="nonzero" clip-path="url(#8ca9a4e61f)"><path style=" stroke:none;fill-rule:nonzero;fill:#ffffff;fill-opacity:1;" d="M 145.574219 62.699219 L 312.75 62.699219 L 312.75 233.792969 L 145.574219 233.792969 Z M 145.574219 62.699219 "/></g></g><g clip-rule="nonzero" clip-path="url(#0d74e87eb2)"><g clip-rule="nonzero" clip-path="url(#ccd477f41a)"><path style=" stroke:none;fill-rule:nonzero;fill:#ffffff;fill-opacity:1;" d="M 82.050781 66.976562 L 331.179688 66.976562 L 331.179688 222.148438 L 82.050781 222.148438 Z M 82.050781 66.976562 "/></g></g></g></svg>