<svg width="22" height="19" viewBox="0 0 22 19" fill="none" xmlns="http://www.w3.org/2000/svg">
<path fill-rule="evenodd" clip-rule="evenodd" d="M2.80638 2.7064C3.70651 1.80654 4.92719 1.30102 6.19998 1.30102C7.47276 1.30102 8.69344 1.80654 9.59357 2.7064L11 4.1116L12.4064 2.7064C12.8492 2.24795 13.3788 1.88228 13.9644 1.63071C14.5501 1.37915 15.1799 1.24674 15.8172 1.2412C16.4546 1.23566 17.0866 1.35711 17.6766 1.59846C18.2665 1.8398 18.8024 2.19622 19.2531 2.6469C19.7038 3.09759 20.0602 3.63352 20.3015 4.22342C20.5429 4.81332 20.6643 5.44538 20.6588 6.08273C20.6532 6.72007 20.5208 7.34992 20.2693 7.93554C20.0177 8.52116 19.652 9.05081 19.1936 9.4936L11 17.6884L2.80638 9.4936C1.90651 8.59347 1.401 7.37279 1.401 6.1C1.401 4.82721 1.90651 3.60653 2.80638 2.7064V2.7064Z" stroke="white" stroke-width="2" stroke-linejoin="round"/>
</svg>
