<svg xmlns="http://www.w3.org/2000/svg" xmlns:xlink="http://www.w3.org/1999/xlink" width="500" zoomAndPan="magnify" viewBox="0 0 375 374.999991" height="500" preserveAspectRatio="xMidYMid meet" version="1.0"><path fill="#18181a" d="M 256.589844 296.792969 L 118.410156 296.792969 C 115.992188 296.792969 114.015625 294.816406 114.015625 292.398438 L 114.015625 82.601562 C 114.015625 80.183594 115.992188 78.207031 118.410156 78.207031 L 256.589844 78.207031 C 259.007812 78.207031 260.984375 80.183594 260.984375 82.601562 L 260.984375 292.398438 C 260.984375 294.816406 259.007812 296.792969 256.589844 296.792969 Z M 122.804688 288.003906 L 252.195312 288.003906 L 252.195312 86.996094 L 122.804688 86.996094 Z M 122.804688 288.003906 " fill-opacity="1" fill-rule="evenodd"/><path fill="#18181a" d="M 262.742188 86.996094 L 112.039062 86.996094 C 101.273438 86.996094 92.488281 78.207031 92.488281 67.441406 C 92.488281 56.457031 101.273438 47.671875 112.039062 47.671875 L 262.742188 47.671875 C 273.507812 47.671875 282.292969 56.457031 282.292969 67.441406 C 282.292969 78.207031 273.507812 86.996094 262.742188 86.996094 Z M 112.039062 56.457031 C 106.105469 56.457031 101.273438 61.292969 101.273438 67.441406 C 101.273438 73.375 106.105469 78.207031 112.039062 78.207031 L 262.742188 78.207031 C 268.671875 78.207031 273.507812 73.375 273.507812 67.441406 C 273.507812 61.292969 268.671875 56.457031 262.742188 56.457031 Z M 112.039062 56.457031 " fill-opacity="1" fill-rule="evenodd"/><path fill="#18181a" d="M 270.648438 56.457031 L 104.351562 56.457031 C 88.753906 56.457031 76.011719 43.9375 76.011719 28.339844 L 76.011719 4.394531 C 76.011719 1.976562 77.988281 0 80.402344 0 L 294.597656 0 C 297.011719 0 298.988281 1.976562 298.988281 4.394531 L 298.988281 28.339844 C 298.988281 43.9375 286.246094 56.457031 270.648438 56.457031 Z M 84.796875 8.789062 L 84.796875 28.339844 C 84.796875 39.105469 93.585938 47.671875 104.351562 47.671875 L 270.648438 47.671875 C 281.414062 47.671875 290.203125 39.105469 290.203125 28.339844 L 290.203125 8.789062 Z M 84.796875 8.789062 " fill-opacity="1" fill-rule="evenodd"/><path fill="#18181a" d="M 262.742188 327.109375 L 112.039062 327.109375 C 101.273438 327.109375 92.488281 318.320312 92.488281 307.558594 C 92.488281 296.792969 101.273438 288.003906 112.039062 288.003906 L 262.742188 288.003906 C 273.507812 288.003906 282.292969 296.792969 282.292969 307.558594 C 282.292969 318.320312 273.507812 327.109375 262.742188 327.109375 Z M 112.039062 296.792969 C 106.105469 296.792969 101.273438 301.625 101.273438 307.558594 C 101.273438 313.488281 106.105469 318.320312 112.039062 318.320312 L 262.742188 318.320312 C 268.671875 318.320312 273.507812 313.488281 273.507812 307.558594 C 273.507812 301.625 268.671875 296.792969 262.742188 296.792969 Z M 112.039062 296.792969 " fill-opacity="1" fill-rule="evenodd"/><path fill="#18181a" d="M 294.597656 375 L 80.402344 375 C 77.988281 375 76.011719 373.023438 76.011719 370.605469 L 76.011719 346.660156 C 76.011719 331.0625 88.753906 318.320312 104.351562 318.320312 L 270.648438 318.320312 C 286.246094 318.320312 298.988281 331.0625 298.988281 346.660156 L 298.988281 370.605469 C 298.988281 373.023438 297.011719 375 294.597656 375 Z M 84.796875 366.210938 L 290.203125 366.210938 L 290.203125 346.660156 C 290.203125 335.894531 281.414062 327.109375 270.648438 327.109375 L 104.351562 327.109375 C 93.585938 327.109375 84.796875 335.894531 84.796875 346.660156 Z M 84.796875 366.210938 " fill-opacity="1" fill-rule="evenodd"/><path fill="#18181a" d="M 151.582031 264.9375 C 149.164062 264.9375 147.1875 262.960938 147.1875 260.542969 L 147.1875 114.457031 C 147.1875 112.039062 149.164062 110.0625 151.582031 110.0625 C 154 110.0625 155.976562 112.039062 155.976562 114.457031 L 155.976562 260.542969 C 155.976562 262.960938 154 264.9375 151.582031 264.9375 Z M 151.582031 264.9375 " fill-opacity="1" fill-rule="evenodd"/><path fill="#18181a" d="M 187.390625 264.9375 C 184.972656 264.9375 182.996094 262.960938 182.996094 260.542969 L 182.996094 114.457031 C 182.996094 112.039062 184.972656 110.0625 187.390625 110.0625 C 189.808594 110.0625 191.785156 112.039062 191.785156 114.457031 L 191.785156 260.542969 C 191.785156 262.960938 189.808594 264.9375 187.390625 264.9375 Z M 187.390625 264.9375 " fill-opacity="1" fill-rule="evenodd"/><path fill="#18181a" d="M 223.417969 264.9375 C 221 264.9375 219.023438 262.960938 219.023438 260.542969 L 219.023438 114.457031 C 219.023438 112.039062 221 110.0625 223.417969 110.0625 C 225.835938 110.0625 227.8125 112.039062 227.8125 114.457031 L 227.8125 260.542969 C 227.8125 262.960938 225.835938 264.9375 223.417969 264.9375 Z M 223.417969 264.9375 " fill-opacity="1" fill-rule="evenodd"/></svg>