<svg xmlns="http://www.w3.org/2000/svg" xmlns:xlink="http://www.w3.org/1999/xlink" width="6912" zoomAndPan="magnify" viewBox="0 0 5184 2592.000001" height="3456" preserveAspectRatio="xMidYMid meet" version="1.0"><defs><g/><clipPath id="0e6cee2063"><path d="M 232.460938 594.183594 L 854.300781 594.183594 L 854.300781 753 L 232.460938 753 Z M 232.460938 594.183594 " clip-rule="nonzero"/></clipPath><clipPath id="11aef3dc54"><path d="M 232.460938 1487 L 854.300781 1487 L 854.300781 1643.539062 L 232.460938 1643.539062 Z M 232.460938 1487 " clip-rule="nonzero"/></clipPath><clipPath id="6c0b826a1e"><path d="M 1 1647.03125 L 2488 1647.03125 L 2488 1948 L 1 1948 Z M 1 1647.03125 " clip-rule="nonzero"/></clipPath><clipPath id="b7bc53a84e"><path d="M 2696 1647.03125 L 5183 1647.03125 L 5183 1948 L 2696 1948 Z M 2696 1647.03125 " clip-rule="nonzero"/></clipPath></defs><path fill="#18181a" d="M 739.578125 1427.417969 L 351.640625 1427.417969 C 344.855469 1427.417969 339.304688 1421.867188 339.304688 1415.082031 L 339.304688 826.082031 C 339.304688 819.296875 344.855469 813.746094 351.640625 813.746094 L 739.578125 813.746094 C 746.363281 813.746094 751.914062 819.296875 751.914062 826.082031 L 751.914062 1415.082031 C 751.914062 1421.867188 746.363281 1427.417969 739.578125 1427.417969 Z M 363.976562 1402.746094 L 727.242188 1402.746094 L 727.242188 838.417969 L 363.976562 838.417969 Z M 363.976562 1402.746094 " fill-opacity="1" fill-rule="evenodd"/><path fill="#18181a" d="M 756.847656 838.417969 L 333.753906 838.417969 C 303.535156 838.417969 278.863281 813.746094 278.863281 783.527344 C 278.863281 752.691406 303.535156 728.019531 333.753906 728.019531 L 756.847656 728.019531 C 787.066406 728.019531 811.738281 752.691406 811.738281 783.527344 C 811.738281 813.746094 787.066406 838.417969 756.847656 838.417969 Z M 333.753906 752.691406 C 317.101562 752.691406 303.535156 766.257812 303.535156 783.527344 C 303.535156 800.179688 317.101562 813.746094 333.753906 813.746094 L 756.847656 813.746094 C 773.5 813.746094 787.066406 800.179688 787.066406 783.527344 C 787.066406 766.257812 773.5 752.691406 756.847656 752.691406 Z M 333.753906 752.691406 " fill-opacity="1" fill-rule="evenodd"/><g clip-path="url(#0e6cee2063)"><path fill="#18181a" d="M 779.050781 752.691406 L 312.167969 752.691406 C 268.378906 752.691406 232.605469 717.535156 232.605469 673.746094 L 232.605469 606.519531 C 232.605469 599.734375 238.15625 594.183594 244.941406 594.183594 L 846.277344 594.183594 C 853.058594 594.183594 858.609375 599.734375 858.609375 606.519531 L 858.609375 673.746094 C 858.609375 717.535156 822.839844 752.691406 779.050781 752.691406 Z M 257.277344 618.855469 L 257.277344 673.746094 C 257.277344 703.964844 281.945312 728.019531 312.167969 728.019531 L 779.050781 728.019531 C 809.269531 728.019531 833.941406 703.964844 833.941406 673.746094 L 833.941406 618.855469 Z M 257.277344 618.855469 " fill-opacity="1" fill-rule="evenodd"/></g><path fill="#18181a" d="M 756.847656 1512.527344 L 333.753906 1512.527344 C 303.535156 1512.527344 278.863281 1487.859375 278.863281 1457.636719 C 278.863281 1427.417969 303.535156 1402.746094 333.753906 1402.746094 L 756.847656 1402.746094 C 787.066406 1402.746094 811.738281 1427.417969 811.738281 1457.636719 C 811.738281 1487.859375 787.066406 1512.527344 756.847656 1512.527344 Z M 333.753906 1427.417969 C 317.101562 1427.417969 303.535156 1440.984375 303.535156 1457.636719 C 303.535156 1474.289062 317.101562 1487.859375 333.753906 1487.859375 L 756.847656 1487.859375 C 773.5 1487.859375 787.066406 1474.289062 787.066406 1457.636719 C 787.066406 1440.984375 773.5 1427.417969 756.847656 1427.417969 Z M 333.753906 1427.417969 " fill-opacity="1" fill-rule="evenodd"/><g clip-path="url(#11aef3dc54)"><path fill="#18181a" d="M 846.277344 1646.980469 L 244.941406 1646.980469 C 238.15625 1646.980469 232.605469 1641.429688 232.605469 1634.644531 L 232.605469 1567.417969 C 232.605469 1523.628906 268.378906 1487.859375 312.167969 1487.859375 L 779.050781 1487.859375 C 822.839844 1487.859375 858.609375 1523.628906 858.609375 1567.417969 L 858.609375 1634.644531 C 858.609375 1641.429688 853.058594 1646.980469 846.277344 1646.980469 Z M 257.277344 1622.308594 L 833.941406 1622.308594 L 833.941406 1567.417969 C 833.941406 1537.199219 809.269531 1512.527344 779.050781 1512.527344 L 312.167969 1512.527344 C 281.945312 1512.527344 257.277344 1537.199219 257.277344 1567.417969 Z M 257.277344 1622.308594 " fill-opacity="1" fill-rule="evenodd"/></g><path fill="#18181a" d="M 444.769531 1337.988281 C 437.984375 1337.988281 432.433594 1332.4375 432.433594 1325.652344 L 432.433594 915.511719 C 432.433594 908.726562 437.984375 903.175781 444.769531 903.175781 C 451.554688 903.175781 457.105469 908.726562 457.105469 915.511719 L 457.105469 1325.652344 C 457.105469 1332.4375 451.554688 1337.988281 444.769531 1337.988281 Z M 444.769531 1337.988281 " fill-opacity="1" fill-rule="evenodd"/><path fill="#18181a" d="M 545.300781 1337.988281 C 538.515625 1337.988281 532.964844 1332.4375 532.964844 1325.652344 L 532.964844 915.511719 C 532.964844 908.726562 538.515625 903.175781 545.300781 903.175781 C 552.085938 903.175781 557.636719 908.726562 557.636719 915.511719 L 557.636719 1325.652344 C 557.636719 1332.4375 552.085938 1337.988281 545.300781 1337.988281 Z M 545.300781 1337.988281 " fill-opacity="1" fill-rule="evenodd"/><path fill="#18181a" d="M 646.449219 1337.988281 C 639.664062 1337.988281 634.113281 1332.4375 634.113281 1325.652344 L 634.113281 915.511719 C 634.113281 908.726562 639.664062 903.175781 646.449219 903.175781 C 653.230469 903.175781 658.78125 908.726562 658.78125 915.511719 L 658.78125 1325.652344 C 658.78125 1332.4375 653.230469 1337.988281 646.449219 1337.988281 Z M 646.449219 1337.988281 " fill-opacity="1" fill-rule="evenodd"/><g clip-path="url(#6c0b826a1e)"><path fill="#231815" d="M 1 1947.328125 C 10.742188 1937.792969 22.246094 1930.125 33.957031 1923.179688 C 45.566406 1915.925781 57.898438 1909.914062 70.128906 1903.800781 C 82.667969 1898.304688 95 1892.398438 107.957031 1887.734375 C 120.703125 1882.761719 133.554688 1877.890625 146.613281 1873.847656 C 198.539062 1856.644531 251.808594 1843.273438 305.492188 1833.011719 C 413.074219 1812.390625 522.101562 1801.609375 631.132812 1794.769531 C 849.398438 1779.949219 1069.320312 1791.144531 1286.03125 1819.332031 C 1394.441406 1833.636719 1502.226562 1852.394531 1609.390625 1871.980469 C 1662.972656 1881.929688 1716.449219 1891.878906 1770.03125 1900.378906 C 1823.714844 1908.671875 1876.882812 1915.511719 1930.878906 1916.546875 C 1984.773438 1917.894531 2038.667969 1915.097656 2091.625 1905.871094 C 2144.585938 1896.648438 2196.300781 1880.792969 2244.804688 1857.574219 C 2293.515625 1834.773438 2338.703125 1804.304688 2379.226562 1768.445312 C 2419.855469 1732.585938 2455.609375 1691.234375 2487.84375 1647.289062 C 2429.699219 1739.21875 2349.792969 1819.851562 2251.4375 1871.050781 C 2202.3125 1896.335938 2149.355469 1914.058594 2095.148438 1924.941406 C 2040.945312 1935.824219 1985.601562 1940.175781 1930.464844 1940.175781 C 1903 1940.175781 1875.328125 1939.246094 1847.761719 1936.757812 C 1820.296875 1934.269531 1793.039062 1930.746094 1765.886719 1926.910156 C 1711.683594 1919.035156 1657.894531 1909.707031 1604.207031 1900.484375 C 1496.835938 1881.621094 1389.671875 1863.378906 1281.992188 1849.492188 C 1066.730469 1820.679688 849.292969 1808.761719 632.167969 1817.675781 C 523.65625 1821.613281 415.144531 1830.113281 307.878906 1847.316406 C 254.191406 1855.296875 200.921875 1866.386719 148.789062 1881.308594 C 135.628906 1884.832031 122.777344 1889.082031 109.925781 1893.539062 C 96.96875 1897.582031 84.535156 1902.96875 71.785156 1907.839844 C 59.347656 1913.230469 46.808594 1918.515625 34.890625 1925.046875 C 23.074219 1931.367188 11.261719 1938.414062 1 1947.328125 Z M 1 1947.328125 " fill-opacity="1" fill-rule="nonzero"/></g><g clip-path="url(#b7bc53a84e)"><path fill="#231815" d="M 5183 1947.328125 C 5172.742188 1938.414062 5160.925781 1931.367188 5148.902344 1925.046875 C 5136.984375 1918.515625 5124.445312 1913.230469 5112.007812 1907.839844 C 5099.363281 1902.96875 5086.925781 1897.582031 5073.867188 1893.539062 C 5061.015625 1889.082031 5048.164062 1884.832031 5035.003906 1881.308594 C 4982.871094 1866.386719 4929.601562 1855.296875 4875.914062 1847.316406 C 4768.75 1830.113281 4660.242188 1821.613281 4551.625 1817.675781 C 4334.5 1808.761719 4117.0625 1820.679688 3901.800781 1849.492188 C 3794.015625 1863.378906 3686.851562 1881.515625 3579.585938 1900.484375 C 3525.898438 1909.707031 3472.109375 1919.035156 3417.90625 1926.910156 C 3390.753906 1930.746094 3363.496094 1934.269531 3336.03125 1936.757812 C 3308.464844 1939.246094 3280.792969 1940.175781 3253.328125 1940.175781 C 3198.191406 1940.175781 3142.949219 1935.824219 3088.644531 1924.941406 C 3034.4375 1914.058594 2981.480469 1896.441406 2932.355469 1871.050781 C 2834.101562 1819.851562 2754.300781 1739.21875 2696.054688 1647.289062 C 2728.285156 1691.234375 2764.042969 1732.585938 2804.667969 1768.445312 C 2845.191406 1804.410156 2890.378906 1834.773438 2939.089844 1857.574219 C 2987.59375 1880.894531 3039.414062 1896.753906 3092.269531 1905.871094 C 3145.230469 1915.097656 3199.226562 1917.894531 3253.015625 1916.546875 C 3307.011719 1915.511719 3360.179688 1908.671875 3413.867188 1900.378906 C 3467.449219 1891.882812 3520.925781 1881.828125 3574.507812 1871.980469 C 3681.773438 1852.394531 3789.457031 1833.636719 3897.863281 1819.332031 C 4114.679688 1791.144531 4334.5 1779.949219 4552.765625 1794.769531 C 4661.796875 1801.609375 4770.929688 1812.390625 4878.402344 1833.011719 C 4932.089844 1843.273438 4985.359375 1856.644531 5037.285156 1873.847656 C 5050.34375 1877.890625 5063.191406 1882.761719 5075.941406 1887.734375 C 5088.792969 1892.398438 5101.230469 1898.203125 5113.769531 1903.800781 C 5126 1909.914062 5138.332031 1915.925781 5149.941406 1923.179688 C 5161.753906 1930.125 5173.257812 1937.792969 5183 1947.328125 Z M 5183 1947.328125 " fill-opacity="1" fill-rule="nonzero"/></g><path fill="#231815" d="M 1774.902344 1782.644531 C 1845.378906 1805.859375 1920.828125 1808.761719 1992.753906 1797.359375 C 2010.785156 1794.5625 2028.507812 1790.625 2046.957031 1786.894531 C 2065.300781 1783.265625 2083.75 1780.15625 2102.300781 1777.667969 C 2139.507812 1772.796875 2177.128906 1770.621094 2214.75 1771.449219 C 2290.097656 1772.796875 2366.273438 1788.964844 2434.984375 1822.648438 C 2503.800781 1856.332031 2562.773438 1908.878906 2607.339844 1970.542969 L 2582.984375 1970.128906 C 2628.6875 1911.054688 2687.039062 1858.921875 2756.375 1827.832031 C 2790.679688 1812.078125 2826.746094 1800.675781 2863.328125 1792.800781 C 2872.449219 1790.625 2881.675781 1789.070312 2890.792969 1787.515625 C 2900.019531 1785.753906 2909.242188 1784.511719 2918.464844 1783.472656 C 2936.707031 1780.777344 2956.296875 1779.742188 2974.742188 1779.949219 C 3049.570312 1781.089844 3121.703125 1793.941406 3194.253906 1802.855469 C 3230.421875 1807.621094 3266.695312 1811.972656 3302.972656 1813.113281 C 3321.109375 1813.632812 3339.347656 1813.320312 3357.277344 1811.042969 C 3375.207031 1808.863281 3393.34375 1804.824219 3408.996094 1795.082031 C 3394.175781 1806.066406 3376.035156 1811.765625 3358.003906 1815.5 C 3339.867188 1819.023438 3321.417969 1820.371094 3302.96875 1820.992188 C 3266.074219 1822.132812 3229.28125 1819.953125 3192.699219 1817.46875 L 3083.355469 1808.140625 C 3047.082031 1805.339844 3010.707031 1802.648438 2974.949219 1803.476562 C 2956.917969 1803.890625 2939.816406 1805.339844 2921.988281 1808.554688 C 2913.078125 1809.902344 2904.269531 1811.25 2895.457031 1813.113281 C 2886.648438 1814.773438 2877.839844 1816.429688 2869.132812 1818.710938 C 2834.3125 1826.898438 2800.421875 1838.300781 2768.5 1853.636719 C 2704.242188 1883.796875 2650.140625 1931.78125 2607.027344 1988.472656 C 2601.949219 1995.105469 2592.519531 1996.351562 2585.886719 1991.375 C 2584.640625 1990.441406 2583.710938 1989.40625 2582.878906 1988.265625 L 2582.777344 1988.164062 C 2540.699219 1929.917969 2486.289062 1880.585938 2422.03125 1848.558594 C 2390.316406 1831.976562 2356.117188 1819.851562 2321.1875 1811.042969 C 2286.160156 1802.542969 2250.09375 1797.464844 2213.816406 1795.390625 C 2177.542969 1793.320312 2140.960938 1794.460938 2104.476562 1797.671875 C 2086.238281 1799.226562 2067.996094 1801.507812 2049.859375 1804.203125 C 2031.929688 1806.894531 2013.273438 1810.316406 1994.515625 1812.183594 C 1957.101562 1815.914062 1919.480469 1815.5 1882.378906 1811.042969 C 1845.480469 1806.378906 1808.792969 1797.984375 1774.902344 1782.644531 Z M 1774.902344 1782.644531 " fill-opacity="1" fill-rule="nonzero"/><path fill="#231815" d="M 2639.675781 1770.105469 C 2639.675781 1771.664062 2639.597656 1773.222656 2639.445312 1774.777344 C 2639.292969 1776.332031 2639.0625 1777.875 2638.757812 1779.40625 C 2638.453125 1780.9375 2638.074219 1782.449219 2637.621094 1783.941406 C 2637.167969 1785.4375 2636.644531 1786.90625 2636.046875 1788.347656 C 2635.449219 1789.789062 2634.78125 1791.199219 2634.046875 1792.578125 C 2633.308594 1793.953125 2632.507812 1795.292969 2631.640625 1796.589844 C 2630.773438 1797.886719 2629.84375 1799.140625 2628.851562 1800.347656 C 2627.863281 1801.554688 2626.816406 1802.710938 2625.710938 1803.816406 C 2624.605469 1804.917969 2623.453125 1805.964844 2622.246094 1806.957031 C 2621.039062 1807.945312 2619.785156 1808.875 2618.488281 1809.742188 C 2617.1875 1810.609375 2615.851562 1811.414062 2614.472656 1812.148438 C 2613.097656 1812.886719 2611.6875 1813.550781 2610.242188 1814.148438 C 2608.800781 1814.746094 2607.332031 1815.273438 2605.839844 1815.726562 C 2604.34375 1816.179688 2602.832031 1816.558594 2601.300781 1816.863281 C 2599.769531 1817.167969 2598.226562 1817.394531 2596.671875 1817.546875 C 2595.121094 1817.703125 2593.5625 1817.777344 2592 1817.777344 C 2590.4375 1817.777344 2588.882812 1817.703125 2587.328125 1817.546875 C 2585.773438 1817.394531 2584.230469 1817.167969 2582.699219 1816.863281 C 2581.167969 1816.558594 2579.65625 1816.179688 2578.160156 1815.726562 C 2576.667969 1815.273438 2575.199219 1814.746094 2573.753906 1814.148438 C 2572.3125 1813.550781 2570.902344 1812.886719 2569.527344 1812.148438 C 2568.148438 1811.414062 2566.8125 1810.609375 2565.511719 1809.742188 C 2564.214844 1808.875 2562.960938 1807.945312 2561.753906 1806.957031 C 2560.546875 1805.964844 2559.394531 1804.917969 2558.289062 1803.816406 C 2557.183594 1802.710938 2556.136719 1801.554688 2555.148438 1800.347656 C 2554.15625 1799.140625 2553.226562 1797.886719 2552.359375 1796.589844 C 2551.492188 1795.292969 2550.691406 1793.953125 2549.953125 1792.578125 C 2549.21875 1791.199219 2548.550781 1789.789062 2547.953125 1788.347656 C 2547.355469 1786.90625 2546.832031 1785.4375 2546.378906 1783.941406 C 2545.925781 1782.449219 2545.546875 1780.9375 2545.242188 1779.40625 C 2544.9375 1777.875 2544.707031 1776.332031 2544.554688 1774.777344 C 2544.402344 1773.222656 2544.324219 1771.664062 2544.324219 1770.105469 C 2544.324219 1768.542969 2544.402344 1766.984375 2544.554688 1765.429688 C 2544.707031 1763.878906 2544.9375 1762.335938 2545.242188 1760.804688 C 2545.546875 1759.273438 2545.925781 1757.757812 2546.378906 1756.265625 C 2546.832031 1754.769531 2547.355469 1753.300781 2547.953125 1751.859375 C 2548.550781 1750.417969 2549.21875 1749.007812 2549.953125 1747.628906 C 2550.691406 1746.253906 2551.492188 1744.914062 2552.359375 1743.617188 C 2553.226562 1742.320312 2554.15625 1741.066406 2555.148438 1739.859375 C 2556.136719 1738.652344 2557.183594 1737.496094 2558.289062 1736.394531 C 2559.394531 1735.289062 2560.546875 1734.242188 2561.753906 1733.25 C 2562.960938 1732.261719 2564.214844 1731.332031 2565.511719 1730.464844 C 2566.8125 1729.597656 2568.148438 1728.792969 2569.527344 1728.058594 C 2570.902344 1727.324219 2572.3125 1726.65625 2573.753906 1726.058594 C 2575.199219 1725.460938 2576.667969 1724.933594 2578.160156 1724.480469 C 2579.65625 1724.027344 2581.167969 1723.648438 2582.699219 1723.34375 C 2584.230469 1723.039062 2585.773438 1722.8125 2587.328125 1722.660156 C 2588.882812 1722.507812 2590.4375 1722.429688 2592 1722.429688 C 2593.5625 1722.429688 2595.121094 1722.507812 2596.671875 1722.660156 C 2598.226562 1722.8125 2599.769531 1723.039062 2601.300781 1723.34375 C 2602.832031 1723.648438 2604.34375 1724.027344 2605.839844 1724.480469 C 2607.332031 1724.933594 2608.800781 1725.460938 2610.242188 1726.058594 C 2611.6875 1726.65625 2613.097656 1727.324219 2614.472656 1728.058594 C 2615.851562 1728.792969 2617.1875 1729.597656 2618.484375 1730.464844 C 2619.785156 1731.332031 2621.039062 1732.261719 2622.246094 1733.25 C 2623.453125 1734.242188 2624.605469 1735.289062 2625.710938 1736.394531 C 2626.816406 1737.496094 2627.863281 1738.652344 2628.851562 1739.859375 C 2629.84375 1741.066406 2630.773438 1742.320312 2631.640625 1743.617188 C 2632.507812 1744.914062 2633.308594 1746.253906 2634.046875 1747.628906 C 2634.78125 1749.007812 2635.449219 1750.417969 2636.046875 1751.859375 C 2636.644531 1753.300781 2637.167969 1754.769531 2637.621094 1756.265625 C 2638.074219 1757.757812 2638.453125 1759.273438 2638.757812 1760.804688 C 2639.0625 1762.335938 2639.292969 1763.878906 2639.445312 1765.429688 C 2639.597656 1766.984375 2639.675781 1768.542969 2639.675781 1770.105469 Z M 2639.675781 1770.105469 " fill-opacity="1" fill-rule="nonzero"/><g fill="#000000" fill-opacity="1"><g transform="translate(1026.482425, 1370.375405)"><g><path d="M 403.578125 -18 C 348.066406 24.507812 291.804688 45.765625 234.796875 45.765625 C 174.785156 45.765625 131.023438 23.507812 103.515625 -21 C 84.015625 -53.507812 74.265625 -89.640625 74.265625 -129.390625 C 74.265625 -169.148438 81.515625 -208.785156 96.015625 -248.296875 C 61.015625 -271.796875 41.757812 -303.300781 38.25 -342.8125 C 37.25 -350.3125 36.75 -357.8125 36.75 -365.3125 C 36.75 -425.320312 62.503906 -475.582031 114.015625 -516.09375 C 169.023438 -559.101562 234.035156 -580.609375 309.046875 -580.609375 C 384.066406 -580.609375 446.207031 -559.726562 495.46875 -517.96875 C 544.726562 -476.207031 569.359375 -416.570312 569.359375 -339.0625 C 569.359375 -334.0625 569.359375 -329.0625 569.359375 -324.0625 C 619.367188 -357.0625 651.875 -388.566406 666.875 -418.578125 C 669.375 -424.078125 672.625 -426.453125 676.625 -425.703125 C 680.625 -424.953125 682.625 -423.328125 682.625 -420.828125 C 682.625 -418.328125 681.125 -414.828125 678.125 -410.328125 C 648.625 -363.816406 611.367188 -326.3125 566.359375 -297.8125 C 564.359375 -274.300781 557.976562 -246.039062 547.21875 -213.03125 C 536.46875 -180.03125 518.335938 -145.898438 492.828125 -110.640625 C 467.328125 -75.390625 437.578125 -44.507812 403.578125 -18 Z M 525.09375 -339.8125 C 525.09375 -424.332031 498.085938 -486.84375 444.078125 -527.34375 C 408.078125 -554.351562 366.070312 -567.859375 318.0625 -567.859375 C 304.0625 -567.859375 289.804688 -566.609375 275.296875 -564.109375 C 214.285156 -555.109375 164.53125 -529.851562 126.03125 -488.34375 C 93.519531 -452.332031 77.265625 -411.570312 77.265625 -366.0625 C 77.265625 -326.5625 88.015625 -297.554688 109.515625 -279.046875 C 129.023438 -320.554688 157.78125 -362.566406 195.78125 -405.078125 C 237.289062 -451.585938 281.050781 -480.09375 327.0625 -490.59375 C 334.5625 -492.09375 344.1875 -492.84375 355.9375 -492.84375 C 367.6875 -492.84375 381.316406 -488.09375 396.828125 -478.59375 C 400.328125 -476.59375 402.203125 -474.59375 402.453125 -472.59375 C 402.703125 -470.59375 401.578125 -469.09375 399.078125 -468.09375 C 396.578125 -467.09375 392.828125 -467.46875 387.828125 -469.21875 C 382.828125 -470.96875 374.445312 -471.84375 362.6875 -471.84375 C 350.9375 -471.84375 334.054688 -465.835938 312.046875 -453.828125 C 290.046875 -441.828125 267.796875 -423.078125 245.296875 -397.578125 C 200.785156 -347.066406 168.28125 -299.054688 147.78125 -253.546875 C 179.28125 -239.046875 217.035156 -231.796875 261.046875 -231.796875 C 280.546875 -231.796875 301.300781 -233.046875 323.3125 -235.546875 C 394.820312 -245.046875 461.582031 -266.550781 523.59375 -300.0625 C 524.59375 -313.5625 525.09375 -326.8125 525.09375 -339.8125 Z M 519.09375 -273.796875 C 435.582031 -229.285156 347.566406 -207.03125 255.046875 -207.03125 C 210.035156 -207.03125 170.53125 -213.785156 136.53125 -227.296875 C 121.019531 -186.785156 113.265625 -151.773438 113.265625 -122.265625 C 113.265625 -53.253906 134.019531 -8.5 175.53125 12 C 198.039062 22.5 220.421875 27.75 242.671875 27.75 C 264.921875 27.75 286.550781 23 307.5625 13.5 C 351.5625 -6.5 391.066406 -37.753906 426.078125 -80.265625 C 461.085938 -122.773438 487.59375 -169.535156 505.59375 -220.546875 C 512.59375 -240.546875 517.09375 -258.296875 519.09375 -273.796875 Z M 519.09375 -273.796875 "/></g></g></g><g fill="#000000" fill-opacity="1"><g transform="translate(1571.035241, 1370.375405)"><g><path d="M -45.765625 261.046875 C -73.265625 261.046875 -87.015625 247.296875 -87.015625 219.796875 C -87.015625 180.285156 -61.257812 99.769531 -9.75 -21.75 C -15.75 -31.75 -18.75 -40.003906 -18.75 -46.515625 C -18.75 -67.515625 -14 -81.515625 -4.5 -88.515625 C 2.5 -94.515625 8.375 -97.515625 13.125 -97.515625 C 17.875 -97.515625 21 -97.265625 22.5 -96.765625 C 79.507812 -225.285156 130.769531 -332.054688 176.28125 -417.078125 C 185.28125 -435.078125 194.53125 -448.328125 204.03125 -456.828125 C 213.539062 -465.335938 225.546875 -469.59375 240.046875 -469.59375 C 242.046875 -469.59375 247.046875 -468.84375 255.046875 -467.34375 C 263.046875 -465.84375 269.046875 -465.34375 273.046875 -465.84375 C 249.546875 -443.832031 216.539062 -395.316406 174.03125 -320.296875 C 131.519531 -245.285156 91.265625 -165.023438 53.265625 -79.515625 C 64.765625 -65.515625 72.765625 -46.757812 77.265625 -23.25 L 79.515625 -13.5 C 80.515625 -13.5 81.265625 -13.5 81.765625 -13.5 C 95.265625 -13.5 109.515625 -21.375 124.515625 -37.125 C 139.523438 -52.882812 151.78125 -69.140625 161.28125 -85.890625 C 170.78125 -102.640625 178.53125 -117.390625 184.53125 -130.140625 C 190.53125 -142.898438 194.28125 -149.78125 195.78125 -150.78125 C 197.28125 -151.78125 198.65625 -152.15625 199.90625 -151.90625 C 201.15625 -151.65625 202.28125 -151.15625 203.28125 -150.40625 C 204.28125 -149.65625 204.78125 -148.40625 204.78125 -146.65625 C 204.78125 -144.90625 204.28125 -143.03125 203.28125 -141.03125 C 161.78125 -46.507812 121.023438 0.75 81.015625 0.75 C 81.515625 8.75 81.765625 21.875 81.765625 40.125 C 81.765625 58.382812 77.265625 85.515625 68.265625 121.515625 C 59.265625 157.523438 44.132812 189.78125 22.875 218.28125 C 1.625 246.789062 -21.253906 261.046875 -45.765625 261.046875 Z M -46.515625 219.796875 C -46.515625 234.296875 -42.507812 241.546875 -34.5 241.546875 C -25 241.546875 -11.875 230.414062 4.875 208.15625 C 21.625 185.90625 35.875 155.398438 47.625 116.640625 C 59.382812 77.890625 65.265625 42.757812 65.265625 11.25 C 65.265625 8.75 65.265625 6.25 65.265625 3.75 C 62.765625 3.75 60.515625 3.75 58.515625 3.75 C 44.003906 3.75 31.75 -0.25 21.75 -8.25 C -23.757812 106.769531 -46.515625 182.785156 -46.515625 219.796875 Z M 59.265625 -10.5 L 63.765625 -10.5 C 62.265625 -32.007812 56.265625 -49.265625 45.765625 -62.265625 L 29.25 -24.75 C 34.25 -15.25 44.253906 -10.5 59.265625 -10.5 Z M 59.265625 -10.5 "/></g></g></g><g fill="#000000" fill-opacity="1"><g transform="translate(1719.549839, 1370.375405)"><g><path d="M -45.765625 261.046875 C -73.265625 261.046875 -87.015625 247.296875 -87.015625 219.796875 C -87.015625 180.285156 -61.257812 99.769531 -9.75 -21.75 C -15.75 -31.75 -18.75 -40.003906 -18.75 -46.515625 C -18.75 -67.515625 -14 -81.515625 -4.5 -88.515625 C 2.5 -94.515625 8.375 -97.515625 13.125 -97.515625 C 17.875 -97.515625 21 -97.265625 22.5 -96.765625 C 79.507812 -225.285156 130.769531 -332.054688 176.28125 -417.078125 C 185.28125 -435.078125 194.53125 -448.328125 204.03125 -456.828125 C 213.539062 -465.335938 225.546875 -469.59375 240.046875 -469.59375 C 242.046875 -469.59375 247.046875 -468.84375 255.046875 -467.34375 C 263.046875 -465.84375 269.046875 -465.34375 273.046875 -465.84375 C 249.546875 -443.832031 216.539062 -395.316406 174.03125 -320.296875 C 131.519531 -245.285156 91.265625 -165.023438 53.265625 -79.515625 C 64.765625 -65.515625 72.765625 -46.757812 77.265625 -23.25 L 79.515625 -13.5 C 80.515625 -13.5 81.265625 -13.5 81.765625 -13.5 C 95.265625 -13.5 109.515625 -21.375 124.515625 -37.125 C 139.523438 -52.882812 151.78125 -69.140625 161.28125 -85.890625 C 170.78125 -102.640625 178.53125 -117.390625 184.53125 -130.140625 C 190.53125 -142.898438 194.28125 -149.78125 195.78125 -150.78125 C 197.28125 -151.78125 198.65625 -152.15625 199.90625 -151.90625 C 201.15625 -151.65625 202.28125 -151.15625 203.28125 -150.40625 C 204.28125 -149.65625 204.78125 -148.40625 204.78125 -146.65625 C 204.78125 -144.90625 204.28125 -143.03125 203.28125 -141.03125 C 161.78125 -46.507812 121.023438 0.75 81.015625 0.75 C 81.515625 8.75 81.765625 21.875 81.765625 40.125 C 81.765625 58.382812 77.265625 85.515625 68.265625 121.515625 C 59.265625 157.523438 44.132812 189.78125 22.875 218.28125 C 1.625 246.789062 -21.253906 261.046875 -45.765625 261.046875 Z M -46.515625 219.796875 C -46.515625 234.296875 -42.507812 241.546875 -34.5 241.546875 C -25 241.546875 -11.875 230.414062 4.875 208.15625 C 21.625 185.90625 35.875 155.398438 47.625 116.640625 C 59.382812 77.890625 65.265625 42.757812 65.265625 11.25 C 65.265625 8.75 65.265625 6.25 65.265625 3.75 C 62.765625 3.75 60.515625 3.75 58.515625 3.75 C 44.003906 3.75 31.75 -0.25 21.75 -8.25 C -23.757812 106.769531 -46.515625 182.785156 -46.515625 219.796875 Z M 59.265625 -10.5 L 63.765625 -10.5 C 62.265625 -32.007812 56.265625 -49.265625 45.765625 -62.265625 L 29.25 -24.75 C 34.25 -15.25 44.253906 -10.5 59.265625 -10.5 Z M 59.265625 -10.5 "/></g></g></g><g fill="#000000" fill-opacity="1"><g transform="translate(1868.064437, 1370.375405)"><g><path d="M 145.53125 -291.796875 C 138.53125 -285.796875 130.773438 -282.796875 122.265625 -282.796875 C 113.765625 -282.796875 107.015625 -285.796875 102.015625 -291.796875 C 97.015625 -297.804688 95.015625 -305.0625 96.015625 -313.5625 C 97.515625 -322.0625 101.765625 -329.3125 108.765625 -335.3125 C 115.765625 -341.3125 123.515625 -344.3125 132.015625 -344.3125 C 140.523438 -344.3125 147.40625 -341.3125 152.65625 -335.3125 C 157.90625 -329.3125 159.78125 -322.0625 158.28125 -313.5625 C 156.78125 -305.0625 152.53125 -297.804688 145.53125 -291.796875 Z M 72.015625 -16.5 C 81.515625 -16.5 91.515625 -21.25 102.015625 -30.75 C 120.523438 -49.257812 144.03125 -87.019531 172.53125 -144.03125 C 176.03125 -151.53125 179.53125 -153.78125 183.03125 -150.78125 C 184.03125 -149.78125 184.53125 -148.15625 184.53125 -145.90625 C 184.53125 -143.65625 182.53125 -138.148438 178.53125 -129.390625 C 174.53125 -120.640625 170.90625 -112.765625 167.65625 -105.765625 C 164.40625 -98.765625 158.15625 -87.390625 148.90625 -71.640625 C 139.65625 -55.890625 131.273438 -43.757812 123.765625 -35.25 C 103.265625 -11.75 83.882812 0 65.625 0 C 47.375 0 34.25 -5.5 26.25 -16.5 C 18.25 -27.5 14.25 -39.75 14.25 -53.25 C 14.25 -66.757812 17.5 -81.515625 24 -97.515625 L 72.015625 -219.796875 C 73.015625 -222.796875 73.515625 -226.796875 73.515625 -231.796875 C 73.515625 -236.796875 70.515625 -243.296875 64.515625 -251.296875 L 105.765625 -252.046875 C 117.265625 -252.046875 124.015625 -249.921875 126.015625 -245.671875 C 128.023438 -241.421875 126.523438 -234.796875 121.515625 -225.796875 L 61.515625 -85.515625 C 53.015625 -67.015625 48.765625 -51.257812 48.765625 -38.25 C 48.765625 -23.75 56.515625 -16.5 72.015625 -16.5 Z M 72.015625 -16.5 "/></g></g></g><g fill="#000000" fill-opacity="1"><g transform="translate(1998.576957, 1370.375405)"><g><path d="M 180.78125 -172.53125 C 198.28125 -193.53125 207.03125 -211.28125 207.03125 -225.78125 C 207.03125 -240.289062 201.03125 -247.546875 189.03125 -247.546875 C 165.53125 -247.546875 138.773438 -226.039062 108.765625 -183.03125 C 99.265625 -169.53125 90.015625 -151.773438 81.015625 -129.765625 C 72.015625 -107.765625 67.515625 -87.890625 67.515625 -70.140625 C 67.515625 -52.390625 71.140625 -38.007812 78.390625 -27 C 85.640625 -16 96.890625 -10.5 112.140625 -10.5 C 127.398438 -10.5 141.53125 -14.125 154.53125 -21.375 C 167.53125 -28.625 179.90625 -40.125 191.65625 -55.875 C 203.414062 -71.632812 212.296875 -84.765625 218.296875 -95.265625 C 224.296875 -105.765625 232.546875 -121.519531 243.046875 -142.53125 C 246.546875 -149.53125 249.546875 -152.40625 252.046875 -151.15625 C 254.546875 -149.90625 255.796875 -148.15625 255.796875 -145.90625 C 255.796875 -143.65625 252.421875 -135.398438 245.671875 -121.140625 C 238.921875 -106.890625 232.171875 -93.515625 225.421875 -81.015625 C 218.671875 -68.515625 209.039062 -54.507812 196.53125 -39 C 174.03125 -11 143.273438 3 104.265625 3 C 76.265625 3 56.132812 -3.875 43.875 -17.625 C 31.625 -31.375 25.5 -47.253906 25.5 -65.265625 C 25.5 -87.265625 30.875 -111.265625 41.625 -137.265625 C 52.382812 -163.273438 64.765625 -185.78125 78.765625 -204.78125 C 107.765625 -244.289062 141.269531 -264.046875 179.28125 -264.046875 C 197.78125 -264.046875 211.15625 -259.671875 219.40625 -250.921875 C 227.664062 -242.171875 231.796875 -232.046875 231.796875 -220.546875 C 231.796875 -203.535156 224.796875 -189.03125 210.796875 -177.03125 C 203.785156 -170.53125 197.90625 -167.28125 193.15625 -167.28125 C 188.40625 -167.28125 184.28125 -169.03125 180.78125 -172.53125 Z M 180.78125 -172.53125 "/></g></g></g><g fill="#000000" fill-opacity="1"><g transform="translate(2193.59581, 1370.375405)"><g><path d="M 75.765625 -115.515625 C 68.765625 -98.515625 65.265625 -79.515625 65.265625 -58.515625 C 65.265625 -44.503906 68.390625 -33.375 74.640625 -25.125 C 80.890625 -16.875 89.765625 -12.75 101.265625 -12.75 C 146.773438 -12.75 188.035156 -55.507812 225.046875 -141.03125 C 228.546875 -149.03125 232.796875 -152.53125 237.796875 -151.53125 C 239.796875 -151.03125 240.796875 -149.78125 240.796875 -147.78125 C 240.796875 -145.78125 235.164062 -132.648438 223.90625 -108.390625 C 212.65625 -84.140625 201.28125 -64.515625 189.78125 -49.515625 C 164.28125 -14.503906 132.773438 3 95.265625 3 C 75.265625 3 58.257812 -3.5 44.25 -16.5 C 30.25 -29.5 23.25 -47.25 23.25 -69.75 C 23.25 -92.257812 28.625 -116.140625 39.375 -141.390625 C 50.132812 -166.648438 64.765625 -190.15625 83.265625 -211.90625 C 101.765625 -233.664062 123.019531 -249.546875 147.03125 -259.546875 C 158.53125 -264.546875 169.53125 -267.046875 180.03125 -267.046875 C 190.53125 -267.046875 200.285156 -264.046875 209.296875 -258.046875 C 217.796875 -251.046875 222.046875 -243.296875 222.046875 -234.796875 C 222.046875 -204.785156 204.039062 -176.03125 168.03125 -148.53125 C 157.03125 -140.03125 141.523438 -132.398438 121.515625 -125.640625 C 101.515625 -118.890625 86.265625 -115.515625 75.765625 -115.515625 Z M 201.78125 -235.546875 C 201.78125 -245.546875 197.78125 -250.546875 189.78125 -250.546875 C 175.78125 -250.546875 154.53125 -233.289062 126.03125 -198.78125 C 109.019531 -177.78125 94.015625 -154.28125 81.015625 -128.28125 C 89.515625 -128.28125 101.890625 -131.28125 118.140625 -137.28125 C 134.398438 -143.28125 148.53125 -151.28125 160.53125 -161.28125 C 188.03125 -184.78125 201.78125 -209.535156 201.78125 -235.546875 Z M 201.78125 -235.546875 "/></g></g></g><g fill="#000000" fill-opacity="1"><g transform="translate(2378.113493, 1370.375405)"><g/></g></g><g fill="#000000" fill-opacity="1"><g transform="translate(2572.382147, 1370.375405)"><g><path d="M 498.09375 -333.8125 C 509.59375 -333.8125 515.34375 -326.5625 515.34375 -312.0625 C 515.34375 -296.550781 509.09375 -282.046875 496.59375 -268.546875 C 474.59375 -244.046875 454.335938 -213.289062 435.828125 -176.28125 C 407.828125 -120.269531 393.828125 -69.757812 393.828125 -24.75 C 393.828125 -7.25 396.953125 5.5 403.203125 13.5 C 409.453125 21.5 416.578125 25.5 424.578125 25.5 C 448.585938 25.5 476.59375 6 508.59375 -33 C 537.101562 -69.507812 558.859375 -105.019531 573.859375 -139.53125 C 577.859375 -147.53125 581.859375 -151.03125 585.859375 -150.03125 C 589.859375 -149.03125 590.109375 -144.53125 586.609375 -136.53125 C 566.109375 -91.019531 542.851562 -51.007812 516.84375 -16.5 C 503.34375 2 486.585938 17.375 466.578125 29.625 C 446.578125 41.882812 426.703125 48.015625 406.953125 48.015625 C 387.203125 48.015625 372.320312 40.132812 362.3125 24.375 C 352.3125 8.625 347.3125 -10 347.3125 -31.5 C 347.3125 -53.007812 349.9375 -74.265625 355.1875 -95.265625 C 360.4375 -116.273438 367.316406 -132.53125 375.828125 -144.03125 C 325.316406 -83.519531 271.554688 -35.007812 214.546875 1.5 C 184.535156 20 151.273438 31 114.765625 34.5 C 111.265625 35 105.390625 35.25 97.140625 35.25 C 88.890625 35.25 79.015625 32.25 67.515625 26.25 C 31.503906 11.25 13.5 -25.378906 13.5 -83.640625 C 13.5 -141.898438 32.503906 -205.035156 70.515625 -273.046875 C 90.515625 -309.054688 112.519531 -340.8125 136.53125 -368.3125 C 103.019531 -384.320312 78.015625 -401.578125 61.515625 -420.078125 C 49.515625 -433.578125 43.515625 -449.828125 43.515625 -468.828125 C 43.515625 -487.835938 47.265625 -499.84375 54.765625 -504.84375 C 59.765625 -511.34375 64.265625 -512.59375 68.265625 -508.59375 C 71.265625 -504.09375 71.390625 -498.59375 68.640625 -492.09375 C 65.890625 -485.59375 64.515625 -479.34375 64.515625 -473.34375 C 64.515625 -459.832031 71.765625 -444.828125 86.265625 -428.328125 C 100.765625 -411.828125 122.019531 -397.078125 150.03125 -384.078125 C 267.550781 -514.597656 389.570312 -579.859375 516.09375 -579.859375 C 555.601562 -579.859375 586.984375 -570.976562 610.234375 -553.21875 C 633.492188 -535.46875 645.125 -512.59375 645.125 -484.59375 C 645.125 -454.082031 628.117188 -424.578125 594.109375 -396.078125 C 577.109375 -381.066406 552.851562 -368.0625 521.34375 -357.0625 C 473.332031 -340.0625 416.195312 -331.5625 349.9375 -331.5625 C 283.675781 -331.5625 228.789062 -338.5625 185.28125 -352.5625 C 134.769531 -281.050781 100.015625 -221.664062 81.015625 -174.40625 C 62.015625 -127.144531 52.515625 -90.515625 52.515625 -64.515625 C 52.515625 -59.015625 52.765625 -54.015625 53.265625 -49.515625 C 59.265625 -8.003906 80.265625 12.75 116.265625 12.75 C 156.773438 12.75 203.785156 -9.253906 257.296875 -53.265625 C 295.304688 -85.265625 332.5625 -123.269531 369.0625 -167.28125 C 405.570312 -211.289062 432.703125 -250.046875 450.453125 -283.546875 C 468.210938 -317.054688 484.09375 -333.8125 498.09375 -333.8125 Z M 614.359375 -493.59375 C 614.359375 -515.09375 605.484375 -531.59375 587.734375 -543.09375 C 569.984375 -554.601562 545.601562 -560.359375 514.59375 -560.359375 C 483.59375 -560.359375 452.710938 -555.351562 421.953125 -545.34375 C 391.203125 -535.34375 362.445312 -520.59375 335.6875 -501.09375 C 308.9375 -481.59375 285.179688 -461.585938 264.421875 -441.078125 C 243.671875 -420.578125 221.289062 -396.070312 197.28125 -367.5625 C 234.789062 -355.5625 280.800781 -349.5625 335.3125 -349.5625 C 437.832031 -349.5625 512.597656 -366.066406 559.609375 -399.078125 C 596.109375 -424.578125 614.359375 -456.082031 614.359375 -493.59375 Z M 614.359375 -493.59375 "/></g></g></g><g fill="#000000" fill-opacity="1"><g transform="translate(3106.433796, 1370.375405)"><g><path d="M 75.765625 -115.515625 C 68.765625 -98.515625 65.265625 -79.515625 65.265625 -58.515625 C 65.265625 -44.503906 68.390625 -33.375 74.640625 -25.125 C 80.890625 -16.875 89.765625 -12.75 101.265625 -12.75 C 146.773438 -12.75 188.035156 -55.507812 225.046875 -141.03125 C 228.546875 -149.03125 232.796875 -152.53125 237.796875 -151.53125 C 239.796875 -151.03125 240.796875 -149.78125 240.796875 -147.78125 C 240.796875 -145.78125 235.164062 -132.648438 223.90625 -108.390625 C 212.65625 -84.140625 201.28125 -64.515625 189.78125 -49.515625 C 164.28125 -14.503906 132.773438 3 95.265625 3 C 75.265625 3 58.257812 -3.5 44.25 -16.5 C 30.25 -29.5 23.25 -47.25 23.25 -69.75 C 23.25 -92.257812 28.625 -116.140625 39.375 -141.390625 C 50.132812 -166.648438 64.765625 -190.15625 83.265625 -211.90625 C 101.765625 -233.664062 123.019531 -249.546875 147.03125 -259.546875 C 158.53125 -264.546875 169.53125 -267.046875 180.03125 -267.046875 C 190.53125 -267.046875 200.285156 -264.046875 209.296875 -258.046875 C 217.796875 -251.046875 222.046875 -243.296875 222.046875 -234.796875 C 222.046875 -204.785156 204.039062 -176.03125 168.03125 -148.53125 C 157.03125 -140.03125 141.523438 -132.398438 121.515625 -125.640625 C 101.515625 -118.890625 86.265625 -115.515625 75.765625 -115.515625 Z M 201.78125 -235.546875 C 201.78125 -245.546875 197.78125 -250.546875 189.78125 -250.546875 C 175.78125 -250.546875 154.53125 -233.289062 126.03125 -198.78125 C 109.019531 -177.78125 94.015625 -154.28125 81.015625 -128.28125 C 89.515625 -128.28125 101.890625 -131.28125 118.140625 -137.28125 C 134.398438 -143.28125 148.53125 -151.28125 160.53125 -161.28125 C 188.03125 -184.78125 201.78125 -209.535156 201.78125 -235.546875 Z M 201.78125 -235.546875 "/></g></g></g><g fill="#000000" fill-opacity="1"><g transform="translate(3290.951479, 1370.375405)"><g><path d="M 107.265625 -14.25 C 113.765625 -13.25 118.265625 -12.75 120.765625 -12.75 C 140.773438 -12.75 160.53125 -24.503906 180.03125 -48.015625 C 190.53125 -61.015625 209.285156 -93.769531 236.296875 -146.28125 C 237.296875 -148.78125 239.046875 -150.03125 241.546875 -150.03125 C 246.046875 -150.53125 248.296875 -148.78125 248.296875 -144.78125 C 248.296875 -143.78125 247.171875 -140.90625 244.921875 -136.15625 C 242.671875 -131.40625 240.546875 -126.648438 238.546875 -121.890625 C 236.546875 -117.140625 233.296875 -110.265625 228.796875 -101.265625 C 224.296875 -92.265625 220.421875 -85.015625 217.171875 -79.515625 C 213.921875 -74.015625 209.789062 -67.265625 204.78125 -59.265625 C 199.78125 -51.265625 194.78125 -45.007812 189.78125 -40.5 L 174.03125 -24 C 165.53125 -15.5 155.53125 -9.5 144.03125 -6 C 125.519531 0 107.515625 0.5 90.015625 -4.5 C 78.515625 0.5 68.265625 3 59.265625 3 C 23.753906 3 2.25 -11 -5.25 -39 C -6.75 -45.507812 -7.5 -53.390625 -7.5 -62.640625 C -7.5 -71.890625 -4.375 -80.765625 1.875 -89.265625 C 8.125 -97.765625 14.75 -102.265625 21.75 -102.765625 C 47.257812 -151.273438 69.015625 -195.035156 87.015625 -234.046875 C 107.015625 -276.554688 130.269531 -297.8125 156.78125 -297.8125 C 163.78125 -297.8125 170.65625 -296.179688 177.40625 -292.921875 C 184.15625 -289.671875 186.65625 -286.046875 184.90625 -282.046875 C 183.15625 -278.046875 179.53125 -277.296875 174.03125 -279.796875 C 168.53125 -282.296875 163.78125 -283.546875 159.78125 -283.546875 C 155.78125 -283.546875 152.28125 -282.796875 149.28125 -281.296875 C 132.269531 -273.296875 123.765625 -256.046875 123.765625 -229.546875 C 123.765625 -215.546875 125.765625 -204.039062 129.765625 -195.03125 C 133.773438 -186.03125 138.28125 -176.28125 143.28125 -165.78125 C 154.78125 -139.78125 160.53125 -118.523438 160.53125 -102.015625 C 160.53125 -85.515625 155.28125 -69.257812 144.78125 -53.25 C 134.28125 -37.25 121.773438 -24.25 107.265625 -14.25 Z M 81.765625 -19.5 C 103.765625 -36.507812 114.765625 -64.015625 114.765625 -102.015625 C 114.765625 -117.523438 113.015625 -138.78125 109.515625 -165.78125 C 106.015625 -192.78125 104.265625 -211.03125 104.265625 -220.53125 C 104.265625 -230.039062 104.515625 -236.546875 105.015625 -240.046875 C 67.015625 -164.035156 43.507812 -117.773438 34.5 -101.265625 C 45.007812 -101.265625 50.265625 -93.765625 50.265625 -78.765625 C 50.265625 -49.253906 60.765625 -29.5 81.765625 -19.5 Z M 25.5 -39.75 C 25.5 -36.75 25.75 -33.5 26.25 -30 C 30.25 -16.5 39.503906 -9.75 54.015625 -9.75 C 60.015625 -9.75 65.015625 -10.75 69.015625 -12.75 C 50.503906 -24.25 40.5 -43.003906 39 -69.015625 C 30 -60.015625 25.5 -50.257812 25.5 -39.75 Z M 25.5 -39.75 "/></g></g></g><g fill="#000000" fill-opacity="1"><g transform="translate(3482.970075, 1370.375405)"><g><path d="M 24 -60.015625 C 24 -101.515625 44.003906 -171.023438 84.015625 -268.546875 L 45.015625 -268.546875 C 42.503906 -268.546875 40.875 -269.921875 40.125 -272.671875 C 39.375 -275.421875 39.625 -278.171875 40.875 -280.921875 C 42.132812 -283.671875 44.015625 -285.046875 46.515625 -285.046875 L 91.515625 -285.046875 C 109.515625 -324.554688 126.265625 -357.5625 141.765625 -384.0625 C 157.273438 -410.570312 171.53125 -428.453125 184.53125 -437.703125 C 197.53125 -446.953125 206.90625 -451.578125 212.65625 -451.578125 C 218.414062 -451.578125 222.546875 -451.078125 225.046875 -450.078125 C 236.546875 -444.578125 242.296875 -433.203125 242.296875 -415.953125 C 242.296875 -398.703125 236.539062 -377.820312 225.03125 -353.3125 C 213.53125 -328.8125 202.28125 -306.054688 191.28125 -285.046875 L 227.296875 -285.046875 C 229.796875 -285.046875 231.421875 -283.671875 232.171875 -280.921875 C 232.921875 -278.171875 232.671875 -275.421875 231.421875 -272.671875 C 230.171875 -269.921875 228.296875 -268.546875 225.796875 -268.546875 L 182.28125 -268.546875 C 154.78125 -222.035156 121.523438 -180.78125 82.515625 -144.78125 L 65.265625 -68.265625 C 63.765625 -61.765625 63.015625 -55.382812 63.015625 -49.125 C 63.015625 -42.875 64.765625 -36.5 68.265625 -30 C 71.765625 -23.5 77.265625 -20.25 84.765625 -20.25 C 93.265625 -20.25 102.765625 -23.25 113.265625 -29.25 C 137.273438 -47.257812 163.78125 -85.019531 192.78125 -142.53125 C 194.78125 -147.03125 197.15625 -149.78125 199.90625 -150.78125 C 202.65625 -151.78125 204.28125 -151.15625 204.78125 -148.90625 C 205.28125 -146.65625 204.53125 -143.03125 202.53125 -138.03125 C 186.03125 -103.519531 173.03125 -79.015625 163.53125 -64.515625 C 136.519531 -21.003906 107.765625 0.75 77.265625 0.75 C 61.765625 0.75 49.007812 -5 39 -16.5 C 29 -28 24 -42.503906 24 -60.015625 Z M 174.78125 -285.046875 C 207.789062 -344.054688 224.296875 -385.066406 224.296875 -408.078125 C 224.296875 -418.078125 222.546875 -423.078125 219.046875 -423.078125 C 213.546875 -423.078125 205.164062 -415.078125 193.90625 -399.078125 C 182.65625 -383.078125 163.78125 -345.066406 137.28125 -285.046875 Z M 165.03125 -268.546875 L 129.78125 -268.546875 C 123.769531 -254.546875 110.265625 -221.289062 89.265625 -168.78125 C 116.273438 -196.789062 141.53125 -230.046875 165.03125 -268.546875 Z M 165.03125 -268.546875 "/></g></g></g><g fill="#000000" fill-opacity="1"><g transform="translate(3632.984536, 1370.375405)"><g><path d="M 176.28125 -33.75 C 176.28125 -19.75 181.28125 -12.75 191.28125 -12.75 C 214.789062 -12.75 248.046875 -56.757812 291.046875 -144.78125 C 294.554688 -151.78125 297.6875 -154.53125 300.4375 -153.03125 C 303.1875 -151.53125 304.5625 -149.53125 304.5625 -147.03125 C 304.5625 -144.53125 301.679688 -137.398438 295.921875 -125.640625 C 290.171875 -113.890625 284.421875 -102.640625 278.671875 -91.890625 C 272.921875 -81.140625 264.546875 -67.015625 253.546875 -49.515625 C 230.546875 -14.503906 206.039062 3 180.03125 3 C 163.03125 3 149.53125 -4 139.53125 -18 C 135.03125 -24.5 132.78125 -33.375 132.78125 -44.625 C 132.78125 -55.882812 135.28125 -69.515625 140.28125 -85.515625 C 145.28125 -101.515625 159.03125 -127.519531 181.53125 -163.53125 C 187.03125 -172.53125 189.78125 -179.65625 189.78125 -184.90625 C 189.78125 -190.15625 185.53125 -192.78125 177.03125 -192.78125 C 168.53125 -192.78125 152.28125 -181.53125 128.28125 -159.03125 C 92.269531 -126.019531 57.257812 -76.507812 23.25 -10.5 C 19.75 -3 10.5 0.75 -4.5 0.75 C -18 1.75 -26.5 3.25 -30 5.25 C 65.007812 -192.28125 133.769531 -330.054688 176.28125 -408.078125 C 185.78125 -425.578125 194.15625 -437.828125 201.40625 -444.828125 C 208.664062 -451.828125 217.296875 -455.328125 227.296875 -455.328125 C 229.796875 -455.328125 235.046875 -454.703125 243.046875 -453.453125 C 251.046875 -452.203125 257.046875 -451.828125 261.046875 -452.328125 C 246.046875 -436.828125 219.164062 -393.945312 180.40625 -323.6875 C 141.644531 -253.425781 104.515625 -182.035156 69.015625 -109.515625 C 92.515625 -139.023438 113.640625 -162.03125 132.390625 -178.53125 C 151.148438 -195.03125 174.03125 -210.65625 201.03125 -225.40625 C 228.039062 -240.164062 247.796875 -247.546875 260.296875 -247.546875 C 263.296875 -247.546875 266.046875 -247.046875 268.546875 -246.046875 C 207.035156 -138.023438 176.28125 -67.257812 176.28125 -33.75 Z M 176.28125 -33.75 "/></g></g></g><g fill="#000000" fill-opacity="1"><g transform="translate(3882.008549, 1370.375405)"><g><path d="M 75.765625 -115.515625 C 68.765625 -98.515625 65.265625 -79.515625 65.265625 -58.515625 C 65.265625 -44.503906 68.390625 -33.375 74.640625 -25.125 C 80.890625 -16.875 89.765625 -12.75 101.265625 -12.75 C 146.773438 -12.75 188.035156 -55.507812 225.046875 -141.03125 C 228.546875 -149.03125 232.796875 -152.53125 237.796875 -151.53125 C 239.796875 -151.03125 240.796875 -149.78125 240.796875 -147.78125 C 240.796875 -145.78125 235.164062 -132.648438 223.90625 -108.390625 C 212.65625 -84.140625 201.28125 -64.515625 189.78125 -49.515625 C 164.28125 -14.503906 132.773438 3 95.265625 3 C 75.265625 3 58.257812 -3.5 44.25 -16.5 C 30.25 -29.5 23.25 -47.25 23.25 -69.75 C 23.25 -92.257812 28.625 -116.140625 39.375 -141.390625 C 50.132812 -166.648438 64.765625 -190.15625 83.265625 -211.90625 C 101.765625 -233.664062 123.019531 -249.546875 147.03125 -259.546875 C 158.53125 -264.546875 169.53125 -267.046875 180.03125 -267.046875 C 190.53125 -267.046875 200.285156 -264.046875 209.296875 -258.046875 C 217.796875 -251.046875 222.046875 -243.296875 222.046875 -234.796875 C 222.046875 -204.785156 204.039062 -176.03125 168.03125 -148.53125 C 157.03125 -140.03125 141.523438 -132.398438 121.515625 -125.640625 C 101.515625 -118.890625 86.265625 -115.515625 75.765625 -115.515625 Z M 201.78125 -235.546875 C 201.78125 -245.546875 197.78125 -250.546875 189.78125 -250.546875 C 175.78125 -250.546875 154.53125 -233.289062 126.03125 -198.78125 C 109.019531 -177.78125 94.015625 -154.28125 81.015625 -128.28125 C 89.515625 -128.28125 101.890625 -131.28125 118.140625 -137.28125 C 134.398438 -143.28125 148.53125 -151.28125 160.53125 -161.28125 C 188.03125 -184.78125 201.78125 -209.535156 201.78125 -235.546875 Z M 201.78125 -235.546875 "/></g></g></g><g fill="#000000" fill-opacity="1"><g transform="translate(4066.526232, 1370.375405)"><g><path d="M 24 -60.015625 C 24 -101.515625 44.003906 -171.023438 84.015625 -268.546875 L 45.015625 -268.546875 C 42.503906 -268.546875 40.875 -269.921875 40.125 -272.671875 C 39.375 -275.421875 39.625 -278.171875 40.875 -280.921875 C 42.132812 -283.671875 44.015625 -285.046875 46.515625 -285.046875 L 91.515625 -285.046875 C 109.515625 -324.554688 126.265625 -357.5625 141.765625 -384.0625 C 157.273438 -410.570312 171.53125 -428.453125 184.53125 -437.703125 C 197.53125 -446.953125 206.90625 -451.578125 212.65625 -451.578125 C 218.414062 -451.578125 222.546875 -451.078125 225.046875 -450.078125 C 236.546875 -444.578125 242.296875 -433.203125 242.296875 -415.953125 C 242.296875 -398.703125 236.539062 -377.820312 225.03125 -353.3125 C 213.53125 -328.8125 202.28125 -306.054688 191.28125 -285.046875 L 227.296875 -285.046875 C 229.796875 -285.046875 231.421875 -283.671875 232.171875 -280.921875 C 232.921875 -278.171875 232.671875 -275.421875 231.421875 -272.671875 C 230.171875 -269.921875 228.296875 -268.546875 225.796875 -268.546875 L 182.28125 -268.546875 C 154.78125 -222.035156 121.523438 -180.78125 82.515625 -144.78125 L 65.265625 -68.265625 C 63.765625 -61.765625 63.015625 -55.382812 63.015625 -49.125 C 63.015625 -42.875 64.765625 -36.5 68.265625 -30 C 71.765625 -23.5 77.265625 -20.25 84.765625 -20.25 C 93.265625 -20.25 102.765625 -23.25 113.265625 -29.25 C 137.273438 -47.257812 163.78125 -85.019531 192.78125 -142.53125 C 194.78125 -147.03125 197.15625 -149.78125 199.90625 -150.78125 C 202.65625 -151.78125 204.28125 -151.15625 204.78125 -148.90625 C 205.28125 -146.65625 204.53125 -143.03125 202.53125 -138.03125 C 186.03125 -103.519531 173.03125 -79.015625 163.53125 -64.515625 C 136.519531 -21.003906 107.765625 0.75 77.265625 0.75 C 61.765625 0.75 49.007812 -5 39 -16.5 C 29 -28 24 -42.503906 24 -60.015625 Z M 174.78125 -285.046875 C 207.789062 -344.054688 224.296875 -385.066406 224.296875 -408.078125 C 224.296875 -418.078125 222.546875 -423.078125 219.046875 -423.078125 C 213.546875 -423.078125 205.164062 -415.078125 193.90625 -399.078125 C 182.65625 -383.078125 163.78125 -345.066406 137.28125 -285.046875 Z M 165.03125 -268.546875 L 129.78125 -268.546875 C 123.769531 -254.546875 110.265625 -221.289062 89.265625 -168.78125 C 116.273438 -196.789062 141.53125 -230.046875 165.03125 -268.546875 Z M 165.03125 -268.546875 "/></g></g></g><g fill="#000000" fill-opacity="1"><g transform="translate(4216.540694, 1370.375405)"><g><path d="M 145.53125 -291.796875 C 138.53125 -285.796875 130.773438 -282.796875 122.265625 -282.796875 C 113.765625 -282.796875 107.015625 -285.796875 102.015625 -291.796875 C 97.015625 -297.804688 95.015625 -305.0625 96.015625 -313.5625 C 97.515625 -322.0625 101.765625 -329.3125 108.765625 -335.3125 C 115.765625 -341.3125 123.515625 -344.3125 132.015625 -344.3125 C 140.523438 -344.3125 147.40625 -341.3125 152.65625 -335.3125 C 157.90625 -329.3125 159.78125 -322.0625 158.28125 -313.5625 C 156.78125 -305.0625 152.53125 -297.804688 145.53125 -291.796875 Z M 72.015625 -16.5 C 81.515625 -16.5 91.515625 -21.25 102.015625 -30.75 C 120.523438 -49.257812 144.03125 -87.019531 172.53125 -144.03125 C 176.03125 -151.53125 179.53125 -153.78125 183.03125 -150.78125 C 184.03125 -149.78125 184.53125 -148.15625 184.53125 -145.90625 C 184.53125 -143.65625 182.53125 -138.148438 178.53125 -129.390625 C 174.53125 -120.640625 170.90625 -112.765625 167.65625 -105.765625 C 164.40625 -98.765625 158.15625 -87.390625 148.90625 -71.640625 C 139.65625 -55.890625 131.273438 -43.757812 123.765625 -35.25 C 103.265625 -11.75 83.882812 0 65.625 0 C 47.375 0 34.25 -5.5 26.25 -16.5 C 18.25 -27.5 14.25 -39.75 14.25 -53.25 C 14.25 -66.757812 17.5 -81.515625 24 -97.515625 L 72.015625 -219.796875 C 73.015625 -222.796875 73.515625 -226.796875 73.515625 -231.796875 C 73.515625 -236.796875 70.515625 -243.296875 64.515625 -251.296875 L 105.765625 -252.046875 C 117.265625 -252.046875 124.015625 -249.921875 126.015625 -245.671875 C 128.023438 -241.421875 126.523438 -234.796875 121.515625 -225.796875 L 61.515625 -85.515625 C 53.015625 -67.015625 48.765625 -51.257812 48.765625 -38.25 C 48.765625 -23.75 56.515625 -16.5 72.015625 -16.5 Z M 72.015625 -16.5 "/></g></g></g><g fill="#000000" fill-opacity="1"><g transform="translate(4347.053213, 1370.375405)"><g><path d="M 180.78125 -172.53125 C 198.28125 -193.53125 207.03125 -211.28125 207.03125 -225.78125 C 207.03125 -240.289062 201.03125 -247.546875 189.03125 -247.546875 C 165.53125 -247.546875 138.773438 -226.039062 108.765625 -183.03125 C 99.265625 -169.53125 90.015625 -151.773438 81.015625 -129.765625 C 72.015625 -107.765625 67.515625 -87.890625 67.515625 -70.140625 C 67.515625 -52.390625 71.140625 -38.007812 78.390625 -27 C 85.640625 -16 96.890625 -10.5 112.140625 -10.5 C 127.398438 -10.5 141.53125 -14.125 154.53125 -21.375 C 167.53125 -28.625 179.90625 -40.125 191.65625 -55.875 C 203.414062 -71.632812 212.296875 -84.765625 218.296875 -95.265625 C 224.296875 -105.765625 232.546875 -121.519531 243.046875 -142.53125 C 246.546875 -149.53125 249.546875 -152.40625 252.046875 -151.15625 C 254.546875 -149.90625 255.796875 -148.15625 255.796875 -145.90625 C 255.796875 -143.65625 252.421875 -135.398438 245.671875 -121.140625 C 238.921875 -106.890625 232.171875 -93.515625 225.421875 -81.015625 C 218.671875 -68.515625 209.039062 -54.507812 196.53125 -39 C 174.03125 -11 143.273438 3 104.265625 3 C 76.265625 3 56.132812 -3.875 43.875 -17.625 C 31.625 -31.375 25.5 -47.253906 25.5 -65.265625 C 25.5 -87.265625 30.875 -111.265625 41.625 -137.265625 C 52.382812 -163.273438 64.765625 -185.78125 78.765625 -204.78125 C 107.765625 -244.289062 141.269531 -264.046875 179.28125 -264.046875 C 197.78125 -264.046875 211.15625 -259.671875 219.40625 -250.921875 C 227.664062 -242.171875 231.796875 -232.046875 231.796875 -220.546875 C 231.796875 -203.535156 224.796875 -189.03125 210.796875 -177.03125 C 203.785156 -170.53125 197.90625 -167.28125 193.15625 -167.28125 C 188.40625 -167.28125 184.28125 -169.03125 180.78125 -172.53125 Z M 180.78125 -172.53125 "/></g></g></g><g fill="#000000" fill-opacity="1"><g transform="translate(4542.072066, 1370.375405)"><g><path d="M 270.796875 -203.28125 C 261.796875 -194.28125 249.039062 -173.898438 232.53125 -142.140625 C 216.03125 -110.390625 206.15625 -86.640625 202.90625 -70.890625 C 199.65625 -55.140625 198.03125 -42.382812 198.03125 -32.625 C 198.03125 -22.875 201.785156 -18 209.296875 -18 C 218.796875 -18 230.546875 -26.753906 244.546875 -44.265625 C 265.046875 -69.765625 285.300781 -103.019531 305.3125 -144.03125 C 307.3125 -148.53125 309.5625 -151.03125 312.0625 -151.53125 C 316.0625 -153.03125 318.0625 -151.53125 318.0625 -147.03125 C 318.0625 -144.53125 317.3125 -141.53125 315.8125 -138.03125 C 269.800781 -45.007812 231.039062 1.5 199.53125 1.5 C 185.03125 1.5 173.28125 -5.5 164.28125 -19.5 C 159.78125 -27 157.53125 -37 157.53125 -49.5 C 157.53125 -62.007812 160.03125 -77.265625 165.03125 -95.265625 C 125.019531 -30.753906 90.515625 1.5 61.515625 1.5 C 53.515625 1.5 46.257812 -1 39.75 -6 C 24.75 -16.5 17.25 -34.503906 17.25 -60.015625 C 17.25 -109.023438 38.503906 -158.785156 81.015625 -209.296875 C 105.015625 -237.296875 134.519531 -255.546875 169.53125 -264.046875 C 179.03125 -266.546875 188.03125 -267.796875 196.53125 -267.796875 C 219.539062 -267.796875 239.046875 -259.796875 255.046875 -243.796875 C 260.046875 -238.296875 261.546875 -233.046875 259.546875 -228.046875 C 257.546875 -223.046875 253.296875 -221.046875 246.796875 -222.046875 C 241.296875 -240.046875 229.296875 -249.046875 210.796875 -249.046875 C 189.285156 -249.046875 162.78125 -232.039062 131.28125 -198.03125 C 113.269531 -178.03125 96.515625 -154.53125 81.015625 -127.53125 C 61.515625 -95.019531 51.765625 -69.007812 51.765625 -49.5 C 51.765625 -30 58.015625 -20.25 70.515625 -20.25 C 100.515625 -20.25 139.769531 -66.257812 188.28125 -158.28125 C 197.78125 -176.78125 205.78125 -189.40625 212.28125 -196.15625 C 218.789062 -202.90625 227.046875 -206.28125 237.046875 -206.28125 C 239.046875 -206.28125 244.171875 -205.53125 252.421875 -204.03125 C 260.671875 -202.53125 266.796875 -202.28125 270.796875 -203.28125 Z M 270.796875 -203.28125 "/></g></g></g><g fill="#000000" fill-opacity="1"><g transform="translate(4804.597506, 1370.375405)"><g><path d="M 107.265625 -14.25 C 113.765625 -13.25 118.265625 -12.75 120.765625 -12.75 C 140.773438 -12.75 160.53125 -24.503906 180.03125 -48.015625 C 190.53125 -61.015625 209.285156 -93.769531 236.296875 -146.28125 C 237.296875 -148.78125 239.046875 -150.03125 241.546875 -150.03125 C 246.046875 -150.53125 248.296875 -148.78125 248.296875 -144.78125 C 248.296875 -143.78125 247.171875 -140.90625 244.921875 -136.15625 C 242.671875 -131.40625 240.546875 -126.648438 238.546875 -121.890625 C 236.546875 -117.140625 233.296875 -110.265625 228.796875 -101.265625 C 224.296875 -92.265625 220.421875 -85.015625 217.171875 -79.515625 C 213.921875 -74.015625 209.789062 -67.265625 204.78125 -59.265625 C 199.78125 -51.265625 194.78125 -45.007812 189.78125 -40.5 L 174.03125 -24 C 165.53125 -15.5 155.53125 -9.5 144.03125 -6 C 125.519531 0 107.515625 0.5 90.015625 -4.5 C 78.515625 0.5 68.265625 3 59.265625 3 C 23.753906 3 2.25 -11 -5.25 -39 C -6.75 -45.507812 -7.5 -53.390625 -7.5 -62.640625 C -7.5 -71.890625 -4.375 -80.765625 1.875 -89.265625 C 8.125 -97.765625 14.75 -102.265625 21.75 -102.765625 C 47.257812 -151.273438 69.015625 -195.035156 87.015625 -234.046875 C 107.015625 -276.554688 130.269531 -297.8125 156.78125 -297.8125 C 163.78125 -297.8125 170.65625 -296.179688 177.40625 -292.921875 C 184.15625 -289.671875 186.65625 -286.046875 184.90625 -282.046875 C 183.15625 -278.046875 179.53125 -277.296875 174.03125 -279.796875 C 168.53125 -282.296875 163.78125 -283.546875 159.78125 -283.546875 C 155.78125 -283.546875 152.28125 -282.796875 149.28125 -281.296875 C 132.269531 -273.296875 123.765625 -256.046875 123.765625 -229.546875 C 123.765625 -215.546875 125.765625 -204.039062 129.765625 -195.03125 C 133.773438 -186.03125 138.28125 -176.28125 143.28125 -165.78125 C 154.78125 -139.78125 160.53125 -118.523438 160.53125 -102.015625 C 160.53125 -85.515625 155.28125 -69.257812 144.78125 -53.25 C 134.28125 -37.25 121.773438 -24.25 107.265625 -14.25 Z M 81.765625 -19.5 C 103.765625 -36.507812 114.765625 -64.015625 114.765625 -102.015625 C 114.765625 -117.523438 113.015625 -138.78125 109.515625 -165.78125 C 106.015625 -192.78125 104.265625 -211.03125 104.265625 -220.53125 C 104.265625 -230.039062 104.515625 -236.546875 105.015625 -240.046875 C 67.015625 -164.035156 43.507812 -117.773438 34.5 -101.265625 C 45.007812 -101.265625 50.265625 -93.765625 50.265625 -78.765625 C 50.265625 -49.253906 60.765625 -29.5 81.765625 -19.5 Z M 25.5 -39.75 C 25.5 -36.75 25.75 -33.5 26.25 -30 C 30.25 -16.5 39.503906 -9.75 54.015625 -9.75 C 60.015625 -9.75 65.015625 -10.75 69.015625 -12.75 C 50.503906 -24.25 40.5 -43.003906 39 -69.015625 C 30 -60.015625 25.5 -50.257812 25.5 -39.75 Z M 25.5 -39.75 "/></g></g></g></svg>