<svg width="23" height="19" viewBox="0 0 23 19" fill="none" xmlns="http://www.w3.org/2000/svg">
<path fill-rule="evenodd" clip-rule="evenodd" d="M3.18138 2.7064C4.08151 1.80654 5.30219 1.30102 6.57498 1.30102C7.84776 1.30102 9.06844 1.80654 9.96857 2.7064L11.375 4.1116L12.7814 2.7064C13.2242 2.24795 13.7538 1.88228 14.3394 1.63071C14.9251 1.37915 15.5549 1.24674 16.1922 1.2412C16.8296 1.23566 17.4616 1.35711 18.0516 1.59846C18.6415 1.8398 19.1774 2.19622 19.6281 2.6469C20.0788 3.09759 20.4352 3.63352 20.6765 4.22342C20.9179 4.81332 21.0393 5.44538 21.0338 6.08273C21.0282 6.72007 20.8958 7.34992 20.6443 7.93554C20.3927 8.52116 20.027 9.05081 19.5686 9.4936L11.375 17.6884L3.18138 9.4936C2.28151 8.59347 1.776 7.37279 1.776 6.1C1.776 4.82721 2.28151 3.60653 3.18138 2.7064V2.7064Z" stroke="black" stroke-width="2" stroke-linejoin="round"/>
</svg>
