<svg xmlns="http://www.w3.org/2000/svg" xmlns:xlink="http://www.w3.org/1999/xlink" width="500" zoomAndPan="magnify" viewBox="0 0 375 374.999991" height="500" preserveAspectRatio="xMidYMid meet" version="1.0"><defs><clipPath id="2b6e60f9eb"><path d="M 187.5 0 C 83.945312 0 0 83.945312 0 187.5 C 0 291.054688 83.945312 375 187.5 375 C 291.054688 375 375 291.054688 375 187.5 C 375 83.945312 291.054688 0 187.5 0 Z M 187.5 0 " clip-rule="nonzero"/></clipPath><clipPath id="bdca4c967d"><path d="M 80.894531 35.207031 L 293.894531 35.207031 L 293.894531 339.707031 L 80.894531 339.707031 Z M 80.894531 35.207031 " clip-rule="nonzero"/></clipPath></defs><g clip-path="url(#2b6e60f9eb)"><rect x="-37.5" width="450" fill="#ffffff" y="-37.499999" height="449.999989" fill-opacity="1"/></g><g clip-path="url(#bdca4c967d)"><path fill="#333a4c" d="M 187.5 35.207031 C 128.640625 35.207031 80.894531 82.949219 80.894531 141.808594 C 80.894531 221.761719 187.5 339.789062 187.5 339.789062 C 187.5 339.789062 294.101562 221.761719 294.101562 141.808594 C 294.101562 82.949219 246.359375 35.207031 187.5 35.207031 Z M 187.5 179.882812 C 166.484375 179.882812 149.425781 162.824219 149.425781 141.808594 C 149.425781 120.792969 166.484375 103.738281 187.5 103.738281 C 208.515625 103.738281 225.574219 120.792969 225.574219 141.808594 C 225.574219 162.824219 208.515625 179.882812 187.5 179.882812 Z M 187.5 179.882812 " fill-opacity="1" fill-rule="nonzero"/></g></svg>