<svg xmlns="http://www.w3.org/2000/svg" xmlns:xlink="http://www.w3.org/1999/xlink" width="500" zoomAndPan="magnify" viewBox="0 0 375 374.999991" height="500" preserveAspectRatio="xMidYMid meet" version="1.0"><defs><clipPath id="d85a1fa939"><path d="M 187.5 0 C 83.945312 0 0 83.945312 0 187.5 C 0 291.054688 83.945312 375 187.5 375 C 291.054688 375 375 291.054688 375 187.5 C 375 83.945312 291.054688 0 187.5 0 Z M 187.5 0 " clip-rule="nonzero"/></clipPath><clipPath id="a443dd0a73"><path d="M 57.285156 115 L 145 115 L 145 260 L 57.285156 260 Z M 57.285156 115 " clip-rule="nonzero"/></clipPath><clipPath id="a8468ee6c2"><path d="M 230 115 L 317.535156 115 L 317.535156 260 L 230 260 Z M 230 115 " clip-rule="nonzero"/></clipPath></defs><g clip-path="url(#d85a1fa939)"><rect x="-37.5" width="450" fill="#ffffff" y="-37.499999" height="449.999989" fill-opacity="1"/></g><path fill="#333a4c" d="M 303.339844 267.960938 L 221.609375 200.097656 C 219.21875 198.117188 215.757812 198.117188 213.367188 200.097656 L 191.347656 218.382812 C 189.132812 220.21875 185.921875 220.21875 183.707031 218.382812 L 161.6875 200.097656 C 159.296875 198.117188 155.835938 198.117188 153.445312 200.097656 L 71.714844 267.960938 C 70.589844 268.894531 71.25 270.722656 72.710938 270.722656 L 302.34375 270.722656 C 303.804688 270.722656 304.464844 268.894531 303.339844 267.960938 " fill-opacity="1" fill-rule="nonzero"/><g clip-path="url(#a443dd0a73)"><path fill="#333a4c" d="M 143.234375 184.777344 L 59.878906 115.566406 C 58.863281 114.722656 57.320312 115.445312 57.320312 116.769531 L 57.320312 258.207031 C 57.320312 259.53125 58.863281 260.253906 59.878906 259.414062 L 143.234375 190.203125 C 144.933594 188.789062 144.933594 186.1875 143.234375 184.777344 " fill-opacity="1" fill-rule="nonzero"/></g><path fill="#333a4c" d="M 71.714844 107.019531 L 184.398438 200.582031 C 186.214844 202.085938 188.84375 202.085938 190.652344 200.582031 L 303.339844 107.019531 C 304.464844 106.085938 303.804688 104.253906 302.34375 104.253906 L 72.710938 104.253906 C 71.25 104.253906 70.589844 106.085938 71.714844 107.019531 " fill-opacity="1" fill-rule="nonzero"/><g clip-path="url(#a8468ee6c2)"><path fill="#333a4c" d="M 315.175781 115.566406 L 231.820312 184.777344 C 230.121094 186.1875 230.121094 188.789062 231.820312 190.203125 L 315.175781 259.414062 C 316.191406 260.253906 317.730469 259.535156 317.730469 258.210938 L 317.730469 116.769531 C 317.730469 115.445312 316.191406 114.722656 315.175781 115.566406 " fill-opacity="1" fill-rule="nonzero"/></g></svg>