<svg xmlns="http://www.w3.org/2000/svg" xmlns:xlink="http://www.w3.org/1999/xlink" width="500" zoomAndPan="magnify" viewBox="0 0 375 374.999991" height="500" preserveAspectRatio="xMidYMid meet" version="1.0"><defs><clipPath id="3a2ccf7a5c"><path d="M 187.5 0 C 83.945312 0 0 83.945312 0 187.5 C 0 291.054688 83.945312 375 187.5 375 C 291.054688 375 375 291.054688 375 187.5 C 375 83.945312 291.054688 0 187.5 0 Z M 187.5 0 " clip-rule="nonzero"/></clipPath><clipPath id="7779ba70cc"><path d="M 49.460938 49.460938 L 325.460938 49.460938 L 325.460938 325.460938 L 49.460938 325.460938 Z M 49.460938 49.460938 " clip-rule="nonzero"/></clipPath></defs><g clip-path="url(#3a2ccf7a5c)"><rect x="-37.5" width="450" fill="#ffffff" y="-37.499999" height="449.999989" fill-opacity="1"/></g><g clip-path="url(#7779ba70cc)"><path fill="#333a4c" d="M 322.773438 161.582031 C 322.40625 161.582031 322.039062 161.949219 321.671875 161.949219 C 320.9375 161.949219 318.363281 164.519531 316.894531 165.625 C 315.421875 167.09375 313.585938 167.828125 313.214844 168.566406 C 312.847656 169.300781 313.214844 170.402344 314.320312 171.136719 C 315.421875 171.875 314.320312 173.710938 314.320312 177.019531 C 314.320312 180.328125 313.214844 177.753906 312.113281 178.859375 C 311.011719 179.59375 309.539062 179.59375 308.804688 179.226562 C 308.070312 178.859375 306.96875 177.753906 306.230469 175.550781 C 305.496094 173.34375 305.128906 171.875 304.761719 171.136719 C 304.394531 170.402344 303.292969 165.992188 302.554688 164.519531 C 302.1875 163.050781 301.820312 162.683594 300.71875 161.210938 C 299.984375 160.109375 299.246094 160.476562 298.144531 158.640625 C 296.675781 157.167969 297.042969 157.167969 295.9375 155.332031 C 294.835938 153.859375 293.367188 153.859375 292.261719 153.859375 C 291.160156 153.859375 286.75 153.859375 285.277344 153.125 C 283.808594 152.390625 284.175781 152.023438 283.441406 152.023438 C 282.707031 152.023438 280.867188 152.023438 279.03125 150.550781 C 277.191406 149.082031 279.03125 150.550781 277.558594 150.550781 C 276.089844 150.550781 271.308594 149.449219 271.308594 149.449219 C 271.308594 149.449219 271.308594 150.183594 271.675781 150.917969 C 272.046875 151.65625 280.132812 154.226562 280.867188 154.226562 C 281.601562 154.597656 281.96875 156.066406 283.074219 157.167969 C 284.175781 158.273438 284.910156 158.640625 284.910156 159.007812 C 285.277344 159.742188 283.441406 162.316406 283.441406 162.316406 C 283.441406 162.316406 280.5 163.785156 279.765625 164.152344 C 279.03125 164.519531 277.558594 165.625 277.191406 166.359375 C 276.824219 167.09375 272.78125 169.300781 272.046875 169.667969 C 271.308594 170.035156 268 170.769531 267.265625 170.402344 C 266.53125 170.035156 265.796875 168.933594 265.796875 168.933594 C 265.796875 168.933594 263.957031 167.09375 263.222656 164.152344 C 262.855469 161.582031 262.488281 160.84375 262.121094 158.640625 C 261.753906 156.433594 259.546875 155.332031 258.8125 153.859375 C 257.707031 152.023438 255.136719 149.449219 255.136719 149.449219 C 255.136719 149.449219 253.296875 150.917969 252.5625 151.289062 C 252.195312 152.023438 253.296875 154.597656 253.664062 155.699219 C 254.03125 156.800781 254.398438 158.640625 255.871094 160.476562 C 256.972656 162.316406 258.078125 163.050781 260.28125 164.890625 C 262.488281 166.726562 262.855469 169.667969 263.222656 170.402344 C 263.589844 171.136719 265.429688 172.976562 267.265625 174.445312 C 269.105469 175.917969 269.472656 174.8125 272.78125 174.445312 C 276.089844 174.078125 274.984375 175.179688 274.984375 176.285156 C 274.984375 177.386719 274.25 180.695312 273.515625 182.167969 C 272.78125 184.003906 270.574219 184.738281 269.105469 185.84375 C 267.632812 186.945312 266.898438 188.78125 265.0625 190.253906 C 263.222656 191.722656 263.222656 192.828125 263.589844 193.5625 C 263.957031 194.296875 263.222656 198.339844 263.589844 199.074219 C 263.957031 199.8125 263.222656 202.015625 263.589844 204.589844 C 263.957031 207.164062 263.589844 209 263.589844 209.738281 C 263.589844 210.472656 261.753906 212.308594 260.28125 213.414062 C 259.179688 214.148438 258.078125 215.25 256.605469 215.617188 C 255.136719 215.984375 256.605469 217.089844 256.605469 220.027344 C 256.605469 222.96875 255.136719 223.707031 254.398438 223.335938 C 253.664062 222.601562 252.5625 226.277344 251.828125 228.484375 C 251.09375 230.691406 250.355469 231.792969 249.988281 232.160156 C 249.621094 232.894531 248.152344 233.628906 246.679688 235.101562 C 245.210938 236.570312 243.371094 237.675781 241.902344 238.410156 C 240.429688 238.777344 238.226562 239.878906 235.285156 239.878906 C 232.710938 240.246094 232.34375 232.527344 231.242188 231.425781 C 230.136719 230.320312 229.769531 228.117188 229.769531 226.277344 C 229.769531 224.441406 229.769531 224.074219 229.769531 222.96875 C 229.769531 221.867188 227.933594 220.398438 228.667969 218.558594 C 229.402344 216.722656 227.933594 215.984375 227.566406 214.148438 C 227.199219 212.675781 227.566406 211.574219 227.566406 210.839844 C 227.566406 210.105469 231.609375 207.164062 229.769531 206.429688 C 228.667969 206.058594 227.933594 202.015625 227.199219 200.546875 C 226.460938 199.074219 225.726562 198.707031 224.625 197.238281 C 223.523438 195.765625 223.152344 195.765625 222.785156 193.5625 C 222.417969 191.355469 223.523438 188.78125 223.890625 186.945312 C 224.257812 185.472656 221.316406 183.636719 219.84375 182.535156 C 218.375 181.429688 217.273438 181.0625 215.433594 181.0625 C 213.597656 181.0625 213.964844 181.796875 212.859375 181.796875 C 211.757812 181.796875 209.550781 181.429688 208.816406 181.429688 C 208.082031 181.0625 207.347656 181.429688 206.242188 181.0625 C 205.875 182.167969 202.199219 184.003906 202.199219 184.003906 C 202.199219 184.003906 198.890625 182.167969 197.789062 181.0625 C 196.6875 179.960938 195.953125 179.226562 194.480469 177.753906 C 193.378906 176.285156 193.011719 176.285156 191.171875 173.710938 C 189.335938 171.136719 191.171875 171.875 191.171875 171.136719 C 191.171875 170.402344 191.539062 169.300781 193.011719 166.726562 C 194.480469 164.152344 193.011719 164.890625 193.011719 162.316406 C 193.011719 159.742188 194.113281 157.535156 194.847656 156.433594 C 195.582031 155.332031 196.320312 154.964844 196.6875 154.597656 C 197.421875 153.859375 200.363281 152.023438 200.363281 152.023438 C 200.363281 152.023438 199.996094 150.183594 200.363281 148.714844 C 200.730469 147.242188 201.832031 146.875 202.199219 145.773438 C 202.566406 145.039062 205.140625 143.199219 206.613281 142.097656 C 208.082031 140.625 208.449219 141.730469 210.289062 141.730469 C 211.757812 141.730469 210.289062 141.730469 212.125 141.730469 C 213.964844 141.730469 214.699219 141.730469 214.699219 141.730469 C 214.699219 141.730469 216.167969 141.363281 218.375 140.996094 C 220.582031 140.625 220.214844 140.257812 221.683594 139.15625 C 223.152344 138.054688 224.625 139.15625 225.359375 139.15625 C 226.09375 139.15625 226.828125 140.625 226.828125 140.625 C 226.828125 140.625 227.566406 143.199219 228.300781 143.933594 C 229.035156 144.671875 230.136719 144.671875 230.875 145.039062 C 231.609375 145.40625 232.710938 146.140625 234.183594 146.507812 C 235.652344 146.875 237.492188 146.140625 237.492188 146.140625 C 237.492188 146.140625 237.492188 146.140625 238.59375 145.773438 C 239.695312 145.40625 241.167969 146.140625 241.167969 146.140625 C 241.167969 146.140625 242.636719 146.875 243.738281 147.613281 C 244.84375 147.980469 246.3125 147.613281 247.046875 147.613281 C 247.785156 147.613281 248.519531 147.242188 249.988281 147.242188 C 251.460938 147.242188 252.195312 146.875 252.195312 146.875 C 252.195312 146.875 253.296875 145.773438 254.03125 145.039062 C 254.769531 144.304688 254.398438 143.933594 255.871094 141.363281 C 257.339844 138.789062 255.871094 141.363281 256.605469 140.625 C 257.339844 139.890625 256.605469 139.523438 256.238281 138.789062 C 255.871094 138.054688 253.664062 138.054688 252.195312 137.6875 C 250.722656 137.320312 252.195312 137.6875 250.722656 137.320312 C 249.253906 136.949219 248.519531 136.949219 248.519531 136.949219 C 248.519531 136.949219 246.679688 136.582031 245.210938 136.214844 C 243.738281 135.480469 245.210938 136.214844 244.84375 135.480469 C 244.476562 134.746094 244.476562 134.378906 244.476562 134.378906 L 242.636719 133.273438 C 242.636719 133.273438 241.902344 134.378906 241.902344 135.113281 C 241.902344 135.847656 242.636719 137.6875 242.636719 137.6875 L 240.0625 138.421875 C 240.0625 138.421875 238.960938 137.6875 238.59375 136.949219 C 238.226562 136.214844 238.960938 135.480469 237.492188 134.011719 C 236.019531 132.539062 237.492188 134.011719 236.386719 133.273438 C 235.285156 132.539062 236.019531 131.804688 236.019531 131.4375 C 236.019531 131.070312 235.285156 129.964844 235.285156 129.964844 C 235.285156 129.964844 233.445312 129.230469 232.34375 128.496094 C 231.609375 127.761719 231.242188 127.027344 230.136719 125.921875 C 228.667969 124.085938 228.667969 125.1875 227.933594 125.1875 C 227.933594 125.1875 227.566406 125.1875 227.566406 125.1875 C 227.566406 125.1875 227.566406 125.554688 227.933594 125.554688 C 228.300781 125.921875 228.300781 126.289062 228.667969 126.65625 C 229.035156 127.027344 229.402344 128.128906 229.402344 128.496094 C 229.769531 128.863281 230.136719 128.863281 230.875 129.230469 C 231.609375 129.597656 231.609375 129.964844 231.976562 130.335938 C 232.34375 130.703125 232.710938 131.070312 233.078125 131.4375 C 233.445312 131.804688 234.183594 131.804688 234.917969 132.171875 C 235.652344 132.539062 234.917969 133.640625 234.917969 133.273438 C 234.917969 133.273438 234.550781 132.90625 233.8125 132.90625 C 233.078125 132.90625 233.445312 133.640625 233.8125 133.640625 C 234.183594 133.640625 234.550781 134.378906 234.550781 134.746094 C 234.550781 134.746094 234.183594 135.847656 233.8125 136.214844 C 233.445312 136.582031 233.445312 136.582031 233.078125 136.949219 C 232.710938 137.320312 232.710938 137.320312 232.34375 137.320312 C 232.34375 137.320312 231.976562 138.054688 231.976562 138.421875 C 231.976562 138.789062 231.242188 139.15625 230.875 139.15625 C 230.507812 139.15625 230.136719 138.789062 230.136719 138.421875 C 229.769531 138.054688 229.402344 138.421875 229.035156 138.054688 C 228.667969 137.6875 228.300781 137.320312 228.667969 136.949219 C 229.035156 136.582031 229.402344 136.949219 230.136719 136.949219 C 230.875 136.582031 230.875 137.320312 231.609375 136.949219 C 232.34375 136.582031 232.710938 136.214844 232.710938 136.214844 C 232.710938 136.214844 231.609375 133.640625 231.242188 133.273438 C 230.875 132.90625 230.136719 132.539062 229.769531 132.171875 C 229.402344 131.804688 228.667969 131.804688 227.933594 131.070312 C 227.199219 130.335938 227.199219 130.703125 226.828125 129.964844 C 226.460938 129.230469 226.460938 129.597656 226.09375 129.230469 C 225.726562 128.863281 225.359375 128.128906 225.359375 127.761719 C 224.992188 127.394531 224.992188 127.394531 224.625 127.027344 C 224.257812 127.027344 224.257812 127.027344 224.257812 127.027344 C 224.257812 127.027344 224.257812 127.027344 223.523438 127.394531 C 222.785156 127.761719 222.417969 128.863281 220.949219 130.335938 C 219.476562 131.804688 219.109375 131.804688 218.742188 131.070312 C 218.007812 130.335938 216.535156 132.539062 216.535156 132.539062 L 215.800781 135.113281 C 215.800781 135.113281 214.332031 136.582031 213.230469 136.949219 C 212.125 137.320312 212.125 138.421875 211.757812 138.789062 C 211.390625 139.523438 209.183594 139.523438 208.082031 139.523438 C 206.980469 139.523438 206.613281 138.789062 205.507812 137.6875 C 204.40625 136.582031 205.507812 137.6875 204.773438 137.6875 C 204.039062 137.6875 202.9375 135.847656 202.9375 135.847656 C 202.9375 135.847656 202.9375 135.847656 204.039062 135.113281 C 205.140625 134.378906 204.039062 133.640625 204.039062 133.640625 L 204.773438 132.171875 C 204.773438 132.171875 203.304688 130.703125 204.773438 127.761719 C 206.242188 125.1875 204.773438 127.761719 207.347656 125.921875 C 209.921875 124.085938 207.347656 125.921875 210.289062 126.289062 C 213.230469 126.65625 212.492188 126.289062 212.492188 126.289062 C 212.492188 126.289062 212.492188 126.289062 212.125 124.820312 C 211.757812 123.347656 212.125 123.71875 211.757812 122.246094 C 211.390625 120.777344 211.757812 122.246094 211.023438 121.878906 C 210.289062 121.511719 209.550781 120.042969 209.921875 119.304688 C 210.289062 118.570312 211.757812 118.9375 211.757812 118.9375 C 211.757812 118.9375 215.433594 117.835938 217.640625 115.996094 C 219.476562 114.160156 217.640625 115.996094 218.742188 114.894531 C 219.84375 113.792969 219.84375 113.054688 219.84375 112.320312 C 219.84375 111.953125 223.152344 111.21875 223.152344 111.21875 C 223.152344 111.21875 223.523438 110.117188 223.523438 109.378906 C 223.523438 108.644531 223.890625 107.175781 223.890625 107.175781 C 223.890625 107.175781 224.992188 107.910156 225.726562 108.277344 C 226.460938 108.644531 226.09375 110.851562 226.09375 110.851562 C 226.09375 110.851562 227.199219 111.21875 227.933594 111.21875 C 228.667969 111.21875 229.402344 111.953125 230.507812 111.953125 C 231.609375 111.953125 231.976562 112.320312 233.8125 112.320312 C 235.285156 112.320312 236.386719 111.21875 236.386719 111.21875 C 236.386719 111.21875 236.753906 109.378906 237.121094 107.910156 C 237.492188 106.441406 237.492188 106.441406 237.859375 105.335938 C 238.226562 104.234375 239.695312 103.5 239.328125 102.394531 C 238.960938 101.292969 237.859375 100.925781 237.859375 98.71875 C 237.492188 96.515625 237.859375 98.71875 239.328125 97.984375 C 240.800781 97.25 239.328125 96.515625 239.328125 96.515625 C 239.328125 96.515625 239.328125 96.515625 238.59375 96.515625 C 237.859375 96.515625 235.285156 97.617188 234.917969 97.984375 C 234.183594 98.351562 232.710938 100.558594 232.710938 100.558594 C 232.710938 100.558594 233.8125 101.292969 235.285156 102.027344 C 236.753906 102.765625 234.917969 103.867188 234.550781 104.601562 C 233.8125 105.335938 233.078125 105.335938 232.710938 106.070312 C 232.34375 106.808594 231.976562 107.542969 231.242188 108.277344 C 230.507812 109.011719 229.769531 108.644531 229.035156 107.542969 C 228.300781 106.441406 229.035156 105.335938 229.035156 104.234375 C 229.035156 103.132812 227.199219 103.132812 226.460938 103.5 C 225.726562 103.867188 223.890625 104.96875 223.152344 104.96875 C 222.417969 104.96875 221.316406 104.96875 220.214844 104.234375 C 219.109375 103.5 219.476562 102.765625 220.214844 100.925781 C 220.949219 99.085938 222.050781 99.457031 224.625 98.351562 C 227.199219 97.25 225.726562 96.882812 226.460938 95.410156 C 227.199219 93.941406 226.828125 94.308594 228.300781 92.839844 C 229.769531 91.367188 229.769531 91.367188 233.078125 90.632812 C 236.386719 89.898438 237.492188 90.265625 237.859375 89.898438 C 238.59375 89.164062 240.429688 89.164062 241.167969 89.164062 C 241.902344 89.164062 243.738281 90.632812 244.84375 91.367188 C 245.945312 92.101562 247.414062 91.734375 251.828125 91 C 256.238281 90.265625 254.03125 92.472656 257.339844 92.472656 C 260.648438 92.472656 263.222656 92.101562 263.957031 91.734375 C 264.691406 91.367188 266.898438 91 269.472656 90.265625 C 272.046875 89.53125 271.308594 89.898438 272.78125 89.53125 C 274.25 89.164062 274.25 87.691406 274.984375 86.222656 C 275.722656 84.75 278.660156 86.589844 280.867188 88.058594 C 282.339844 89.164062 282.707031 88.792969 282.707031 88.058594 C 258.078125 64.164062 224.257812 49.460938 187.128906 49.460938 C 149.632812 49.460938 115.445312 64.53125 90.449219 89.164062 C 92.285156 89.164062 92.65625 89.898438 92.65625 89.898438 C 92.65625 89.898438 97.433594 89.53125 98.167969 89.164062 C 98.535156 88.792969 99.273438 89.164062 100.742188 88.792969 C 101.84375 88.792969 102.210938 89.164062 104.417969 89.53125 C 106.625 89.898438 105.519531 89.898438 106.257812 89.898438 C 106.992188 89.898438 106.992188 90.265625 108.09375 90.265625 C 109.195312 90.265625 109.195312 90.632812 110.300781 91 C 109.933594 90.632812 110.667969 90.265625 110.667969 89.898438 C 110.667969 89.164062 110.667969 89.164062 111.035156 88.792969 C 111.402344 88.425781 111.769531 88.058594 112.136719 87.691406 C 112.503906 87.324219 112.136719 87.324219 111.769531 86.589844 C 111.402344 85.855469 110.300781 86.957031 109.933594 86.957031 C 109.5625 86.957031 108.09375 87.691406 108.09375 87.691406 C 108.09375 87.691406 106.992188 87.324219 106.625 86.957031 C 106.257812 86.589844 106.257812 86.222656 105.886719 85.855469 C 105.519531 85.488281 106.257812 85.855469 107.359375 85.488281 C 108.460938 85.117188 108.460938 84.75 108.828125 84.382812 C 109.195312 84.015625 109.195312 84.015625 110.300781 83.28125 C 111.402344 82.546875 111.035156 82.914062 112.136719 82.914062 C 113.242188 82.914062 112.871094 83.28125 113.976562 83.28125 C 115.078125 83.28125 115.445312 84.015625 115.8125 84.015625 C 116.917969 83.648438 117.652344 85.117188 118.019531 85.117188 C 118.386719 85.117188 118.386719 85.488281 119.121094 85.488281 C 119.855469 85.488281 120.226562 85.488281 120.960938 85.488281 C 121.695312 85.488281 122.796875 85.117188 123.164062 84.75 C 123.535156 84.382812 125.371094 84.382812 125.371094 84.382812 C 125.371094 84.382812 124.636719 85.488281 124.636719 85.488281 C 124.636719 85.488281 123.902344 86.589844 123.902344 87.324219 C 123.902344 87.691406 124.269531 88.058594 124.636719 88.792969 C 125.003906 89.53125 124.269531 89.53125 123.902344 89.53125 C 123.535156 89.53125 123.535156 90.265625 123.535156 90.632812 C 123.535156 91 122.796875 90.632812 122.429688 90.632812 C 122.0625 90.632812 121.695312 90.632812 120.960938 90.632812 C 120.226562 90.632812 120.960938 91.367188 120.960938 91.734375 C 121.328125 91.734375 121.695312 91.734375 122.0625 91.734375 C 123.902344 91.734375 123.902344 92.101562 125.738281 92.101562 C 127.578125 92.101562 127.210938 91.734375 129.414062 91 C 131.621094 90.265625 129.414062 90.632812 129.78125 90.265625 C 130.148438 89.898438 129.78125 89.898438 130.148438 89.164062 C 130.519531 88.425781 129.78125 88.425781 129.78125 88.058594 C 129.78125 87.691406 130.519531 87.324219 130.886719 87.324219 C 131.253906 87.324219 131.988281 86.222656 133.089844 85.488281 C 134.195312 84.75 133.089844 85.488281 133.089844 85.117188 C 133.089844 84.75 132.722656 84.75 133.089844 84.015625 C 133.457031 83.648438 133.457031 84.015625 134.929688 83.648438 C 136.398438 83.28125 136.398438 82.546875 137.503906 83.28125 C 138.238281 83.648438 138.605469 84.015625 138.605469 84.382812 C 139.339844 84.015625 139.707031 83.648438 140.074219 83.648438 C 140.8125 83.648438 141.179688 84.015625 141.179688 83.648438 C 141.546875 83.28125 142.648438 84.015625 143.382812 84.015625 C 144.117188 84.015625 144.117188 84.015625 144.855469 84.015625 C 145.222656 84.015625 146.691406 83.648438 147.796875 83.648438 C 148.898438 83.648438 148.898438 84.015625 149.632812 84.382812 C 150.367188 84.75 150.367188 85.117188 150.367188 85.117188 C 150.367188 85.117188 151.105469 85.855469 151.105469 85.855469 C 151.105469 86.222656 151.839844 86.222656 152.574219 86.589844 C 153.308594 86.957031 153.308594 87.691406 153.308594 87.691406 C 153.308594 87.691406 152.941406 89.164062 152.941406 89.164062 C 152.941406 89.164062 154.78125 89.898438 154.78125 89.898438 C 154.78125 89.898438 155.515625 91 155.882812 91 C 155.882812 91 156.617188 91.734375 156.617188 91.734375 C 156.617188 91.734375 157.351562 92.839844 157.351562 92.839844 C 157.351562 92.839844 156.984375 93.574219 156.984375 93.574219 C 156.984375 93.574219 152.574219 93.574219 152.574219 93.574219 C 152.207031 93.574219 152.574219 97.25 151.839844 97.25 C 151.105469 97.25 151.472656 97.25 150.734375 96.882812 C 150 96.515625 150.734375 98.71875 150.734375 99.085938 C 150.734375 99.457031 150.367188 100.925781 149.632812 100.925781 C 149.265625 100.558594 147.425781 100.191406 147.058594 100.191406 C 146.324219 100.191406 145.589844 99.085938 145.222656 98.351562 C 144.855469 97.617188 143.75 97.984375 143.382812 97.984375 C 143.015625 97.984375 140.8125 96.882812 141.179688 96.515625 C 141.546875 96.148438 141.546875 96.515625 143.015625 95.777344 C 144.488281 95.042969 145.957031 94.308594 146.691406 93.574219 C 147.425781 92.839844 147.425781 92.472656 147.425781 92.101562 C 147.425781 91.734375 146.691406 91 146.324219 90.265625 C 145.957031 89.53125 144.488281 89.53125 144.121094 89.53125 C 143.75 89.53125 143.382812 89.53125 142.28125 90.265625 C 141.179688 91 141.546875 91 141.546875 91 C 141.546875 91 140.8125 92.472656 140.8125 92.472656 C 140.8125 92.839844 140.074219 93.207031 139.339844 93.941406 C 138.605469 94.308594 138.605469 94.308594 137.871094 94.675781 C 137.132812 95.042969 137.503906 95.777344 137.503906 95.777344 C 137.503906 95.777344 137.871094 97.25 137.871094 97.617188 C 138.238281 98.351562 137.132812 97.984375 136.765625 97.617188 C 136.398438 97.25 136.03125 97.25 135.296875 97.25 C 134.5625 97.25 134.5625 97.984375 134.195312 97.984375 C 133.828125 97.984375 133.457031 97.617188 133.457031 97.25 C 133.457031 96.882812 134.195312 96.515625 134.195312 96.148438 C 134.195312 95.777344 134.5625 95.777344 134.929688 95.410156 C 135.296875 95.042969 135.664062 94.308594 135.296875 93.941406 C 134.929688 93.574219 134.929688 93.574219 134.5625 93.207031 C 134.195312 92.839844 134.929688 92.472656 135.664062 92.101562 C 136.398438 91.734375 135.664062 92.101562 136.398438 91.734375 C 137.132812 91.367188 137.503906 89.898438 137.132812 89.53125 C 136.398438 89.164062 136.765625 89.164062 136.765625 88.792969 C 136.765625 88.425781 136.398438 88.425781 136.398438 88.058594 C 136.398438 88.058594 136.398438 87.691406 136.398438 87.324219 C 135.296875 87.691406 134.5625 87.691406 134.195312 88.058594 C 134.195312 88.425781 133.828125 89.898438 133.828125 89.898438 C 133.828125 89.898438 132.355469 92.101562 131.988281 93.207031 C 132.355469 94.308594 134.195312 95.777344 134.195312 95.777344 C 134.195312 95.777344 130.148438 97.25 129.78125 97.25 C 129.414062 97.25 125.371094 99.085938 123.164062 99.824219 C 120.59375 100.558594 120.226562 103.132812 119.488281 103.867188 C 118.753906 104.601562 122.796875 109.011719 124.636719 109.378906 C 126.472656 109.75 130.148438 111.953125 130.519531 111.21875 C 131.253906 110.484375 133.457031 109.378906 134.195312 109.011719 C 135.296875 108.644531 136.03125 104.96875 137.503906 102.765625 C 138.972656 100.558594 138.972656 100.558594 140.074219 100.558594 C 141.179688 100.558594 141.179688 99.457031 142.648438 99.457031 C 144.121094 99.457031 143.75 100.191406 143.75 100.191406 C 143.75 100.191406 144.488281 102.027344 145.589844 104.234375 C 146.691406 106.441406 146.691406 104.601562 148.164062 103.5 C 150 102.394531 149.632812 102.027344 151.472656 101.660156 C 153.308594 101.292969 152.574219 107.175781 152.574219 107.175781 C 152.574219 107.175781 152.941406 110.117188 153.675781 112.6875 C 154.042969 115.261719 152.574219 114.894531 152.207031 115.628906 C 151.839844 115.996094 152.941406 117.835938 153.675781 118.570312 C 154.042969 118.9375 154.410156 121.511719 154.410156 121.878906 C 154.410156 122.246094 152.941406 122.980469 151.839844 122.613281 C 150.367188 122.246094 150 121.878906 150 120.777344 C 150 119.671875 148.164062 118.203125 147.425781 117.835938 C 146.691406 117.46875 144.855469 117.835938 144.117188 118.570312 C 143.382812 119.304688 143.015625 121.878906 144.117188 122.613281 C 145.222656 123.347656 145.222656 124.820312 145.222656 124.820312 C 145.222656 124.820312 141.546875 125.921875 140.441406 125.921875 C 138.972656 125.921875 137.871094 126.65625 137.132812 127.394531 C 136.398438 128.128906 135.664062 129.964844 134.929688 130.703125 C 134.195312 131.4375 131.253906 132.171875 130.886719 132.171875 C 130.519531 132.171875 126.839844 136.582031 126.839844 136.949219 C 126.839844 137.6875 126.105469 140.257812 126.105469 140.257812 C 126.105469 140.257812 122.0625 142.097656 120.960938 142.832031 C 119.855469 143.566406 118.753906 146.140625 118.386719 146.507812 C 118.019531 146.507812 116.917969 149.449219 116.917969 149.816406 C 116.917969 150.183594 116.917969 153.125 116.917969 154.597656 C 116.917969 156.066406 115.445312 154.964844 114.710938 153.859375 C 113.976562 152.757812 114.710938 152.023438 114.710938 150.917969 C 114.710938 149.816406 113.976562 149.449219 112.871094 148.714844 C 111.769531 147.980469 108.828125 149.082031 107.726562 148.714844 C 106.625 148.347656 105.519531 148.714844 103.683594 148.714844 C 101.84375 148.714844 100.007812 149.449219 98.902344 149.816406 C 97.800781 149.816406 95.226562 153.125 94.859375 154.226562 C 94.492188 155.699219 93.757812 158.273438 93.757812 158.273438 C 93.757812 158.273438 94.859375 162.683594 95.59375 163.417969 C 95.964844 164.152344 97.433594 164.519531 98.902344 164.152344 C 100.375 164.152344 100.742188 163.785156 101.84375 163.417969 C 102.949219 163.050781 103.683594 161.582031 104.785156 161.582031 C 105.886719 161.582031 105.519531 161.949219 106.257812 161.949219 C 106.992188 161.949219 105.152344 165.992188 104.785156 166.359375 C 104.417969 166.726562 104.050781 168.566406 104.417969 168.566406 C 104.785156 168.566406 105.886719 168.566406 106.625 168.566406 C 107.726562 168.566406 109.195312 169.667969 109.933594 170.035156 C 110.667969 170.402344 109.5625 172.976562 109.5625 173.34375 C 109.5625 173.710938 109.933594 175.183594 111.035156 175.917969 C 112.136719 176.285156 113.242188 178.488281 113.242188 178.488281 C 113.242188 178.488281 110.300781 179.59375 109.5625 178.488281 C 109.195312 177.386719 107.726562 176.652344 107.359375 175.550781 C 106.625 174.078125 105.886719 175.183594 105.152344 174.445312 C 104.050781 173.710938 100.742188 171.875 100.742188 171.875 C 100.742188 171.875 99.273438 170.402344 98.167969 170.035156 C 97.066406 169.667969 95.964844 170.035156 95.964844 170.035156 C 95.964844 170.035156 91.917969 170.035156 90.816406 169.300781 C 89.714844 168.566406 88.609375 168.195312 87.140625 167.09375 C 85.671875 165.992188 84.566406 165.257812 84.566406 163.417969 C 84.566406 161.582031 84.566406 160.476562 84.566406 160.476562 C 84.566406 160.476562 83.832031 159.742188 83.464844 159.007812 C 83.097656 158.273438 82.730469 157.535156 82.363281 157.167969 C 82.363281 156.800781 81.625 155.699219 80.890625 154.964844 C 80.15625 154.226562 80.15625 153.492188 80.15625 153.492188 C 80.15625 153.492188 77.582031 150.917969 77.214844 150.917969 C 76.847656 150.917969 76.847656 151.65625 76.847656 151.65625 C 76.847656 151.65625 76.847656 153.492188 76.847656 154.226562 C 76.847656 154.597656 77.214844 156.433594 77.582031 156.800781 C 77.949219 157.167969 78.6875 159.007812 78.316406 159.375 C 77.949219 159.742188 77.214844 160.109375 76.480469 159.375 C 75.746094 158.640625 75.007812 157.902344 73.90625 156.066406 C 72.4375 154.226562 73.171875 154.226562 73.171875 150.550781 C 73.171875 146.875 72.804688 146.875 72.804688 145.40625 C 72.804688 143.933594 72.070312 143.566406 70.964844 141.730469 C 69.863281 139.890625 69.863281 137.320312 69.863281 135.480469 C 70.230469 133.640625 73.171875 129.964844 73.90625 128.863281 C 74.640625 127.761719 75.378906 126.65625 75.378906 125.921875 C 75.378906 125.554688 75.378906 120.042969 76.113281 118.203125 C 76.847656 116.363281 76.480469 116.734375 77.214844 115.261719 C 77.949219 113.792969 76.847656 112.6875 76.847656 112.6875 C 76.847656 112.6875 73.90625 113.792969 73.171875 113.425781 C 72.4375 113.058594 73.171875 111.953125 73.90625 110.117188 C 74.273438 109.378906 74.640625 109.011719 74.273438 108.277344 C 58.835938 131.070312 49.644531 158.273438 49.644531 187.679688 C 49.644531 263.773438 111.402344 325.53125 187.496094 325.53125 C 263.589844 325.53125 325.347656 263.773438 325.347656 187.679688 C 325.347656 178.859375 324.613281 170.035156 322.773438 161.582031 Z M 208.816406 108.277344 C 208.816406 107.910156 208.449219 107.910156 208.449219 107.910156 C 208.449219 107.910156 207.347656 107.175781 207.714844 107.175781 C 207.714844 107.175781 208.449219 106.808594 208.449219 106.808594 C 208.449219 106.808594 209.183594 106.808594 209.183594 106.808594 C 209.183594 106.808594 209.921875 106.441406 209.921875 106.441406 C 209.921875 106.441406 211.023438 105.335938 211.023438 105.703125 C 211.023438 105.703125 212.492188 105.335938 212.492188 105.703125 C 212.492188 106.441406 212.125 106.441406 212.125 106.808594 C 212.125 107.175781 212.125 106.808594 212.859375 106.808594 C 213.597656 106.808594 213.230469 106.808594 213.230469 107.175781 C 213.230469 107.542969 212.492188 107.910156 212.492188 107.910156 C 212.125 107.910156 212.859375 109.011719 212.859375 109.011719 L 213.230469 110.484375 C 213.230469 110.484375 213.597656 110.851562 213.964844 111.21875 C 214.332031 111.585938 215.433594 112.320312 215.433594 112.6875 C 215.433594 113.054688 216.167969 113.425781 216.535156 113.425781 C 216.90625 113.425781 217.273438 114.160156 217.273438 114.527344 C 217.273438 114.894531 216.90625 115.261719 216.535156 115.261719 C 216.167969 115.261719 215.800781 115.996094 215.433594 116.363281 C 215.066406 116.734375 214.699219 116.734375 214.699219 116.734375 C 214.332031 116.734375 214.332031 117.101562 213.964844 117.101562 C 213.597656 117.101562 212.859375 117.101562 212.492188 117.101562 C 211.757812 117.101562 212.492188 117.101562 212.125 117.101562 C 211.757812 117.101562 211.390625 117.46875 211.390625 117.46875 C 211.390625 117.46875 210.65625 118.203125 210.289062 118.203125 C 209.921875 118.203125 209.183594 118.570312 209.550781 118.203125 C 209.921875 117.835938 210.289062 117.835938 210.65625 117.101562 C 211.023438 116.363281 211.390625 116.734375 211.390625 116.363281 C 211.390625 116.363281 211.390625 115.996094 211.023438 115.628906 C 210.65625 115.261719 210.289062 115.628906 210.289062 115.628906 C 210.289062 115.628906 209.550781 115.261719 209.921875 114.894531 C 210.289062 114.527344 209.921875 114.894531 210.65625 114.894531 C 211.390625 114.894531 210.65625 114.894531 210.65625 114.527344 C 210.65625 114.160156 210.289062 114.160156 210.65625 113.425781 C 211.023438 113.054688 210.65625 113.425781 211.023438 113.425781 C 211.390625 113.425781 211.757812 113.054688 211.757812 112.6875 C 211.757812 112.320312 211.757812 112.320312 211.757812 111.953125 C 211.757812 111.585938 211.757812 111.585938 211.390625 110.851562 C 211.023438 110.117188 211.390625 110.851562 211.023438 110.484375 C 210.65625 110.117188 210.289062 110.484375 209.921875 110.484375 C 209.550781 110.484375 209.550781 110.851562 209.550781 110.851562 C 209.550781 110.851562 209.183594 111.21875 209.183594 111.585938 C 209.183594 111.953125 208.816406 111.953125 208.816406 112.320312 C 208.816406 112.6875 208.449219 113.058594 208.449219 113.058594 C 208.449219 113.058594 208.449219 113.792969 208.449219 114.160156 C 208.449219 114.527344 208.082031 114.894531 208.082031 114.894531 C 208.082031 114.894531 207.347656 115.261719 206.980469 115.261719 C 206.613281 115.261719 206.246094 115.628906 205.875 115.628906 C 205.507812 115.628906 205.140625 115.996094 205.140625 115.996094 C 205.140625 115.996094 204.40625 116.363281 204.039062 115.996094 C 203.671875 115.628906 203.671875 115.628906 203.671875 115.261719 C 203.671875 114.894531 203.671875 114.894531 204.40625 114.527344 C 205.140625 114.160156 204.773438 113.792969 204.773438 113.792969 C 204.773438 113.792969 204.40625 113.425781 204.40625 113.054688 C 204.40625 112.6875 204.773438 112.320312 205.140625 111.953125 C 205.507812 111.585938 205.875 111.953125 206.246094 111.953125 C 206.613281 111.953125 206.246094 111.953125 206.246094 111.585938 C 206.246094 111.21875 206.246094 111.21875 206.246094 111.21875 C 206.246094 111.21875 206.246094 110.851562 206.613281 110.484375 C 206.980469 110.117188 207.347656 110.484375 207.347656 110.484375 L 208.816406 110.117188 C 208.816406 110.117188 208.816406 109.75 209.183594 109.378906 C 209.183594 109.011719 209.183594 109.378906 209.183594 109.011719 C 209.183594 108.644531 208.816406 108.644531 208.816406 108.277344 Z M 139.339844 79.238281 C 139.339844 79.238281 139.707031 78.871094 139.339844 79.238281 C 139.707031 78.871094 139.707031 78.871094 139.707031 78.5 C 140.074219 78.132812 140.441406 78.5 140.8125 78.871094 C 141.546875 79.238281 140.8125 79.605469 140.8125 80.339844 C 140.8125 81.074219 140.441406 80.339844 140.074219 80.339844 C 139.707031 80.339844 139.339844 80.339844 138.972656 80.339844 C 138.605469 80.339844 138.238281 79.972656 138.238281 79.972656 C 138.238281 79.972656 138.972656 79.238281 139.339844 79.238281 Z M 134.929688 78.5 C 135.296875 78.132812 136.03125 78.132812 137.132812 78.5 C 137.132812 78.5 137.503906 79.238281 137.503906 79.238281 C 137.503906 79.238281 137.132812 79.972656 137.132812 79.972656 C 137.132812 79.972656 136.765625 79.972656 136.398438 79.972656 C 136.03125 79.972656 135.296875 79.972656 134.929688 79.605469 C 134.5625 79.238281 134.195312 78.5 134.929688 78.5 Z M 125.371094 83.648438 C 124.636719 83.648438 123.902344 83.648438 123.164062 84.015625 C 122.429688 84.382812 120.960938 84.382812 120.226562 84.382812 C 119.488281 84.382812 119.121094 84.015625 119.121094 84.015625 C 119.121094 84.015625 117.652344 83.28125 117.652344 83.28125 C 117.652344 83.28125 116.179688 82.914062 115.8125 82.914062 C 115.078125 82.914062 115.078125 82.546875 115.078125 82.179688 C 115.078125 81.808594 115.8125 82.179688 116.550781 81.808594 C 117.285156 81.808594 117.285156 81.808594 117.652344 81.441406 C 118.019531 81.074219 118.753906 81.074219 119.488281 80.339844 C 120.226562 79.605469 119.855469 80.339844 120.59375 79.972656 C 121.328125 79.605469 122.0625 79.972656 122.429688 79.972656 C 123.164062 79.972656 122.796875 79.972656 123.164062 80.339844 C 123.535156 80.707031 123.164062 81.074219 123.164062 81.074219 C 123.164062 81.074219 123.164062 81.441406 124.636719 81.808594 C 124.636719 81.808594 125.738281 81.808594 126.472656 81.441406 C 127.210938 81.074219 126.839844 81.074219 127.578125 80.707031 C 128.3125 80.339844 128.679688 81.441406 129.046875 81.808594 C 129.046875 82.179688 129.046875 82.546875 128.679688 82.546875 C 128.679688 82.546875 127.945312 82.914062 127.578125 83.28125 C 126.472656 83.648438 125.738281 83.648438 125.371094 83.648438 Z M 131.988281 86.589844 C 131.988281 86.957031 130.886719 87.324219 130.886719 87.324219 C 130.886719 87.324219 127.210938 87.691406 127.210938 87.324219 C 126.839844 86.957031 127.210938 86.222656 127.210938 85.855469 C 127.210938 85.488281 127.578125 85.855469 128.3125 85.855469 C 129.046875 85.855469 128.3125 85.488281 128.3125 85.117188 C 128.3125 84.75 130.148438 84.75 131.988281 84.75 C 133.089844 84.75 131.988281 86.589844 131.988281 86.589844 Z M 137.132812 83.648438 C 136.765625 83.648438 136.398438 83.648438 135.664062 83.28125 C 134.929688 83.28125 134.929688 82.914062 134.5625 82.914062 C 134.195312 82.914062 133.828125 83.648438 133.457031 83.648438 C 133.089844 83.648438 132.355469 83.648438 131.988281 83.648438 C 131.621094 83.648438 131.253906 83.28125 130.886719 82.914062 C 130.519531 82.546875 130.148438 81.808594 130.148438 81.441406 C 130.148438 81.074219 130.519531 81.441406 130.886719 81.441406 C 131.253906 81.441406 131.621094 81.441406 132.355469 81.074219 C 133.089844 81.074219 133.089844 81.074219 133.828125 81.074219 C 133.828125 81.074219 134.195312 81.074219 134.5625 80.707031 C 134.929688 80.339844 135.296875 80.707031 135.664062 80.707031 C 136.03125 80.707031 136.03125 81.074219 136.03125 81.808594 C 136.03125 82.546875 136.03125 81.808594 137.132812 81.808594 C 138.238281 81.808594 137.871094 82.179688 138.238281 82.914062 C 138.238281 83.648438 137.503906 83.648438 137.132812 83.648438 Z M 148.898438 83.648438 C 148.53125 83.648438 148.164062 84.015625 147.796875 84.015625 C 147.425781 84.015625 146.691406 84.382812 146.324219 84.382812 C 145.957031 84.382812 144.488281 84.382812 144.117188 84.382812 C 143.75 84.382812 143.015625 84.015625 142.28125 84.015625 C 141.546875 84.015625 141.179688 84.015625 140.8125 83.648438 C 140.441406 83.648438 139.339844 83.648438 138.972656 83.28125 C 138.605469 82.914062 138.972656 82.914062 139.339844 82.546875 C 139.707031 82.179688 139.339844 82.546875 139.707031 82.179688 C 140.074219 81.808594 139.707031 81.808594 139.339844 81.808594 C 138.972656 81.808594 137.871094 81.441406 137.871094 81.441406 C 137.871094 81.441406 137.871094 81.074219 138.605469 81.074219 C 139.339844 81.074219 140.074219 81.441406 140.441406 81.441406 C 140.8125 81.808594 140.8125 81.808594 141.179688 81.808594 C 141.546875 82.179688 141.546875 82.179688 141.914062 82.179688 C 142.28125 82.179688 143.015625 82.179688 143.382812 82.179688 C 144.117188 82.179688 144.117188 82.179688 144.855469 82.179688 C 145.589844 82.179688 145.957031 82.179688 147.425781 82.179688 C 148.898438 82.179688 148.898438 82.546875 149.265625 82.914062 C 150 83.28125 149.265625 83.648438 148.898438 83.648438 Z M 165.441406 206.429688 L 163.601562 210.472656 C 163.601562 210.472656 163.601562 211.941406 163.601562 215.25 C 163.601562 218.558594 162.867188 218.558594 162.5 221.132812 C 162.132812 224.074219 158.824219 224.441406 158.824219 224.441406 C 158.824219 224.441406 156.617188 225.910156 155.515625 226.277344 C 154.410156 226.644531 155.515625 227.015625 155.515625 227.015625 C 155.515625 227.015625 154.410156 229.21875 154.042969 229.953125 C 153.675781 230.691406 154.042969 231.425781 154.042969 231.425781 C 154.042969 231.425781 152.941406 234.734375 152.574219 235.46875 C 152.207031 236.203125 150.734375 239.144531 150.734375 239.144531 L 148.164062 240.246094 C 148.164062 240.246094 147.425781 242.453125 146.324219 243.1875 C 145.589844 243.921875 146.324219 245.761719 146.324219 245.761719 L 144.855469 246.128906 C 144.855469 246.128906 143.015625 247.96875 142.28125 248.335938 C 141.546875 248.703125 140.8125 249.4375 140.8125 249.4375 C 140.8125 249.4375 140.8125 253.113281 140.8125 254.214844 C 140.8125 255.320312 140.441406 259.363281 140.441406 260.097656 C 140.441406 260.832031 141.179688 262.304688 141.179688 262.304688 C 141.179688 262.304688 144.488281 266.347656 144.855469 267.449219 C 145.589844 268.554688 139.707031 268.183594 138.605469 267.449219 C 137.503906 266.714844 136.765625 265.980469 135.296875 264.507812 C 133.828125 263.039062 129.414062 255.6875 128.679688 253.847656 C 128.3125 252.011719 129.046875 249.804688 128.679688 249.4375 C 128.3125 249.070312 128.679688 246.128906 128.679688 245.027344 C 128.679688 243.921875 126.839844 241.71875 126.105469 238.777344 C 125.371094 235.46875 126.839844 236.570312 126.105469 234.367188 C 125.371094 232.527344 126.472656 232.160156 125.738281 230.691406 C 125.003906 229.21875 126.839844 223.335938 125.738281 220.765625 C 124.636719 218.191406 126.105469 219.292969 125.738281 218.558594 C 125.371094 217.824219 124.269531 216.351562 123.902344 215.617188 C 123.535156 214.882812 120.960938 213.78125 120.226562 212.675781 C 119.488281 211.941406 118.753906 211.207031 118.019531 210.472656 C 117.285156 209.738281 114.710938 209 113.242188 207.164062 C 111.769531 205.324219 112.503906 204.222656 113.609375 201.28125 C 114.710938 198.339844 112.871094 200.179688 111.769531 197.972656 C 110.300781 195.765625 111.035156 196.503906 111.769531 194.664062 C 112.503906 192.828125 112.871094 192.089844 113.609375 190.621094 C 114.34375 189.152344 113.609375 190.621094 115.078125 189.152344 C 116.550781 187.679688 115.078125 187.679688 115.078125 187.3125 C 115.078125 186.578125 115.078125 185.472656 115.8125 183.269531 C 116.550781 181.429688 115.445312 181.429688 115.8125 180.328125 C 116.179688 179.226562 116.179688 179.59375 117.285156 178.121094 C 118.386719 176.652344 117.285156 178.121094 118.019531 176.652344 C 118.753906 175.179688 118.019531 176.652344 119.488281 175.917969 C 120.960938 175.179688 119.488281 175.179688 119.488281 175.179688 C 120.960938 173.710938 121.328125 174.445312 126.105469 173.34375 C 130.886719 172.242188 127.945312 173.34375 129.414062 173.34375 C 130.886719 173.34375 131.253906 174.078125 134.195312 175.179688 C 137.132812 176.285156 136.03125 176.285156 136.03125 176.285156 C 136.03125 176.285156 137.503906 178.121094 138.972656 179.226562 C 140.441406 180.328125 140.8125 179.960938 143.015625 181.429688 C 145.589844 182.902344 143.015625 181.429688 144.855469 182.535156 C 146.691406 183.636719 148.164062 185.84375 148.53125 186.945312 C 149.265625 188.046875 151.839844 189.886719 152.941406 190.621094 C 154.042969 191.355469 155.515625 192.460938 157.351562 192.089844 C 159.191406 191.355469 159.191406 193.195312 161.027344 193.929688 C 162.867188 194.664062 162.132812 194.664062 163.96875 195.398438 C 165.808594 196.136719 164.703125 196.503906 166.542969 197.972656 C 168.75 199.8125 165.441406 206.429688 165.441406 206.429688 Z M 184.554688 95.042969 C 181.980469 96.148438 182.351562 95.777344 181.613281 96.148438 C 180.878906 96.515625 177.9375 97.617188 176.835938 97.984375 C 175.367188 98.351562 174.996094 99.824219 174.996094 100.558594 C 174.996094 101.292969 172.792969 103.5 172.058594 102.765625 C 171.320312 102.027344 168.75 103.132812 168.011719 102.765625 C 167.277344 102.394531 166.910156 100.558594 165.441406 98.71875 C 163.96875 96.882812 165.074219 96.882812 165.441406 95.042969 C 165.808594 93.207031 166.175781 92.472656 166.542969 91 C 166.910156 89.53125 167.277344 89.53125 168.382812 88.425781 C 169.484375 86.957031 169.117188 86.957031 169.117188 85.855469 C 169.117188 84.75 167.277344 84.382812 166.542969 84.015625 C 165.808594 83.648438 162.132812 83.28125 160.292969 81.808594 C 158.457031 80.339844 159.191406 80.339844 159.191406 80.339844 C 159.191406 80.339844 160.292969 79.972656 161.765625 79.238281 C 159.925781 78.5 160.660156 79.238281 159.191406 78.5 C 157.71875 77.765625 156.617188 79.972656 154.78125 80.339844 C 153.308594 81.074219 152.941406 81.441406 152.207031 82.179688 C 151.472656 82.914062 150.734375 82.179688 150.734375 82.179688 C 150.734375 82.179688 149.632812 82.179688 148.898438 82.179688 C 148.164062 82.179688 143.75 82.179688 141.546875 81.441406 C 139.339844 80.707031 142.648438 81.074219 143.015625 80.339844 C 143.382812 79.605469 145.222656 80.339844 147.425781 80.339844 C 149.632812 80.339844 148.164062 79.972656 147.425781 79.605469 C 146.691406 79.238281 145.222656 79.605469 143.75 78.5 C 142.28125 77.398438 142.648438 78.132812 143.75 77.398438 C 144.855469 76.664062 146.324219 77.03125 147.796875 76.296875 C 149.265625 75.929688 149.632812 76.296875 151.839844 76.296875 C 154.042969 76.296875 153.308594 75.5625 154.410156 75.195312 C 155.515625 74.824219 156.25 75.195312 158.089844 75.195312 C 159.925781 75.195312 159.925781 75.195312 160.660156 75.195312 C 161.398438 75.195312 162.5 75.195312 163.96875 75.195312 C 165.441406 75.195312 165.808594 74.824219 167.644531 74.089844 C 169.484375 73.355469 169.117188 74.457031 170.585938 75.5625 C 170.953125 75.5625 171.6875 75.5625 172.425781 75.195312 C 175.734375 74.824219 176.101562 75.5625 177.9375 75.929688 C 179.777344 76.296875 181.246094 75.5625 182.71875 74.457031 C 183.820312 73.355469 185.660156 74.089844 190.070312 74.457031 C 190.4375 74.457031 190.804688 74.457031 191.171875 74.457031 C 192.273438 74.457031 201.464844 74.457031 202.9375 74.089844 C 204.40625 73.722656 205.140625 74.089844 206.613281 74.089844 C 208.082031 74.089844 206.980469 76.664062 205.507812 76.664062 C 204.039062 76.664062 202.9375 77.765625 202.199219 79.238281 C 201.464844 80.707031 200.363281 81.808594 198.890625 82.546875 C 197.421875 83.28125 197.054688 85.488281 196.6875 86.222656 C 196.320312 86.957031 195.582031 89.53125 194.847656 89.898438 C 194.113281 90.265625 191.90625 91 190.804688 91.367188 C 189.335938 92.101562 186.761719 93.941406 184.554688 95.042969 Z M 184.554688 95.042969 " fill-opacity="1" fill-rule="nonzero"/></g></svg>