<svg xmlns="http://www.w3.org/2000/svg" xmlns:xlink="http://www.w3.org/1999/xlink" width="500" zoomAndPan="magnify" viewBox="0 0 375 374.999991" height="500" preserveAspectRatio="xMidYMid meet" version="1.0"><defs><clipPath id="9f080fc992"><path d="M 187.5 0 C 83.945312 0 0 83.945312 0 187.5 C 0 291.054688 83.945312 375 187.5 375 C 291.054688 375 375 291.054688 375 187.5 C 375 83.945312 291.054688 0 187.5 0 Z M 187.5 0 " clip-rule="nonzero"/></clipPath><clipPath id="778962406a"><path d="M 65.625 65.625 L 309.375 65.625 L 309.375 309.375 L 65.625 309.375 Z M 65.625 65.625 " clip-rule="nonzero"/></clipPath></defs><g clip-path="url(#9f080fc992)"><rect x="-37.5" width="450" fill="#ffffff" y="-37.499999" height="449.999989" fill-opacity="1"/></g><g clip-path="url(#778962406a)"><path fill="#333a4c" d="M 306.359375 244.5625 C 308.140625 249.316406 309.175781 254.425781 309.335938 259.765625 C 309.375 260.277344 309.375 260.785156 309.375 261.3125 C 309.375 287.847656 287.847656 309.375 261.3125 309.375 C 153.234375 309.375 65.625 221.765625 65.625 113.6875 C 65.625 87.152344 87.152344 65.625 113.6875 65.625 C 114.214844 65.625 114.722656 65.625 115.230469 65.664062 C 120.574219 65.820312 125.699219 66.859375 130.457031 68.636719 L 148.5 146.757812 C 148.5 146.796875 148.480469 146.816406 148.441406 146.835938 L 115.347656 161.707031 L 115.25 161.746094 C 130.4375 207.988281 167.011719 244.5625 213.25 259.75 L 213.289062 259.648438 L 228.183594 226.539062 L 306.359375 244.5625 " fill-opacity="1" fill-rule="nonzero"/></g></svg>