<svg xmlns="http://www.w3.org/2000/svg" xmlns:xlink="http://www.w3.org/1999/xlink" width="1920" zoomAndPan="magnify" viewBox="0 0 1440 809.999993" height="1080" preserveAspectRatio="xMidYMid meet" version="1.0"><defs><filter x="0%" y="0%" width="100%" height="100%" id="3252e8355f"><feColorMatrix values="0 0 0 0 1 0 0 0 0 1 0 0 0 0 1 0 0 0 1 0" color-interpolation-filters="sRGB"/></filter><mask id="07ba74995e"><g filter="url(#3252e8355f)"><rect x="-144" width="1728" fill="#000000" y="-80.999999" height="971.999992" fill-opacity="0.69"/></g></mask><clipPath id="fe04146abe"><path d="M 1 0 L 811 0 L 811 810 L 1 810 Z M 1 0 " clip-rule="nonzero"/></clipPath><clipPath id="73b5cd5c91"><rect x="0" width="813" y="0" height="810"/></clipPath><clipPath id="e294667118"><path d="M 483 210 L 957 210 L 957 631.230469 L 483 631.230469 Z M 483 210 " clip-rule="nonzero"/></clipPath></defs><g mask="url(#07ba74995e)"><g transform="matrix(1, 0, 0, 1, 314, 0.000000000000039746)"><g clip-path="url(#73b5cd5c91)"><g clip-path="url(#fe04146abe)"><path fill="#737373" d="M 608.726562 378.199219 C 603.527344 444.882812 553.183594 527.125 406.066406 630.3125 C 258.949219 527.125 208.617188 444.882812 203.410156 378.199219 L 203.410156 355.015625 C 209.003906 285.351562 254.921875 249 294.625 245.117188 C 301.152344 244.480469 307.253906 244.175781 312.980469 244.175781 C 358.863281 244.175781 380.867188 264.003906 406.066406 294.03125 C 431.261719 264.003906 453.269531 244.175781 499.152344 244.175781 C 504.875 244.175781 510.976562 244.480469 517.507812 245.117188 C 557.210938 249 603.128906 285.351562 608.726562 355.015625 Z M 406.074219 0.0273438 C 182.375 0.0273438 1.027344 181.375 1.027344 405.074219 C 1.027344 628.769531 182.375 810.109375 406.074219 810.109375 C 629.769531 810.109375 811.109375 628.769531 811.109375 405.074219 C 811.109375 181.375 629.769531 0.0273438 406.074219 0.0273438 " fill-opacity="1" fill-rule="nonzero"/></g></g></g></g><g clip-path="url(#e294667118)"><path fill="#f23358" d="M 949.175781 301.621094 C 905.910156 179.296875 769.6875 188.351562 720.210938 281.199219 C 670.835938 188.246094 534.613281 178.980469 491.136719 301.203125 C 435.554688 457.636719 698.628906 618.386719 719.789062 631.019531 C 741.054688 618.386719 1004.445312 458.164062 949.175781 301.621094 Z M 949.175781 301.621094 " fill-opacity="1" fill-rule="nonzero"/></g></svg>