<svg xmlns="http://www.w3.org/2000/svg" xmlns:xlink="http://www.w3.org/1999/xlink" width="1920" zoomAndPan="magnify" viewBox="0 0 1440 809.999993" height="1080" preserveAspectRatio="xMidYMid meet" version="1.0"><defs><filter x="0%" y="0%" width="100%" height="100%" id="c27631e883"><feColorMatrix values="0 0 0 0 1 0 0 0 0 1 0 0 0 0 1 0 0 0 1 0" color-interpolation-filters="sRGB"/></filter><mask id="1c6190e92e"><g filter="url(#c27631e883)"><rect x="-144" width="1728" fill="#000000" y="-80.999999" height="971.999992" fill-opacity="0.69"/></g></mask><clipPath id="59cf74e0d3"><path d="M 0.710938 0 L 810.710938 0 L 810.710938 810 L 0.710938 810 Z M 0.710938 0 " clip-rule="nonzero"/></clipPath><clipPath id="627c566463"><rect x="0" width="813" y="0" height="810"/></clipPath></defs><g mask="url(#1c6190e92e)"><g transform="matrix(1, 0, 0, 1, 319, 0.000000000000039746)"><g clip-path="url(#627c566463)"><g clip-path="url(#59cf74e0d3)"><path fill="#737373" d="M 608.4375 378.199219 C 603.234375 444.882812 552.890625 527.125 405.773438 630.3125 C 258.660156 527.125 208.328125 444.882812 203.121094 378.199219 L 203.121094 355.015625 C 208.710938 285.351562 254.628906 249 294.335938 245.117188 C 300.863281 244.480469 306.964844 244.175781 312.6875 244.175781 C 358.574219 244.175781 380.578125 264.003906 405.773438 294.03125 C 430.972656 264.003906 452.976562 244.175781 498.859375 244.175781 C 504.585938 244.175781 510.6875 244.480469 517.214844 245.117188 C 556.917969 249 602.835938 285.351562 608.4375 355.015625 Z M 405.78125 0.0273438 C 182.085938 0.0273438 0.738281 181.375 0.738281 405.074219 C 0.738281 628.769531 182.085938 810.109375 405.78125 810.109375 C 629.480469 810.109375 810.820312 628.769531 810.820312 405.074219 C 810.820312 181.375 629.480469 0.0273438 405.78125 0.0273438 " fill-opacity="1" fill-rule="nonzero"/></g></g></g></g></svg>